<?xml version="1.0" encoding="utf-8" standalone="no"?>
<!DOCTYPE svg PUBLIC "-//W3C//DTD SVG 1.1//EN"
  "http://www.w3.org/Graphics/SVG/1.1/DTD/svg11.dtd">
<svg xmlns:xlink="http://www.w3.org/1999/xlink" width="211.68pt" height="154.820391pt" viewBox="0 0 211.68 154.820391" xmlns="http://www.w3.org/2000/svg" version="1.1">
 <metadata>
  <rdf:RDF xmlns:dc="http://purl.org/dc/elements/1.1/" xmlns:cc="http://creativecommons.org/ns#" xmlns:rdf="http://www.w3.org/1999/02/22-rdf-syntax-ns#">
   <cc:Work>
    <dc:type rdf:resource="http://purl.org/dc/dcmitype/StillImage"/>
    <dc:date>2025-11-14T01:06:42.145316</dc:date>
    <dc:format>image/svg+xml</dc:format>
    <dc:creator>
     <cc:Agent>
      <dc:title>Matplotlib v3.10.7, https://matplotlib.org/</dc:title>
     </cc:Agent>
    </dc:creator>
   </cc:Work>
  </rdf:RDF>
 </metadata>
 <defs>
  <style type="text/css">*{stroke-linejoin: round; stroke-linecap: butt}</style>
 </defs>
 <g id="figure_1">
  <g id="patch_1">
   <path d="M 0 154.820391 
L 211.68 154.820391 
L 211.68 0 
L 0 0 
z
" style="fill: #ffffff"/>
  </g>
  <g id="axes_1">
   <g id="patch_2">
    <path d="M 44.814916 98.171971 
L 204.48 98.171971 
L 204.48 7.2 
L 44.814916 7.2 
z
" style="fill: #ffffff"/>
   </g>
   <g id="matplotlib.axis_1">
    <g id="xtick_1">
     <g id="line2d_1">
      <path d="M 51.343022 98.171971 
L 51.343022 7.2 
" clip-path="url(#pf3b1e2122d)" style="fill: none; stroke-dasharray: 1.85,0.8; stroke-dashoffset: 0; stroke: #b0b0b0; stroke-opacity: 0.3; stroke-width: 0.5"/>
     </g>
     <g id="line2d_2">
      <defs>
       <path id="m38d188caee" d="M 0 0 
L 0 3.5 
" style="stroke: #000000; stroke-width: 0.8"/>
      </defs>
      <g>
       <use xlink:href="#m38d188caee" x="51.343022" y="98.171971" style="stroke: #000000; stroke-width: 0.8"/>
      </g>
     </g>
     <g id="text_1">
      <!-- $\mathdefault{0}$ -->
      <g transform="translate(48.852362 111.926549) scale(0.1 -0.1)">
       <defs>
        <path id="NimbusRomNo9L-Regu-30" d="M 1626 4352 
C 1274 4352 1005 4244 768 4020 
C 397 3661 154 2925 154 2176 
C 154 1479 365 730 666 372 
C 902 90 1229 -64 1600 -64 
C 1926 -64 2202 45 2432 269 
C 2803 621 3046 1364 3046 2138 
C 3046 3450 2464 4352 1626 4352 
z
M 1606 4186 
C 2144 4186 2432 3463 2432 2125 
C 2432 788 2150 103 1600 103 
C 1050 103 768 788 768 2119 
C 768 3476 1056 4186 1606 4186 
z
" transform="scale(0.015625)"/>
       </defs>
       <use xlink:href="#NimbusRomNo9L-Regu-30" transform="scale(0.996264)"/>
      </g>
     </g>
    </g>
    <g id="xtick_2">
     <g id="line2d_3">
      <path d="M 87.812891 98.171971 
L 87.812891 7.2 
" clip-path="url(#pf3b1e2122d)" style="fill: none; stroke-dasharray: 1.85,0.8; stroke-dashoffset: 0; stroke: #b0b0b0; stroke-opacity: 0.3; stroke-width: 0.5"/>
     </g>
     <g id="line2d_4">
      <g>
       <use xlink:href="#m38d188caee" x="87.812891" y="98.171971" style="stroke: #000000; stroke-width: 0.8"/>
      </g>
     </g>
     <g id="text_2">
      <!-- $\mathdefault{1}$ -->
      <g transform="translate(85.322231 111.926549) scale(0.1 -0.1)">
       <defs>
        <path id="NimbusRomNo9L-Regu-31" d="M 1862 4339 
L 710 3757 
L 710 3667 
C 787 3699 858 3725 883 3738 
C 998 3783 1107 3808 1171 3808 
C 1306 3808 1363 3711 1363 3505 
L 1363 592 
C 1363 379 1312 232 1210 173 
C 1114 116 1024 96 755 96 
L 755 0 
L 2522 0 
L 2522 96 
C 2016 96 1914 160 1914 470 
L 1914 4327 
L 1862 4339 
z
" transform="scale(0.015625)"/>
       </defs>
       <use xlink:href="#NimbusRomNo9L-Regu-31" transform="scale(0.996264)"/>
      </g>
     </g>
    </g>
    <g id="xtick_3">
     <g id="line2d_5">
      <path d="M 124.282759 98.171971 
L 124.282759 7.2 
" clip-path="url(#pf3b1e2122d)" style="fill: none; stroke-dasharray: 1.85,0.8; stroke-dashoffset: 0; stroke: #b0b0b0; stroke-opacity: 0.3; stroke-width: 0.5"/>
     </g>
     <g id="line2d_6">
      <g>
       <use xlink:href="#m38d188caee" x="124.282759" y="98.171971" style="stroke: #000000; stroke-width: 0.8"/>
      </g>
     </g>
     <g id="text_3">
      <!-- $\mathdefault{2}$ -->
      <g transform="translate(121.792099 111.926549) scale(0.1 -0.1)">
       <defs>
        <path id="NimbusRomNo9L-Regu-32" d="M 3040 875 
L 2957 907 
C 2720 544 2637 486 2349 486 
L 819 486 
L 1894 1609 
C 2464 2202 2714 2687 2714 3185 
C 2714 3823 2195 4313 1530 4313 
C 1178 4313 845 4173 608 3918 
C 403 3700 307 3496 198 3043 
L 333 3011 
C 589 3636 819 3840 1261 3840 
C 1798 3840 2163 3476 2163 2940 
C 2163 2443 1869 1850 1331 1282 
L 192 77 
L 192 0 
L 2688 0 
L 3040 875 
z
" transform="scale(0.015625)"/>
       </defs>
       <use xlink:href="#NimbusRomNo9L-Regu-32" transform="scale(0.996264)"/>
      </g>
     </g>
    </g>
    <g id="xtick_4">
     <g id="line2d_7">
      <path d="M 160.752628 98.171971 
L 160.752628 7.2 
" clip-path="url(#pf3b1e2122d)" style="fill: none; stroke-dasharray: 1.85,0.8; stroke-dashoffset: 0; stroke: #b0b0b0; stroke-opacity: 0.3; stroke-width: 0.5"/>
     </g>
     <g id="line2d_8">
      <g>
       <use xlink:href="#m38d188caee" x="160.752628" y="98.171971" style="stroke: #000000; stroke-width: 0.8"/>
      </g>
     </g>
     <g id="text_4">
      <!-- $\mathdefault{3}$ -->
      <g transform="translate(158.261968 111.926549) scale(0.1 -0.1)">
       <defs>
        <path id="NimbusRomNo9L-Regu-33" d="M 979 2138 
C 1357 2138 1504 2125 1658 2068 
C 2054 1927 2304 1562 2304 1120 
C 2304 583 1939 167 1466 167 
C 1293 167 1165 212 928 365 
C 736 480 627 525 518 525 
C 371 525 275 436 275 301 
C 275 77 550 -64 998 -64 
C 1491 -64 1997 103 2298 365 
C 2598 628 2765 999 2765 1428 
C 2765 1754 2662 2055 2477 2253 
C 2349 2394 2227 2471 1946 2592 
C 2387 2893 2547 3130 2547 3476 
C 2547 3994 2138 4352 1549 4352 
C 1229 4352 947 4244 717 4039 
C 525 3866 429 3699 288 3315 
L 384 3290 
C 646 3757 934 3968 1338 3968 
C 1754 3968 2042 3687 2042 3284 
C 2042 3053 1946 2823 1786 2663 
C 1594 2471 1414 2375 979 2221 
L 979 2138 
z
" transform="scale(0.015625)"/>
       </defs>
       <use xlink:href="#NimbusRomNo9L-Regu-33" transform="scale(0.996264)"/>
      </g>
     </g>
    </g>
    <g id="xtick_5">
     <g id="line2d_9">
      <path d="M 197.222496 98.171971 
L 197.222496 7.2 
" clip-path="url(#pf3b1e2122d)" style="fill: none; stroke-dasharray: 1.85,0.8; stroke-dashoffset: 0; stroke: #b0b0b0; stroke-opacity: 0.3; stroke-width: 0.5"/>
     </g>
     <g id="line2d_10">
      <g>
       <use xlink:href="#m38d188caee" x="197.222496" y="98.171971" style="stroke: #000000; stroke-width: 0.8"/>
      </g>
     </g>
     <g id="text_5">
      <!-- $\mathdefault{4}$ -->
      <g transform="translate(194.731836 111.926549) scale(0.1 -0.1)">
       <defs>
        <path id="NimbusRomNo9L-Regu-34" d="M 3021 1497 
L 2368 1497 
L 2368 4352 
L 2086 4352 
L 77 1497 
L 77 1088 
L 1875 1088 
L 1875 32 
L 2368 32 
L 2368 1088 
L 3021 1088 
L 3021 1497 
z
M 1869 1497 
L 333 1497 
L 1869 3698 
L 1869 1497 
z
" transform="scale(0.015625)"/>
       </defs>
       <use xlink:href="#NimbusRomNo9L-Regu-34" transform="scale(0.996264)"/>
      </g>
     </g>
    </g>
    <g id="text_6">
     <!-- Training Epoch -->
     <g transform="translate(93.693733 124.837955) scale(0.1 -0.1)">
      <defs>
       <path id="NimbusRomNo9L-Regu-54" d="M 1626 3968 
L 1626 751 
C 1626 204 1555 134 1024 134 
L 1024 0 
L 2893 0 
L 2893 134 
C 2368 134 2278 217 2278 687 
L 2278 3968 
L 2624 3968 
C 3354 3968 3494 3853 3642 3149 
L 3795 3149 
L 3757 4237 
L 147 4237 
L 109 3149 
L 262 3149 
C 416 3846 563 3968 1280 3968 
L 1626 3968 
z
" transform="scale(0.015625)"/>
       <path id="NimbusRomNo9L-Regu-72" d="M 45 2496 
C 134 2515 192 2522 269 2522 
C 429 2522 486 2419 486 2138 
L 486 538 
C 486 218 442 173 32 96 
L 32 0 
L 1568 0 
L 1568 102 
C 1133 102 1024 199 1024 565 
L 1024 2013 
C 1024 2219 1299 2541 1472 2541 
C 1510 2541 1568 2509 1638 2445 
C 1741 2355 1811 2317 1894 2317 
C 2048 2317 2144 2426 2144 2605 
C 2144 2816 2010 2944 1792 2944 
C 1523 2944 1338 2797 1024 2343 
L 1024 2931 
L 992 2944 
C 653 2803 422 2721 45 2599 
L 45 2496 
z
" transform="scale(0.015625)"/>
       <path id="NimbusRomNo9L-Regu-61" d="M 2829 423 
C 2720 333 2643 301 2547 301 
C 2400 301 2355 390 2355 672 
L 2355 1920 
C 2355 2253 2323 2438 2227 2592 
C 2086 2822 1811 2944 1434 2944 
C 832 2944 358 2630 358 2227 
C 358 2080 486 1952 634 1952 
C 787 1952 922 2080 922 2221 
C 922 2246 915 2278 909 2323 
C 896 2381 890 2432 890 2477 
C 890 2650 1094 2790 1350 2790 
C 1664 2790 1837 2605 1837 2259 
L 1837 1869 
C 851 1472 742 1421 467 1178 
C 326 1050 237 832 237 621 
C 237 218 518 -64 909 -64 
C 1190 -64 1453 70 1843 403 
C 1875 70 1990 -64 2253 -64 
C 2470 -64 2605 13 2829 256 
L 2829 423 
z
M 1837 783 
C 1837 584 1805 526 1670 449 
C 1517 359 1338 301 1203 301 
C 979 301 800 520 800 796 
L 800 822 
C 800 1201 1062 1433 1837 1715 
L 1837 783 
z
" transform="scale(0.015625)"/>
       <path id="NimbusRomNo9L-Regu-69" d="M 1120 2929 
L 128 2579 
L 128 2484 
L 179 2490 
C 256 2502 339 2509 397 2509 
C 550 2509 608 2406 608 2125 
L 608 640 
C 608 179 544 109 102 109 
L 102 0 
L 1619 0 
L 1619 96 
C 1197 128 1146 191 1146 650 
L 1146 2910 
L 1120 2929 
z
M 819 4352 
C 646 4352 499 4205 499 4026 
C 499 3847 640 3699 819 3699 
C 1005 3699 1152 3840 1152 4026 
C 1152 4205 1005 4352 819 4352 
z
" transform="scale(0.015625)"/>
       <path id="NimbusRomNo9L-Regu-6e" d="M 102 2579 
C 141 2598 205 2605 275 2605 
C 454 2605 512 2509 512 2195 
L 512 608 
C 512 243 442 154 115 128 
L 115 32 
L 1472 32 
L 1472 128 
C 1146 154 1050 230 1050 461 
L 1050 2259 
C 1357 2547 1498 2624 1709 2624 
C 2022 2624 2176 2426 2176 2003 
L 2176 666 
C 2176 262 2093 154 1773 128 
L 1773 32 
L 3104 32 
L 3104 128 
C 2790 160 2714 237 2714 550 
L 2714 2016 
C 2714 2618 2432 2976 1958 2976 
C 1664 2976 1466 2867 1030 2458 
L 1030 2963 
L 986 2976 
C 672 2861 454 2790 102 2688 
L 102 2579 
z
" transform="scale(0.015625)"/>
       <path id="NimbusRomNo9L-Regu-67" d="M 3008 2496 
L 3008 2746 
L 2515 2746 
C 2387 2746 2291 2763 2163 2802 
L 2022 2847 
C 1850 2903 1677 2931 1510 2931 
C 915 2931 442 2467 442 1881 
C 442 1476 614 1230 1037 1018 
C 915 906 800 799 762 768 
C 550 588 467 463 467 338 
C 467 206 544 131 806 6 
C 352 -329 179 -543 179 -781 
C 179 -1124 678 -1408 1286 -1408 
C 1766 -1408 2266 -1238 2598 -962 
C 2842 -759 2950 -548 2950 -299 
C 2950 108 2650 384 2176 384 
L 1350 384 
C 1011 384 851 443 851 548 
C 851 678 1062 908 1235 960 
C 1293 953 1338 947 1357 947 
C 1478 934 1562 928 1600 928 
C 1837 928 2093 1026 2291 1203 
C 2502 1387 2598 1617 2598 1945 
C 2598 2135 2566 2286 2477 2496 
L 3008 2496 
z
M 941 -13 
C 1152 -58 1664 -96 1978 -96 
C 2560 -96 2771 -180 2771 -414 
C 2771 -791 2285 -1043 1562 -1043 
C 998 -1043 627 -855 627 -570 
C 627 -420 672 -336 941 -13 
z
M 973 2145 
C 973 2526 1152 2752 1446 2752 
C 1645 2752 1811 2642 1914 2449 
C 2029 2223 2106 1927 2106 1675 
C 2106 1314 1920 1088 1626 1088 
C 1242 1088 973 1507 973 2126 
L 973 2145 
z
" transform="scale(0.015625)"/>
       <path id="NimbusRomNo9L-Regu-45" d="M 3821 1078 
L 3642 1078 
C 3322 389 3046 237 2131 237 
L 1958 237 
C 1645 237 1376 269 1331 315 
C 1299 334 1286 404 1286 514 
L 1286 2106 
L 2272 2106 
C 2797 2106 2893 2020 2976 1472 
L 3123 1472 
L 3123 2957 
L 2976 2957 
C 2931 2703 2906 2610 2835 2523 
C 2752 2417 2573 2368 2272 2368 
L 1286 2368 
L 1286 3766 
C 1286 3943 1325 3981 1498 3981 
L 2362 3981 
C 3085 3981 3226 3886 3334 3314 
L 3494 3314 
L 3475 4224 
L 77 4224 
L 77 4102 
C 550 4064 634 3974 634 3525 
L 634 679 
C 634 230 544 134 77 134 
L 77 0 
L 3533 0 
L 3821 1078 
z
" transform="scale(0.015625)"/>
       <path id="NimbusRomNo9L-Regu-70" d="M 58 2516 
C 115 2522 160 2522 218 2522 
C 435 2522 480 2458 480 2155 
L 480 -855 
C 480 -1189 410 -1261 32 -1299 
L 32 -1408 
L 1581 -1408 
L 1581 -1293 
C 1101 -1293 1018 -1222 1018 -816 
L 1018 199 
C 1242 -13 1395 -77 1664 -77 
C 2419 -77 3008 643 3008 1575 
C 3008 2372 2560 2944 1939 2944 
C 1581 2944 1299 2784 1018 2438 
L 1018 2931 
L 979 2944 
C 634 2810 410 2726 58 2618 
L 58 2516 
z
M 1018 2136 
C 1018 2329 1376 2560 1670 2560 
C 2144 2560 2458 2071 2458 1324 
C 2458 611 2144 128 1683 128 
C 1382 128 1018 359 1018 552 
L 1018 2136 
z
" transform="scale(0.015625)"/>
       <path id="NimbusRomNo9L-Regu-6f" d="M 1600 2944 
C 768 2944 186 2330 186 1446 
C 186 582 781 -64 1587 -64 
C 2394 -64 3008 614 3008 1498 
C 3008 2336 2419 2944 1600 2944 
z
M 1517 2765 
C 2054 2765 2432 2150 2432 1274 
C 2432 550 2144 115 1664 115 
C 1414 115 1178 269 1043 525 
C 864 858 762 1306 762 1760 
C 762 2368 1062 2765 1517 2765 
z
" transform="scale(0.015625)"/>
       <path id="NimbusRomNo9L-Regu-63" d="M 2547 998 
C 2240 550 2010 397 1645 397 
C 1062 397 653 909 653 1645 
C 653 2304 1005 2758 1523 2758 
C 1754 2758 1837 2688 1901 2451 
L 1939 2310 
C 1990 2131 2106 2016 2240 2016 
C 2406 2016 2547 2138 2547 2285 
C 2547 2643 2099 2944 1562 2944 
C 1248 2944 922 2816 659 2586 
C 339 2304 160 1869 160 1363 
C 160 531 666 -64 1376 -64 
C 1664 -64 1920 38 2150 237 
C 2323 390 2445 563 2637 941 
L 2547 998 
z
" transform="scale(0.015625)"/>
       <path id="NimbusRomNo9L-Regu-68" d="M 1005 2222 
C 1274 2516 1466 2624 1715 2624 
C 2035 2624 2195 2395 2195 1948 
L 2195 684 
C 2195 250 2131 166 1760 128 
L 1760 32 
L 3117 32 
L 3117 128 
C 2771 192 2733 243 2733 684 
L 2733 1954 
C 2733 2625 2464 2970 1946 2970 
C 1568 2970 1299 2816 1005 2432 
L 1005 4390 
L 973 4409 
C 755 4332 595 4281 237 4179 
L 64 4128 
L 64 4026 
C 90 4032 109 4032 141 4032 
C 416 4032 467 3980 467 3705 
L 467 686 
C 467 237 429 179 58 128 
L 58 32 
L 1440 32 
L 1440 128 
C 1069 166 1005 243 1005 684 
L 1005 2222 
z
" transform="scale(0.015625)"/>
      </defs>
      <use xlink:href="#NimbusRomNo9L-Regu-54" transform="scale(0.996264)"/>
      <use xlink:href="#NimbusRomNo9L-Regu-72" transform="translate(57.384904 0) scale(0.996264)"/>
      <use xlink:href="#NimbusRomNo9L-Regu-61" transform="translate(90.560134 0) scale(0.996264)"/>
      <use xlink:href="#NimbusRomNo9L-Regu-69" transform="translate(134.793703 0) scale(0.996264)"/>
      <use xlink:href="#NimbusRomNo9L-Regu-6e" transform="translate(162.488872 0) scale(0.996264)"/>
      <use xlink:href="#NimbusRomNo9L-Regu-69" transform="translate(212.302073 0) scale(0.996264)"/>
      <use xlink:href="#NimbusRomNo9L-Regu-6e" transform="translate(239.997242 0) scale(0.996264)"/>
      <use xlink:href="#NimbusRomNo9L-Regu-67" transform="translate(289.810443 0) scale(0.996264)"/>
      <use xlink:href="#NimbusRomNo9L-Regu-45" transform="translate(364.530244 0) scale(0.996264)"/>
      <use xlink:href="#NimbusRomNo9L-Regu-70" transform="translate(425.401874 0) scale(0.996264)"/>
      <use xlink:href="#NimbusRomNo9L-Regu-6f" transform="translate(475.215075 0) scale(0.996264)"/>
      <use xlink:href="#NimbusRomNo9L-Regu-63" transform="translate(525.028275 0) scale(0.996264)"/>
      <use xlink:href="#NimbusRomNo9L-Regu-68" transform="translate(569.261844 0) scale(0.996264)"/>
     </g>
    </g>
   </g>
   <g id="matplotlib.axis_2">
    <g id="ytick_1">
     <g id="line2d_11">
      <path d="M 44.814916 98.037469 
L 204.48 98.037469 
" clip-path="url(#pf3b1e2122d)" style="fill: none; stroke-dasharray: 1.85,0.8; stroke-dashoffset: 0; stroke: #b0b0b0; stroke-opacity: 0.3; stroke-width: 0.5"/>
     </g>
     <g id="line2d_12">
      <defs>
       <path id="me9dfe1df63" d="M 0 0 
L -3.5 0 
" style="stroke: #000000; stroke-width: 0.8"/>
      </defs>
      <g>
       <use xlink:href="#me9dfe1df63" x="44.814916" y="98.037469" style="stroke: #000000; stroke-width: 0.8"/>
      </g>
     </g>
     <g id="text_7">
      <!-- $\mathdefault{0.75}$ -->
      <g transform="translate(20.111406 101.414758) scale(0.1 -0.1)">
       <defs>
        <path id="CMMI10-3a" d="M 1229 338 
C 1229 522 1075 675 890 675 
C 704 675 550 522 550 338 
C 550 153 704 0 890 0 
C 1075 0 1229 153 1229 338 
z
" transform="scale(0.015625)"/>
        <path id="NimbusRomNo9L-Regu-37" d="M 2874 4250 
L 506 4250 
L 128 3310 
L 237 3258 
C 512 3693 627 3776 979 3776 
L 2368 3776 
L 1101 -32 
L 1517 -32 
L 2874 4148 
L 2874 4250 
z
" transform="scale(0.015625)"/>
        <path id="NimbusRomNo9L-Regu-35" d="M 1158 3776 
L 2413 3776 
C 2515 3776 2541 3789 2560 3834 
L 2803 4403 
L 2746 4448 
C 2650 4314 2586 4282 2451 4282 
L 1114 4282 
L 416 2759 
C 410 2746 410 2740 410 2727 
C 410 2695 435 2676 486 2676 
C 691 2676 947 2631 1210 2547 
C 1946 2309 2285 1910 2285 1274 
C 2285 656 1894 173 1395 173 
C 1267 173 1158 218 966 360 
C 762 508 614 572 480 572 
C 294 572 205 495 205 334 
C 205 90 506 -64 986 -64 
C 1523 -64 1984 110 2304 438 
C 2598 728 2733 1094 2733 1583 
C 2733 2046 2611 2342 2291 2663 
C 2010 2947 1645 3094 890 3229 
L 1158 3776 
z
" transform="scale(0.015625)"/>
       </defs>
       <use xlink:href="#NimbusRomNo9L-Regu-30" transform="scale(0.996264)"/>
       <use xlink:href="#CMMI10-3a" transform="translate(49.8132 0) scale(0.996264)"/>
       <use xlink:href="#NimbusRomNo9L-Regu-37" transform="translate(77.408707 0) scale(0.996264)"/>
       <use xlink:href="#NimbusRomNo9L-Regu-35" transform="translate(127.221908 0) scale(0.996264)"/>
      </g>
     </g>
    </g>
    <g id="ytick_2">
     <g id="line2d_13">
      <path d="M 44.814916 70.242046 
L 204.48 70.242046 
" clip-path="url(#pf3b1e2122d)" style="fill: none; stroke-dasharray: 1.85,0.8; stroke-dashoffset: 0; stroke: #b0b0b0; stroke-opacity: 0.3; stroke-width: 0.5"/>
     </g>
     <g id="line2d_14">
      <g>
       <use xlink:href="#me9dfe1df63" x="44.814916" y="70.242046" style="stroke: #000000; stroke-width: 0.8"/>
      </g>
     </g>
     <g id="text_8">
      <!-- $\mathdefault{0.80}$ -->
      <g transform="translate(20.111406 73.619335) scale(0.1 -0.1)">
       <defs>
        <path id="NimbusRomNo9L-Regu-38" d="M 1856 2400 
C 2490 2740 2714 3008 2714 3444 
C 2714 3968 2253 4352 1613 4352 
C 915 4352 397 3924 397 3341 
C 397 2925 518 2740 1190 2151 
C 499 1626 358 1428 358 992 
C 358 372 864 -64 1587 -64 
C 2355 -64 2848 359 2848 1018 
C 2848 1511 2630 1824 1856 2400 
z
M 1741 1741 
C 2208 1408 2362 1178 2362 820 
C 2362 404 2074 116 1658 116 
C 1171 116 845 487 845 1044 
C 845 1453 986 1722 1357 2023 
L 1741 1741 
z
M 1670 2516 
C 1101 2887 870 3181 870 3540 
C 870 3911 1158 4173 1562 4173 
C 1997 4173 2272 3892 2272 3450 
C 2272 3085 2093 2797 1728 2554 
C 1696 2535 1696 2535 1670 2516 
z
" transform="scale(0.015625)"/>
       </defs>
       <use xlink:href="#NimbusRomNo9L-Regu-30" transform="scale(0.996264)"/>
       <use xlink:href="#CMMI10-3a" transform="translate(49.8132 0) scale(0.996264)"/>
       <use xlink:href="#NimbusRomNo9L-Regu-38" transform="translate(77.408707 0) scale(0.996264)"/>
       <use xlink:href="#NimbusRomNo9L-Regu-30" transform="translate(127.221908 0) scale(0.996264)"/>
      </g>
     </g>
    </g>
    <g id="ytick_3">
     <g id="line2d_15">
      <path d="M 44.814916 42.446623 
L 204.48 42.446623 
" clip-path="url(#pf3b1e2122d)" style="fill: none; stroke-dasharray: 1.85,0.8; stroke-dashoffset: 0; stroke: #b0b0b0; stroke-opacity: 0.3; stroke-width: 0.5"/>
     </g>
     <g id="line2d_16">
      <g>
       <use xlink:href="#me9dfe1df63" x="44.814916" y="42.446623" style="stroke: #000000; stroke-width: 0.8"/>
      </g>
     </g>
     <g id="text_9">
      <!-- $\mathdefault{0.85}$ -->
      <g transform="translate(20.111406 45.823912) scale(0.1 -0.1)">
       <use xlink:href="#NimbusRomNo9L-Regu-30" transform="scale(0.996264)"/>
       <use xlink:href="#CMMI10-3a" transform="translate(49.8132 0) scale(0.996264)"/>
       <use xlink:href="#NimbusRomNo9L-Regu-38" transform="translate(77.408707 0) scale(0.996264)"/>
       <use xlink:href="#NimbusRomNo9L-Regu-35" transform="translate(127.221908 0) scale(0.996264)"/>
      </g>
     </g>
    </g>
    <g id="ytick_4">
     <g id="line2d_17">
      <path d="M 44.814916 14.6512 
L 204.48 14.6512 
" clip-path="url(#pf3b1e2122d)" style="fill: none; stroke-dasharray: 1.85,0.8; stroke-dashoffset: 0; stroke: #b0b0b0; stroke-opacity: 0.3; stroke-width: 0.5"/>
     </g>
     <g id="line2d_18">
      <g>
       <use xlink:href="#me9dfe1df63" x="44.814916" y="14.6512" style="stroke: #000000; stroke-width: 0.8"/>
      </g>
     </g>
     <g id="text_10">
      <!-- $\mathdefault{0.90}$ -->
      <g transform="translate(20.111406 18.028489) scale(0.1 -0.1)">
       <defs>
        <path id="NimbusRomNo9L-Regu-39" d="M 378 -123 
C 1094 -40 1446 82 1882 396 
C 2547 882 2938 1676 2938 2539 
C 2938 3593 2349 4339 1523 4339 
C 762 4339 192 3694 192 2832 
C 192 2053 653 1536 1344 1536 
C 1696 1536 1965 1638 2304 1900 
C 2042 856 1331 172 358 5 
L 378 -123 
z
M 2317 2290 
C 2317 2162 2291 2104 2221 2047 
C 2042 1894 1805 1811 1574 1811 
C 1088 1811 781 2290 781 3050 
C 781 3413 883 3796 1018 3963 
C 1126 4090 1286 4160 1472 4160 
C 2029 4160 2317 3611 2317 2539 
L 2317 2290 
z
" transform="scale(0.015625)"/>
       </defs>
       <use xlink:href="#NimbusRomNo9L-Regu-30" transform="scale(0.996264)"/>
       <use xlink:href="#CMMI10-3a" transform="translate(49.8132 0) scale(0.996264)"/>
       <use xlink:href="#NimbusRomNo9L-Regu-39" transform="translate(77.408707 0) scale(0.996264)"/>
       <use xlink:href="#NimbusRomNo9L-Regu-30" transform="translate(127.221908 0) scale(0.996264)"/>
      </g>
     </g>
    </g>
    <g id="text_11">
     <!-- Reward -->
     <g transform="translate(13.954578 68.003415) rotate(-90) scale(0.1 -0.1)">
      <defs>
       <path id="NimbusRomNo9L-Regu-52" d="M 4218 121 
C 3974 140 3846 205 3661 424 
L 2342 2061 
C 2771 2143 2963 2219 3174 2388 
C 3379 2553 3501 2818 3501 3113 
C 3501 3385 3418 3618 3251 3801 
C 3008 4059 2477 4224 1875 4224 
L 109 4224 
L 109 4102 
C 589 4051 653 3981 653 3528 
L 653 765 
C 653 236 589 159 109 121 
L 109 0 
L 1882 0 
L 1882 134 
C 1389 134 1306 219 1306 692 
L 1306 1984 
L 1664 1984 
L 3187 0 
L 4218 0 
L 4218 121 
z
M 1306 3762 
C 1306 3937 1376 3987 1632 3987 
C 2432 3987 2803 3716 2803 3123 
C 2803 2807 2669 2542 2438 2423 
C 2144 2258 1920 2221 1306 2221 
L 1306 3762 
z
" transform="scale(0.015625)"/>
       <path id="NimbusRomNo9L-Regu-65" d="M 2611 1053 
C 2304 564 2029 378 1619 378 
C 1254 378 979 564 794 930 
C 678 1174 634 1386 621 1779 
L 2592 1779 
C 2541 2193 2477 2377 2317 2581 
C 2125 2811 1830 2944 1498 2944 
C 1178 2944 877 2829 634 2611 
C 333 2349 160 1894 160 1370 
C 160 486 621 -64 1357 -64 
C 1965 -64 2445 315 2714 1008 
L 2611 1053 
z
M 634 1984 
C 704 2479 922 2714 1312 2714 
C 1702 2714 1856 2535 1939 1984 
L 634 1984 
z
" transform="scale(0.015625)"/>
       <path id="NimbusRomNo9L-Regu-77" d="M 3654 2912 
L 3654 2816 
C 3872 2771 3936 2726 3936 2618 
C 3936 2521 3898 2367 3827 2194 
L 3251 770 
L 2714 2207 
C 2605 2501 2605 2501 2605 2586 
C 2605 2726 2675 2771 2976 2816 
L 2976 2912 
L 1677 2912 
L 1677 2816 
C 1914 2790 1990 2720 2118 2373 
C 2163 2252 2208 2129 2246 2014 
L 1664 738 
L 1030 2412 
C 1005 2476 992 2540 992 2605 
C 992 2739 1069 2790 1286 2816 
L 1286 2912 
L 134 2912 
L 134 2816 
C 282 2803 333 2739 474 2412 
L 1338 219 
C 1414 26 1466 -64 1504 -64 
C 1536 -64 1587 20 1664 186 
L 2381 1725 
L 2963 212 
C 3053 -25 3078 -64 3117 -64 
C 3162 -64 3194 -6 3296 251 
L 4179 2469 
C 4294 2739 4314 2771 4442 2816 
L 4442 2912 
L 3654 2912 
z
" transform="scale(0.015625)"/>
       <path id="NimbusRomNo9L-Regu-64" d="M 2202 -64 
L 3142 269 
L 3142 365 
C 3027 365 3014 365 2995 365 
C 2765 365 2714 435 2714 731 
L 2714 4364 
L 2682 4377 
C 2374 4268 2150 4204 1741 4096 
L 1741 3994 
C 1792 4000 1830 4000 1882 4000 
C 2118 4000 2176 3936 2176 3672 
L 2176 2669 
C 1933 2874 1760 2944 1504 2944 
C 768 2944 173 2221 173 1312 
C 173 493 653 -64 1357 -64 
C 1715 -64 1958 64 2176 365 
L 2176 -45 
L 2202 -64 
z
M 2176 653 
C 2176 608 2131 531 2067 461 
C 1952 333 1792 269 1606 269 
C 1075 269 723 781 723 1568 
C 723 2291 1037 2765 1523 2765 
C 1862 2765 2176 2464 2176 2125 
L 2176 653 
z
" transform="scale(0.015625)"/>
      </defs>
      <use xlink:href="#NimbusRomNo9L-Regu-52" transform="scale(0.996264)"/>
      <use xlink:href="#NimbusRomNo9L-Regu-65" transform="translate(66.450031 0) scale(0.996264)"/>
      <use xlink:href="#NimbusRomNo9L-Regu-77" transform="translate(108.19297 0) scale(0.996264)"/>
      <use xlink:href="#NimbusRomNo9L-Regu-61" transform="translate(179.126858 0) scale(0.996264)"/>
      <use xlink:href="#NimbusRomNo9L-Regu-72" transform="translate(223.360427 0) scale(0.996264)"/>
      <use xlink:href="#NimbusRomNo9L-Regu-64" transform="translate(256.535657 0) scale(0.996264)"/>
     </g>
    </g>
   </g>
   <g id="line2d_19">
    <path d="M 52.07242 35.497767 
L 52.801817 36.00735 
L 53.531214 40.286738 
L 54.260612 41.119037 
L 54.990009 41.479755 
L 55.719406 45.862414 
L 56.448804 46.384165 
L 57.178201 47.271303 
L 57.894496 51.299719 
L 57.907599 51.211188 
L 58.636996 51.378333 
L 59.366393 51.150039 
L 60.095791 55.450514 
L 60.825188 54.834056 
L 61.554585 54.77967 
L 62.262145 58.918304 
L 62.283983 58.406145 
L 63.01338 58.385527 
L 63.742777 57.809206 
L 64.472175 62.325533 
L 65.201572 61.501347 
L 65.93097 61.357126 
L 66.629793 64.549797 
L 66.660367 64.189788 
L 68.119162 63.433978 
L 68.813618 67.25444 
L 68.848559 66.658919 
L 70.307354 66.775854 
L 70.997442 70.562898 
L 71.036751 70.212247 
L 72.495546 69.152445 
L 73.181267 73.0547 
L 73.224943 72.563316 
L 73.954341 71.428287 
L 74.683738 70.860516 
L 75.365091 74.467736 
L 75.413135 73.591616 
L 76.87193 71.912131 
L 77.548916 75.138229 
L 77.601328 74.371219 
L 78.330725 73.70453 
L 79.060122 72.766554 
L 79.73274 75.335548 
L 79.78952 74.311774 
L 80.518917 73.367725 
L 81.248314 72.919537 
L 81.916565 74.931093 
L 81.977712 73.980851 
L 83.436506 72.039986 
L 84.100389 74.477269 
L 84.165904 73.462077 
L 85.624699 71.392559 
L 86.284214 73.095105 
L 86.354096 72.348526 
L 87.083493 71.215644 
L 87.812891 70.418371 
L 88.542288 69.791211 
L 88.68642 70.583256 
L 89.271685 69.607004 
L 90.73048 67.752484 
L 90.870245 68.703894 
L 92.189275 67.743365 
L 92.918672 66.795512 
L 93.054069 68.497702 
L 93.64807 67.959237 
L 95.106864 65.977452 
L 95.237894 68.104755 
L 95.836262 67.014311 
L 96.565659 66.189563 
L 97.295057 65.118271 
L 97.421718 66.605605 
L 98.024454 65.622804 
L 98.753851 64.974111 
L 99.483249 64.030788 
L 99.605543 65.667974 
L 100.212646 64.601898 
L 101.671441 62.66353 
L 101.789367 64.08276 
L 102.400838 63.750585 
L 103.859633 62.51941 
L 103.973192 63.708454 
L 104.58903 62.661973 
L 105.318428 62.042888 
L 106.047825 61.013063 
L 106.157016 61.985541 
L 106.777222 61.095266 
L 107.50662 60.283383 
L 108.236017 60.151341 
L 108.340841 61.364065 
L 108.965414 60.341028 
L 109.694812 59.397709 
L 110.424209 59.019733 
L 110.524665 60.012144 
L 111.153607 59.604861 
L 112.612401 57.650351 
L 112.70849 58.749107 
L 113.341799 59.003014 
L 114.071196 58.281542 
L 114.800593 57.845238 
L 114.892314 58.803069 
L 116.988785 55.977744 
L 117.076138 56.537318 
L 117.718183 55.562549 
L 119.176978 54.033375 
L 119.259963 54.844022 
L 119.906375 53.932511 
L 121.36517 52.297957 
L 121.443787 52.616375 
L 122.823964 50.962381 
L 123.553362 50.668757 
L 123.627612 51.652027 
L 124.282759 51.258856 
L 125.012157 50.40636 
L 125.741554 49.909831 
L 126.029819 50.159479 
L 126.470951 49.734908 
L 127.200349 49.268256 
L 127.929746 48.366177 
L 128.213643 48.631262 
L 128.659143 48.221972 
L 129.388541 47.330356 
L 130.397468 46.795624 
L 130.847336 45.987759 
L 131.576733 45.373277 
L 132.581292 44.211558 
L 133.035528 43.360046 
L 133.764925 42.517049 
L 134.765117 41.618087 
L 135.22372 40.861998 
L 135.953117 40.298773 
L 136.682514 39.555878 
L 136.948941 40.048042 
L 137.411912 39.330817 
L 139.132766 37.409497 
L 139.600104 36.626006 
L 140.329501 36.498909 
L 141.058899 35.724524 
L 141.31659 35.652768 
L 141.788296 35.373263 
L 143.247091 34.984057 
L 143.500414 35.429288 
L 143.976488 34.665599 
L 145.435283 33.275711 
L 145.684239 33.599048 
L 146.894078 32.276247 
L 147.623475 31.567251 
L 147.868063 31.768696 
L 148.352872 31.041613 
L 149.08227 30.3218 
L 150.051888 29.688455 
L 150.541065 29.236965 
L 151.270462 29.021619 
L 151.999859 29.850754 
L 152.235712 30.43997 
L 152.729257 30.351571 
L 153.458654 29.916613 
L 154.188051 29.763959 
L 154.419537 30.354043 
L 155.646846 29.141679 
L 156.603361 28.394694 
L 157.835038 28.282644 
L 158.564436 27.590421 
L 158.787186 28.063263 
L 159.293833 27.373234 
L 160.02323 26.690105 
L 161.189393 26.082705 
L 161.482025 25.690435 
L 162.211422 25.093623 
L 162.94082 24.711245 
L 163.373217 25.62981 
L 163.670217 25.103092 
L 165.129012 24.918262 
L 165.557041 25.510477 
L 165.858409 25.054442 
L 166.587807 25.182038 
L 167.317204 24.520821 
L 167.740866 24.746405 
L 168.046601 24.274847 
L 168.775999 23.622702 
L 169.505396 23.39401 
L 169.92469 23.399233 
L 170.234793 22.755844 
L 170.964191 22.628472 
L 171.693588 22.687677 
L 172.108515 22.931592 
L 172.422986 22.478182 
L 173.152383 21.844004 
L 173.88178 21.679425 
L 174.292339 21.748119 
L 174.611178 22.233059 
L 175.340575 21.786634 
L 176.476164 21.713433 
L 176.79937 21.202716 
L 177.528767 20.650781 
L 178.258165 20.405483 
L 178.659988 20.625894 
L 178.987562 20.079727 
L 180.446357 18.888373 
L 180.843813 18.75335 
L 181.175754 18.225908 
L 184.093344 16.532683 
L 184.822741 16.374891 
L 185.211462 16.635609 
L 186.281536 16.688539 
L 187.010933 16.529188 
L 187.395286 17.112642 
L 187.74033 16.671097 
L 190.65792 14.937809 
L 191.387317 14.448523 
L 191.762935 14.682179 
L 192.116715 14.12596 
L 193.946759 13.067223 
L 194.304907 12.550317 
L 195.763701 11.600987 
L 196.130584 11.863117 
L 196.493099 11.33509 
L 197.004114 12.433742 
L 197.222496 12.618056 
L 197.222496 12.618056 
" clip-path="url(#pf3b1e2122d)" style="fill: none; stroke: #66c2a5; stroke-width: 2; stroke-linecap: square"/>
   </g>
   <g id="line2d_20">
    <path d="M 52.07242 63.29319 
L 52.801817 63.94175 
L 53.531214 67.827847 
L 54.260612 68.523711 
L 54.990009 68.888338 
L 55.719406 73.438055 
L 56.448804 73.614561 
L 57.178201 74.229395 
L 57.894496 77.617624 
L 57.907599 77.265914 
L 58.636996 77.589444 
L 59.366393 77.238015 
L 60.095791 80.883606 
L 60.825188 80.360259 
L 61.554585 80.421217 
L 62.262145 83.654876 
L 62.283983 82.617396 
L 63.01338 82.79476 
L 63.742777 82.182813 
L 64.472175 85.616967 
L 65.201572 84.420889 
L 65.93097 83.862169 
L 66.629793 86.273882 
L 66.660367 85.488167 
L 67.389764 85.011426 
L 68.119162 84.099358 
L 68.813618 87.24991 
L 68.848559 86.894528 
L 70.307354 86.332905 
L 70.997442 89.461121 
L 71.036751 88.226602 
L 71.766149 87.838291 
L 72.495546 87.10642 
L 73.181267 90.087924 
L 73.224943 89.819977 
L 73.954341 88.512381 
L 74.683738 88.237026 
L 75.365091 91.068247 
L 75.413135 89.887145 
L 76.142533 89.482228 
L 76.87193 88.316987 
L 77.548916 90.962105 
L 77.601328 90.569602 
L 78.330725 89.740929 
L 79.060122 89.337475 
L 79.73274 91.601783 
L 79.78952 90.345857 
L 80.518917 89.704725 
L 81.248314 89.232144 
L 81.916565 91.1269 
L 81.977712 90.431631 
L 82.707109 89.604338 
L 83.436506 89.248576 
L 84.100389 91.560098 
L 84.165904 90.443567 
L 84.895301 89.940434 
L 85.624699 89.187542 
L 86.284214 91.360698 
L 86.354096 91.219 
L 87.083493 90.314345 
L 87.812891 89.951482 
L 88.542288 89.12899 
L 88.68642 90.839475 
L 90.001083 89.460916 
L 90.73048 88.874958 
L 90.870245 90.495332 
L 91.459878 89.73689 
L 92.189275 89.634593 
L 92.918672 89.023737 
L 93.054069 91.152205 
L 93.64807 91.360035 
L 94.377467 90.314992 
L 95.106864 90.021611 
L 95.237894 92.371729 
L 95.836262 91.455547 
L 96.565659 90.919132 
L 97.295057 90.017476 
L 97.421718 91.67275 
L 98.024454 91.504768 
L 99.483249 90.506043 
L 99.605543 91.693174 
L 100.212646 90.922755 
L 100.942043 90.275853 
L 101.671441 89.86705 
L 101.789367 91.431176 
L 102.400838 91.450914 
L 103.130235 91.308313 
L 103.859633 90.680719 
L 103.973192 91.773452 
L 104.58903 91.071718 
L 105.318428 90.678119 
L 106.047825 90.056827 
L 106.157016 90.877845 
L 106.777222 90.069252 
L 107.50662 89.38456 
L 108.236017 89.934347 
L 108.340841 91.590452 
L 108.965414 90.404128 
L 109.694812 89.692924 
L 110.424209 89.150973 
L 110.524665 90.444306 
L 111.153607 90.520238 
L 111.883004 89.483593 
L 112.612401 88.712106 
L 112.70849 89.963503 
L 113.341799 90.044242 
L 114.800593 88.497363 
L 114.892314 89.982536 
L 115.529991 89.159734 
L 116.259388 87.85874 
L 116.988785 86.964524 
L 117.076138 88.835631 
L 117.718183 87.885321 
L 118.44758 87.060328 
L 119.176978 86.405725 
L 119.259963 87.819163 
L 119.906375 87.110646 
L 120.635772 86.038609 
L 121.36517 85.347897 
L 121.443787 87.003541 
L 122.094567 85.863087 
L 122.823964 85.011991 
L 123.553362 84.586337 
L 123.627612 86.712854 
L 124.282759 86.98824 
L 125.012157 85.778449 
L 125.741554 85.460945 
L 126.029819 87.300762 
L 126.470951 86.782732 
L 127.200349 86.385696 
L 127.929746 85.529374 
L 128.213643 87.553809 
L 128.659143 87.542832 
L 129.388541 86.674938 
L 130.117938 86.788563 
L 130.397468 88.522452 
L 130.847336 87.992205 
L 131.576733 88.069495 
L 132.30613 86.987869 
L 132.581292 88.627114 
L 133.764925 86.89997 
L 134.494322 86.687065 
L 134.765117 88.051363 
L 135.22372 87.108896 
L 135.953117 87.218182 
L 136.682514 86.07558 
L 136.948941 87.770273 
L 138.141309 86.267257 
L 138.870707 85.597422 
L 139.132766 87.482199 
L 139.600104 87.031843 
L 140.329501 87.026085 
L 141.058899 85.815916 
L 141.31659 87.837486 
L 141.788296 87.221437 
L 142.517693 86.982155 
L 143.247091 86.861079 
L 143.500414 89.103826 
L 143.976488 88.220322 
L 145.435283 87.19477 
L 145.684239 89.156225 
L 147.623475 86.825934 
L 147.868063 88.32782 
L 148.352872 87.591054 
L 149.08227 87.185936 
L 149.811667 86.530077 
L 150.051888 88.405528 
L 150.541065 88.247056 
L 151.270462 87.650074 
L 151.999859 87.800274 
L 152.235712 89.802 
L 152.729257 89.258957 
L 153.458654 88.929811 
L 154.188051 89.020888 
L 154.419537 90.825105 
L 155.646846 89.216129 
L 156.376243 88.586294 
L 156.603361 90.024251 
L 157.835038 89.90715 
L 158.564436 89.085102 
L 158.787186 91.444585 
L 159.293833 91.116745 
L 160.02323 90.35209 
L 160.752628 90.104664 
L 161.189393 91.944369 
L 161.482025 90.893483 
L 162.94082 89.860597 
L 163.373217 91.888045 
L 163.670217 91.439956 
L 164.399615 90.950023 
L 165.129012 90.974572 
L 165.557041 92.944555 
L 165.858409 92.092133 
L 166.587807 91.61884 
L 167.317204 90.710187 
L 167.740866 92.219557 
L 168.046601 91.513362 
L 168.775999 90.605763 
L 169.505396 90.425289 
L 169.92469 91.79853 
L 170.234793 90.679614 
L 170.964191 90.591053 
L 171.693588 90.318074 
L 172.108515 92.294622 
L 173.152383 90.493105 
L 173.88178 90.244269 
L 174.292339 92.175229 
L 174.611178 92.025386 
L 175.340575 91.992855 
L 176.069972 91.497393 
L 176.476164 93.97173 
L 176.79937 93.248013 
L 177.528767 92.392557 
L 178.258165 92.124726 
L 178.659988 94.036882 
L 178.987562 92.826093 
L 179.716959 92.136996 
L 180.446357 91.153672 
L 180.843813 92.380653 
L 181.905151 90.669844 
L 182.634549 89.701192 
L 183.027637 91.220651 
L 183.363946 90.663422 
L 184.093344 90.181254 
L 184.822741 89.495442 
L 185.211462 90.924308 
L 185.552138 90.416368 
L 186.281536 90.701045 
L 187.010933 90.612269 
L 187.395286 92.261595 
L 187.74033 91.624469 
L 188.469728 90.738922 
L 189.199125 90.047533 
L 189.579111 91.563529 
L 189.928522 91.211337 
L 190.65792 90.72369 
L 191.387317 90.055617 
L 191.762935 91.942138 
L 192.116715 91.169228 
L 193.575509 89.36926 
L 193.946759 90.243479 
L 195.034304 88.66762 
L 195.763701 88.20541 
L 196.130584 89.92513 
L 196.493099 89.241879 
L 197.004114 91.530306 
L 197.222496 91.641703 
L 197.222496 91.641703 
" clip-path="url(#pf3b1e2122d)" style="fill: none; stroke: #fc8d62; stroke-width: 2; stroke-linecap: square"/>
   </g>
   <g id="patch_3">
    <path d="M 44.814916 98.171971 
L 44.814916 7.2 
" style="fill: none; stroke: #000000; stroke-width: 0.8; stroke-linejoin: miter; stroke-linecap: square"/>
   </g>
   <g id="patch_4">
    <path d="M 44.814916 98.171971 
L 204.48 98.171971 
" style="fill: none; stroke: #000000; stroke-width: 0.8; stroke-linejoin: miter; stroke-linecap: square"/>
   </g>
   <g id="legend_1">
    <g id="line2d_21">
     <path d="M 49.412334 137.963562 
L 59.412334 137.963562 
L 69.412334 137.963562 
" style="fill: none; stroke: #66c2a5; stroke-width: 2; stroke-linecap: square"/>
    </g>
    <g id="text_12">
     <!-- GRPO -->
     <g transform="translate(77.412334 141.463562) scale(0.1 -0.1)">
      <defs>
       <path id="NimbusRomNo9L-Regu-47" d="M 4538 2304 
L 2906 2304 
L 2906 2176 
C 3181 2176 3258 2157 3334 2105 
C 3430 2047 3469 1898 3469 1621 
L 3469 574 
C 3469 367 3078 192 2618 192 
C 1574 192 934 922 934 2112 
C 934 2714 1114 3296 1395 3610 
C 1677 3924 2074 4096 2509 4096 
C 2867 4096 3181 3975 3430 3744 
C 3622 3565 3725 3392 3885 3002 
L 4032 3002 
L 3981 4352 
L 3840 4352 
C 3802 4231 3686 4141 3552 4141 
C 3488 4141 3386 4160 3270 4205 
C 2982 4301 2688 4352 2400 4352 
C 1120 4352 205 3412 205 2106 
C 205 1479 378 999 736 621 
C 1165 180 1779 -64 2483 -64 
C 3034 -64 3834 160 4090 385 
L 4090 1694 
C 4090 2073 4166 2157 4538 2189 
L 4538 2304 
z
" transform="scale(0.015625)"/>
       <path id="NimbusRomNo9L-Regu-50" d="M 1293 1875 
C 1459 1856 1568 1856 1734 1856 
C 2234 1856 2579 1919 2854 2072 
C 3238 2274 3469 2660 3469 3078 
C 3469 3344 3379 3584 3206 3768 
C 2950 4047 2394 4224 1792 4224 
L 102 4224 
L 102 4102 
C 576 4051 640 3987 640 3528 
L 640 766 
C 640 230 589 166 102 122 
L 102 0 
L 1894 0 
L 1894 128 
C 1389 128 1293 218 1293 693 
L 1293 1875 
z
M 1293 3772 
C 1293 3943 1338 3987 1510 3987 
C 2374 3987 2771 3690 2771 3040 
C 2771 2428 2394 2112 1658 2112 
C 1530 2112 1440 2119 1293 2131 
L 1293 3772 
z
" transform="scale(0.015625)"/>
       <path id="NimbusRomNo9L-Regu-4f" d="M 2310 4352 
C 1088 4352 218 3431 218 2144 
C 218 1543 422 960 768 589 
C 1139 186 1709 -64 2272 -64 
C 3533 -64 4403 832 4403 2119 
C 4403 2752 4218 3296 3866 3680 
C 3462 4122 2925 4352 2310 4352 
z
M 2310 4122 
C 2605 4122 2899 4007 3130 3802 
C 3475 3488 3674 2887 3674 2125 
C 3674 1748 3590 1306 3462 973 
C 3405 813 3296 653 3149 506 
C 2925 282 2637 167 2298 167 
C 2003 167 1715 282 1491 480 
C 1158 775 947 1421 947 2132 
C 947 2784 1126 3405 1395 3706 
C 1645 3981 1958 4122 2310 4122 
z
" transform="scale(0.015625)"/>
      </defs>
      <use xlink:href="#NimbusRomNo9L-Regu-47" transform="scale(0.996264)"/>
      <use xlink:href="#NimbusRomNo9L-Regu-52" transform="translate(71.929985 0) scale(0.996264)"/>
      <use xlink:href="#NimbusRomNo9L-Regu-50" transform="translate(138.380016 0) scale(0.996264)"/>
      <use xlink:href="#NimbusRomNo9L-Regu-4f" transform="translate(193.771693 0) scale(0.996264)"/>
     </g>
    </g>
    <g id="line2d_22">
     <path d="M 123.982495 137.963562 
L 133.982495 137.963562 
L 143.982495 137.963562 
" style="fill: none; stroke: #fc8d62; stroke-width: 2; stroke-linecap: square"/>
    </g>
    <g id="text_13">
     <!-- GRPO-Low -->
     <g transform="translate(151.982495 141.463562) scale(0.1 -0.1)">
      <defs>
       <path id="NimbusRomNo9L-Regu-2d" d="M 250 1619 
L 250 1216 
L 1824 1216 
L 1824 1619 
L 250 1619 
z
" transform="scale(0.015625)"/>
       <path id="NimbusRomNo9L-Regu-4c" d="M 3667 1114 
C 3558 870 3469 723 3373 614 
C 3149 365 2797 250 2266 250 
L 1837 250 
C 1370 250 1286 288 1286 513 
L 1286 3550 
C 1286 4007 1376 4096 1882 4096 
L 1882 4237 
L 77 4237 
L 77 4115 
C 550 4077 634 3986 634 3536 
L 634 681 
C 634 230 544 134 77 134 
L 77 0 
L 3520 0 
L 3827 1114 
L 3667 1114 
z
" transform="scale(0.015625)"/>
      </defs>
      <use xlink:href="#NimbusRomNo9L-Regu-47" transform="scale(0.996264)"/>
      <use xlink:href="#NimbusRomNo9L-Regu-52" transform="translate(71.929985 0) scale(0.996264)"/>
      <use xlink:href="#NimbusRomNo9L-Regu-50" transform="translate(138.380016 0) scale(0.996264)"/>
      <use xlink:href="#NimbusRomNo9L-Regu-4f" transform="translate(193.771693 0) scale(0.996264)"/>
      <use xlink:href="#NimbusRomNo9L-Regu-2d" transform="translate(265.701678 0) scale(0.996264)"/>
      <use xlink:href="#NimbusRomNo9L-Regu-4c" transform="translate(298.876908 0) scale(0.996264)"/>
      <use xlink:href="#NimbusRomNo9L-Regu-6f" transform="translate(359.748538 0) scale(0.996264)"/>
      <use xlink:href="#NimbusRomNo9L-Regu-77" transform="translate(407.071109 0) scale(0.996264)"/>
     </g>
    </g>
   </g>
  </g>
 </g>
 <defs>
  <clipPath id="pf3b1e2122d">
   <rect x="44.814916" y="7.2" width="159.665084" height="90.971971"/>
  </clipPath>
 </defs>
</svg>
