<?xml version="1.0" encoding="utf-8" standalone="no"?>
<!DOCTYPE svg PUBLIC "-//W3C//DTD SVG 1.1//EN"
  "http://www.w3.org/Graphics/SVG/1.1/DTD/svg11.dtd">
<svg xmlns:xlink="http://www.w3.org/1999/xlink" width="206.69868pt" height="154.820391pt" viewBox="0 0 206.69868 154.820391" xmlns="http://www.w3.org/2000/svg" version="1.1">
 <metadata>
  <rdf:RDF xmlns:dc="http://purl.org/dc/elements/1.1/" xmlns:cc="http://creativecommons.org/ns#" xmlns:rdf="http://www.w3.org/1999/02/22-rdf-syntax-ns#">
   <cc:Work>
    <dc:type rdf:resource="http://purl.org/dc/dcmitype/StillImage"/>
    <dc:date>2025-11-14T01:06:42.035732</dc:date>
    <dc:format>image/svg+xml</dc:format>
    <dc:creator>
     <cc:Agent>
      <dc:title>Matplotlib v3.10.7, https://matplotlib.org/</dc:title>
     </cc:Agent>
    </dc:creator>
   </cc:Work>
  </rdf:RDF>
 </metadata>
 <defs>
  <style type="text/css">*{stroke-linejoin: round; stroke-linecap: butt}</style>
 </defs>
 <g id="figure_1">
  <g id="patch_1">
   <path d="M 0 154.820391 
L 206.69868 154.820391 
L 206.69868 0 
L 0 0 
z
" style="fill: #ffffff"/>
  </g>
  <g id="axes_1">
   <g id="patch_2">
    <path d="M 39.833596 98.171971 
L 199.49868 98.171971 
L 199.49868 7.2 
L 39.833596 7.2 
z
" style="fill: #ffffff"/>
   </g>
   <g id="matplotlib.axis_1">
    <g id="xtick_1">
     <g id="line2d_1">
      <path d="M 46.361702 98.171971 
L 46.361702 7.2 
" clip-path="url(#p4188fa0bf7)" style="fill: none; stroke-dasharray: 1.85,0.8; stroke-dashoffset: 0; stroke: #b0b0b0; stroke-opacity: 0.3; stroke-width: 0.5"/>
     </g>
     <g id="line2d_2">
      <defs>
       <path id="m1cf05e5db0" d="M 0 0 
L 0 3.5 
" style="stroke: #000000; stroke-width: 0.8"/>
      </defs>
      <g>
       <use xlink:href="#m1cf05e5db0" x="46.361702" y="98.171971" style="stroke: #000000; stroke-width: 0.8"/>
      </g>
     </g>
     <g id="text_1">
      <!-- $\mathdefault{0}$ -->
      <g transform="translate(43.871042 111.926549) scale(0.1 -0.1)">
       <defs>
        <path id="NimbusRomNo9L-Regu-30" d="M 1626 4352 
C 1274 4352 1005 4244 768 4020 
C 397 3661 154 2925 154 2176 
C 154 1479 365 730 666 372 
C 902 90 1229 -64 1600 -64 
C 1926 -64 2202 45 2432 269 
C 2803 621 3046 1364 3046 2138 
C 3046 3450 2464 4352 1626 4352 
z
M 1606 4186 
C 2144 4186 2432 3463 2432 2125 
C 2432 788 2150 103 1600 103 
C 1050 103 768 788 768 2119 
C 768 3476 1056 4186 1606 4186 
z
" transform="scale(0.015625)"/>
       </defs>
       <use xlink:href="#NimbusRomNo9L-Regu-30" transform="scale(0.996264)"/>
      </g>
     </g>
    </g>
    <g id="xtick_2">
     <g id="line2d_3">
      <path d="M 82.831571 98.171971 
L 82.831571 7.2 
" clip-path="url(#p4188fa0bf7)" style="fill: none; stroke-dasharray: 1.85,0.8; stroke-dashoffset: 0; stroke: #b0b0b0; stroke-opacity: 0.3; stroke-width: 0.5"/>
     </g>
     <g id="line2d_4">
      <g>
       <use xlink:href="#m1cf05e5db0" x="82.831571" y="98.171971" style="stroke: #000000; stroke-width: 0.8"/>
      </g>
     </g>
     <g id="text_2">
      <!-- $\mathdefault{1}$ -->
      <g transform="translate(80.340911 111.926549) scale(0.1 -0.1)">
       <defs>
        <path id="NimbusRomNo9L-Regu-31" d="M 1862 4339 
L 710 3757 
L 710 3667 
C 787 3699 858 3725 883 3738 
C 998 3783 1107 3808 1171 3808 
C 1306 3808 1363 3711 1363 3505 
L 1363 592 
C 1363 379 1312 232 1210 173 
C 1114 116 1024 96 755 96 
L 755 0 
L 2522 0 
L 2522 96 
C 2016 96 1914 160 1914 470 
L 1914 4327 
L 1862 4339 
z
" transform="scale(0.015625)"/>
       </defs>
       <use xlink:href="#NimbusRomNo9L-Regu-31" transform="scale(0.996264)"/>
      </g>
     </g>
    </g>
    <g id="xtick_3">
     <g id="line2d_5">
      <path d="M 119.301439 98.171971 
L 119.301439 7.2 
" clip-path="url(#p4188fa0bf7)" style="fill: none; stroke-dasharray: 1.85,0.8; stroke-dashoffset: 0; stroke: #b0b0b0; stroke-opacity: 0.3; stroke-width: 0.5"/>
     </g>
     <g id="line2d_6">
      <g>
       <use xlink:href="#m1cf05e5db0" x="119.301439" y="98.171971" style="stroke: #000000; stroke-width: 0.8"/>
      </g>
     </g>
     <g id="text_3">
      <!-- $\mathdefault{2}$ -->
      <g transform="translate(116.810779 111.926549) scale(0.1 -0.1)">
       <defs>
        <path id="NimbusRomNo9L-Regu-32" d="M 3040 875 
L 2957 907 
C 2720 544 2637 486 2349 486 
L 819 486 
L 1894 1609 
C 2464 2202 2714 2687 2714 3185 
C 2714 3823 2195 4313 1530 4313 
C 1178 4313 845 4173 608 3918 
C 403 3700 307 3496 198 3043 
L 333 3011 
C 589 3636 819 3840 1261 3840 
C 1798 3840 2163 3476 2163 2940 
C 2163 2443 1869 1850 1331 1282 
L 192 77 
L 192 0 
L 2688 0 
L 3040 875 
z
" transform="scale(0.015625)"/>
       </defs>
       <use xlink:href="#NimbusRomNo9L-Regu-32" transform="scale(0.996264)"/>
      </g>
     </g>
    </g>
    <g id="xtick_4">
     <g id="line2d_7">
      <path d="M 155.771308 98.171971 
L 155.771308 7.2 
" clip-path="url(#p4188fa0bf7)" style="fill: none; stroke-dasharray: 1.85,0.8; stroke-dashoffset: 0; stroke: #b0b0b0; stroke-opacity: 0.3; stroke-width: 0.5"/>
     </g>
     <g id="line2d_8">
      <g>
       <use xlink:href="#m1cf05e5db0" x="155.771308" y="98.171971" style="stroke: #000000; stroke-width: 0.8"/>
      </g>
     </g>
     <g id="text_4">
      <!-- $\mathdefault{3}$ -->
      <g transform="translate(153.280648 111.926549) scale(0.1 -0.1)">
       <defs>
        <path id="NimbusRomNo9L-Regu-33" d="M 979 2138 
C 1357 2138 1504 2125 1658 2068 
C 2054 1927 2304 1562 2304 1120 
C 2304 583 1939 167 1466 167 
C 1293 167 1165 212 928 365 
C 736 480 627 525 518 525 
C 371 525 275 436 275 301 
C 275 77 550 -64 998 -64 
C 1491 -64 1997 103 2298 365 
C 2598 628 2765 999 2765 1428 
C 2765 1754 2662 2055 2477 2253 
C 2349 2394 2227 2471 1946 2592 
C 2387 2893 2547 3130 2547 3476 
C 2547 3994 2138 4352 1549 4352 
C 1229 4352 947 4244 717 4039 
C 525 3866 429 3699 288 3315 
L 384 3290 
C 646 3757 934 3968 1338 3968 
C 1754 3968 2042 3687 2042 3284 
C 2042 3053 1946 2823 1786 2663 
C 1594 2471 1414 2375 979 2221 
L 979 2138 
z
" transform="scale(0.015625)"/>
       </defs>
       <use xlink:href="#NimbusRomNo9L-Regu-33" transform="scale(0.996264)"/>
      </g>
     </g>
    </g>
    <g id="xtick_5">
     <g id="line2d_9">
      <path d="M 192.241176 98.171971 
L 192.241176 7.2 
" clip-path="url(#p4188fa0bf7)" style="fill: none; stroke-dasharray: 1.85,0.8; stroke-dashoffset: 0; stroke: #b0b0b0; stroke-opacity: 0.3; stroke-width: 0.5"/>
     </g>
     <g id="line2d_10">
      <g>
       <use xlink:href="#m1cf05e5db0" x="192.241176" y="98.171971" style="stroke: #000000; stroke-width: 0.8"/>
      </g>
     </g>
     <g id="text_5">
      <!-- $\mathdefault{4}$ -->
      <g transform="translate(189.750516 111.926549) scale(0.1 -0.1)">
       <defs>
        <path id="NimbusRomNo9L-Regu-34" d="M 3021 1497 
L 2368 1497 
L 2368 4352 
L 2086 4352 
L 77 1497 
L 77 1088 
L 1875 1088 
L 1875 32 
L 2368 32 
L 2368 1088 
L 3021 1088 
L 3021 1497 
z
M 1869 1497 
L 333 1497 
L 1869 3698 
L 1869 1497 
z
" transform="scale(0.015625)"/>
       </defs>
       <use xlink:href="#NimbusRomNo9L-Regu-34" transform="scale(0.996264)"/>
      </g>
     </g>
    </g>
    <g id="text_6">
     <!-- Training Epoch -->
     <g transform="translate(88.712413 124.837955) scale(0.1 -0.1)">
      <defs>
       <path id="NimbusRomNo9L-Regu-54" d="M 1626 3968 
L 1626 751 
C 1626 204 1555 134 1024 134 
L 1024 0 
L 2893 0 
L 2893 134 
C 2368 134 2278 217 2278 687 
L 2278 3968 
L 2624 3968 
C 3354 3968 3494 3853 3642 3149 
L 3795 3149 
L 3757 4237 
L 147 4237 
L 109 3149 
L 262 3149 
C 416 3846 563 3968 1280 3968 
L 1626 3968 
z
" transform="scale(0.015625)"/>
       <path id="NimbusRomNo9L-Regu-72" d="M 45 2496 
C 134 2515 192 2522 269 2522 
C 429 2522 486 2419 486 2138 
L 486 538 
C 486 218 442 173 32 96 
L 32 0 
L 1568 0 
L 1568 102 
C 1133 102 1024 199 1024 565 
L 1024 2013 
C 1024 2219 1299 2541 1472 2541 
C 1510 2541 1568 2509 1638 2445 
C 1741 2355 1811 2317 1894 2317 
C 2048 2317 2144 2426 2144 2605 
C 2144 2816 2010 2944 1792 2944 
C 1523 2944 1338 2797 1024 2343 
L 1024 2931 
L 992 2944 
C 653 2803 422 2721 45 2599 
L 45 2496 
z
" transform="scale(0.015625)"/>
       <path id="NimbusRomNo9L-Regu-61" d="M 2829 423 
C 2720 333 2643 301 2547 301 
C 2400 301 2355 390 2355 672 
L 2355 1920 
C 2355 2253 2323 2438 2227 2592 
C 2086 2822 1811 2944 1434 2944 
C 832 2944 358 2630 358 2227 
C 358 2080 486 1952 634 1952 
C 787 1952 922 2080 922 2221 
C 922 2246 915 2278 909 2323 
C 896 2381 890 2432 890 2477 
C 890 2650 1094 2790 1350 2790 
C 1664 2790 1837 2605 1837 2259 
L 1837 1869 
C 851 1472 742 1421 467 1178 
C 326 1050 237 832 237 621 
C 237 218 518 -64 909 -64 
C 1190 -64 1453 70 1843 403 
C 1875 70 1990 -64 2253 -64 
C 2470 -64 2605 13 2829 256 
L 2829 423 
z
M 1837 783 
C 1837 584 1805 526 1670 449 
C 1517 359 1338 301 1203 301 
C 979 301 800 520 800 796 
L 800 822 
C 800 1201 1062 1433 1837 1715 
L 1837 783 
z
" transform="scale(0.015625)"/>
       <path id="NimbusRomNo9L-Regu-69" d="M 1120 2929 
L 128 2579 
L 128 2484 
L 179 2490 
C 256 2502 339 2509 397 2509 
C 550 2509 608 2406 608 2125 
L 608 640 
C 608 179 544 109 102 109 
L 102 0 
L 1619 0 
L 1619 96 
C 1197 128 1146 191 1146 650 
L 1146 2910 
L 1120 2929 
z
M 819 4352 
C 646 4352 499 4205 499 4026 
C 499 3847 640 3699 819 3699 
C 1005 3699 1152 3840 1152 4026 
C 1152 4205 1005 4352 819 4352 
z
" transform="scale(0.015625)"/>
       <path id="NimbusRomNo9L-Regu-6e" d="M 102 2579 
C 141 2598 205 2605 275 2605 
C 454 2605 512 2509 512 2195 
L 512 608 
C 512 243 442 154 115 128 
L 115 32 
L 1472 32 
L 1472 128 
C 1146 154 1050 230 1050 461 
L 1050 2259 
C 1357 2547 1498 2624 1709 2624 
C 2022 2624 2176 2426 2176 2003 
L 2176 666 
C 2176 262 2093 154 1773 128 
L 1773 32 
L 3104 32 
L 3104 128 
C 2790 160 2714 237 2714 550 
L 2714 2016 
C 2714 2618 2432 2976 1958 2976 
C 1664 2976 1466 2867 1030 2458 
L 1030 2963 
L 986 2976 
C 672 2861 454 2790 102 2688 
L 102 2579 
z
" transform="scale(0.015625)"/>
       <path id="NimbusRomNo9L-Regu-67" d="M 3008 2496 
L 3008 2746 
L 2515 2746 
C 2387 2746 2291 2763 2163 2802 
L 2022 2847 
C 1850 2903 1677 2931 1510 2931 
C 915 2931 442 2467 442 1881 
C 442 1476 614 1230 1037 1018 
C 915 906 800 799 762 768 
C 550 588 467 463 467 338 
C 467 206 544 131 806 6 
C 352 -329 179 -543 179 -781 
C 179 -1124 678 -1408 1286 -1408 
C 1766 -1408 2266 -1238 2598 -962 
C 2842 -759 2950 -548 2950 -299 
C 2950 108 2650 384 2176 384 
L 1350 384 
C 1011 384 851 443 851 548 
C 851 678 1062 908 1235 960 
C 1293 953 1338 947 1357 947 
C 1478 934 1562 928 1600 928 
C 1837 928 2093 1026 2291 1203 
C 2502 1387 2598 1617 2598 1945 
C 2598 2135 2566 2286 2477 2496 
L 3008 2496 
z
M 941 -13 
C 1152 -58 1664 -96 1978 -96 
C 2560 -96 2771 -180 2771 -414 
C 2771 -791 2285 -1043 1562 -1043 
C 998 -1043 627 -855 627 -570 
C 627 -420 672 -336 941 -13 
z
M 973 2145 
C 973 2526 1152 2752 1446 2752 
C 1645 2752 1811 2642 1914 2449 
C 2029 2223 2106 1927 2106 1675 
C 2106 1314 1920 1088 1626 1088 
C 1242 1088 973 1507 973 2126 
L 973 2145 
z
" transform="scale(0.015625)"/>
       <path id="NimbusRomNo9L-Regu-45" d="M 3821 1078 
L 3642 1078 
C 3322 389 3046 237 2131 237 
L 1958 237 
C 1645 237 1376 269 1331 315 
C 1299 334 1286 404 1286 514 
L 1286 2106 
L 2272 2106 
C 2797 2106 2893 2020 2976 1472 
L 3123 1472 
L 3123 2957 
L 2976 2957 
C 2931 2703 2906 2610 2835 2523 
C 2752 2417 2573 2368 2272 2368 
L 1286 2368 
L 1286 3766 
C 1286 3943 1325 3981 1498 3981 
L 2362 3981 
C 3085 3981 3226 3886 3334 3314 
L 3494 3314 
L 3475 4224 
L 77 4224 
L 77 4102 
C 550 4064 634 3974 634 3525 
L 634 679 
C 634 230 544 134 77 134 
L 77 0 
L 3533 0 
L 3821 1078 
z
" transform="scale(0.015625)"/>
       <path id="NimbusRomNo9L-Regu-70" d="M 58 2516 
C 115 2522 160 2522 218 2522 
C 435 2522 480 2458 480 2155 
L 480 -855 
C 480 -1189 410 -1261 32 -1299 
L 32 -1408 
L 1581 -1408 
L 1581 -1293 
C 1101 -1293 1018 -1222 1018 -816 
L 1018 199 
C 1242 -13 1395 -77 1664 -77 
C 2419 -77 3008 643 3008 1575 
C 3008 2372 2560 2944 1939 2944 
C 1581 2944 1299 2784 1018 2438 
L 1018 2931 
L 979 2944 
C 634 2810 410 2726 58 2618 
L 58 2516 
z
M 1018 2136 
C 1018 2329 1376 2560 1670 2560 
C 2144 2560 2458 2071 2458 1324 
C 2458 611 2144 128 1683 128 
C 1382 128 1018 359 1018 552 
L 1018 2136 
z
" transform="scale(0.015625)"/>
       <path id="NimbusRomNo9L-Regu-6f" d="M 1600 2944 
C 768 2944 186 2330 186 1446 
C 186 582 781 -64 1587 -64 
C 2394 -64 3008 614 3008 1498 
C 3008 2336 2419 2944 1600 2944 
z
M 1517 2765 
C 2054 2765 2432 2150 2432 1274 
C 2432 550 2144 115 1664 115 
C 1414 115 1178 269 1043 525 
C 864 858 762 1306 762 1760 
C 762 2368 1062 2765 1517 2765 
z
" transform="scale(0.015625)"/>
       <path id="NimbusRomNo9L-Regu-63" d="M 2547 998 
C 2240 550 2010 397 1645 397 
C 1062 397 653 909 653 1645 
C 653 2304 1005 2758 1523 2758 
C 1754 2758 1837 2688 1901 2451 
L 1939 2310 
C 1990 2131 2106 2016 2240 2016 
C 2406 2016 2547 2138 2547 2285 
C 2547 2643 2099 2944 1562 2944 
C 1248 2944 922 2816 659 2586 
C 339 2304 160 1869 160 1363 
C 160 531 666 -64 1376 -64 
C 1664 -64 1920 38 2150 237 
C 2323 390 2445 563 2637 941 
L 2547 998 
z
" transform="scale(0.015625)"/>
       <path id="NimbusRomNo9L-Regu-68" d="M 1005 2222 
C 1274 2516 1466 2624 1715 2624 
C 2035 2624 2195 2395 2195 1948 
L 2195 684 
C 2195 250 2131 166 1760 128 
L 1760 32 
L 3117 32 
L 3117 128 
C 2771 192 2733 243 2733 684 
L 2733 1954 
C 2733 2625 2464 2970 1946 2970 
C 1568 2970 1299 2816 1005 2432 
L 1005 4390 
L 973 4409 
C 755 4332 595 4281 237 4179 
L 64 4128 
L 64 4026 
C 90 4032 109 4032 141 4032 
C 416 4032 467 3980 467 3705 
L 467 686 
C 467 237 429 179 58 128 
L 58 32 
L 1440 32 
L 1440 128 
C 1069 166 1005 243 1005 684 
L 1005 2222 
z
" transform="scale(0.015625)"/>
      </defs>
      <use xlink:href="#NimbusRomNo9L-Regu-54" transform="scale(0.996264)"/>
      <use xlink:href="#NimbusRomNo9L-Regu-72" transform="translate(57.384904 0) scale(0.996264)"/>
      <use xlink:href="#NimbusRomNo9L-Regu-61" transform="translate(90.560134 0) scale(0.996264)"/>
      <use xlink:href="#NimbusRomNo9L-Regu-69" transform="translate(134.793703 0) scale(0.996264)"/>
      <use xlink:href="#NimbusRomNo9L-Regu-6e" transform="translate(162.488872 0) scale(0.996264)"/>
      <use xlink:href="#NimbusRomNo9L-Regu-69" transform="translate(212.302073 0) scale(0.996264)"/>
      <use xlink:href="#NimbusRomNo9L-Regu-6e" transform="translate(239.997242 0) scale(0.996264)"/>
      <use xlink:href="#NimbusRomNo9L-Regu-67" transform="translate(289.810443 0) scale(0.996264)"/>
      <use xlink:href="#NimbusRomNo9L-Regu-45" transform="translate(364.530244 0) scale(0.996264)"/>
      <use xlink:href="#NimbusRomNo9L-Regu-70" transform="translate(425.401874 0) scale(0.996264)"/>
      <use xlink:href="#NimbusRomNo9L-Regu-6f" transform="translate(475.215075 0) scale(0.996264)"/>
      <use xlink:href="#NimbusRomNo9L-Regu-63" transform="translate(525.028275 0) scale(0.996264)"/>
      <use xlink:href="#NimbusRomNo9L-Regu-68" transform="translate(569.261844 0) scale(0.996264)"/>
     </g>
    </g>
   </g>
   <g id="matplotlib.axis_2">
    <g id="ytick_1">
     <g id="line2d_11">
      <path d="M 39.833596 77.315045 
L 199.49868 77.315045 
" clip-path="url(#p4188fa0bf7)" style="fill: none; stroke-dasharray: 1.85,0.8; stroke-dashoffset: 0; stroke: #b0b0b0; stroke-opacity: 0.3; stroke-width: 0.5"/>
     </g>
     <g id="line2d_12">
      <defs>
       <path id="m3e11a0ee99" d="M 0 0 
L -3.5 0 
" style="stroke: #000000; stroke-width: 0.8"/>
      </defs>
      <g>
       <use xlink:href="#m3e11a0ee99" x="39.833596" y="77.315045" style="stroke: #000000; stroke-width: 0.8"/>
      </g>
     </g>
     <g id="text_7">
      <!-- $\mathdefault{0.7}$ -->
      <g transform="translate(20.111406 80.692334) scale(0.1 -0.1)">
       <defs>
        <path id="CMMI10-3a" d="M 1229 338 
C 1229 522 1075 675 890 675 
C 704 675 550 522 550 338 
C 550 153 704 0 890 0 
C 1075 0 1229 153 1229 338 
z
" transform="scale(0.015625)"/>
        <path id="NimbusRomNo9L-Regu-37" d="M 2874 4250 
L 506 4250 
L 128 3310 
L 237 3258 
C 512 3693 627 3776 979 3776 
L 2368 3776 
L 1101 -32 
L 1517 -32 
L 2874 4148 
L 2874 4250 
z
" transform="scale(0.015625)"/>
       </defs>
       <use xlink:href="#NimbusRomNo9L-Regu-30" transform="scale(0.996264)"/>
       <use xlink:href="#CMMI10-3a" transform="translate(49.8132 0) scale(0.996264)"/>
       <use xlink:href="#NimbusRomNo9L-Regu-37" transform="translate(77.408707 0) scale(0.996264)"/>
      </g>
     </g>
    </g>
    <g id="ytick_2">
     <g id="line2d_13">
      <path d="M 39.833596 40.986832 
L 199.49868 40.986832 
" clip-path="url(#p4188fa0bf7)" style="fill: none; stroke-dasharray: 1.85,0.8; stroke-dashoffset: 0; stroke: #b0b0b0; stroke-opacity: 0.3; stroke-width: 0.5"/>
     </g>
     <g id="line2d_14">
      <g>
       <use xlink:href="#m3e11a0ee99" x="39.833596" y="40.986832" style="stroke: #000000; stroke-width: 0.8"/>
      </g>
     </g>
     <g id="text_8">
      <!-- $\mathdefault{0.8}$ -->
      <g transform="translate(20.111406 44.364121) scale(0.1 -0.1)">
       <defs>
        <path id="NimbusRomNo9L-Regu-38" d="M 1856 2400 
C 2490 2740 2714 3008 2714 3444 
C 2714 3968 2253 4352 1613 4352 
C 915 4352 397 3924 397 3341 
C 397 2925 518 2740 1190 2151 
C 499 1626 358 1428 358 992 
C 358 372 864 -64 1587 -64 
C 2355 -64 2848 359 2848 1018 
C 2848 1511 2630 1824 1856 2400 
z
M 1741 1741 
C 2208 1408 2362 1178 2362 820 
C 2362 404 2074 116 1658 116 
C 1171 116 845 487 845 1044 
C 845 1453 986 1722 1357 2023 
L 1741 1741 
z
M 1670 2516 
C 1101 2887 870 3181 870 3540 
C 870 3911 1158 4173 1562 4173 
C 1997 4173 2272 3892 2272 3450 
C 2272 3085 2093 2797 1728 2554 
C 1696 2535 1696 2535 1670 2516 
z
" transform="scale(0.015625)"/>
       </defs>
       <use xlink:href="#NimbusRomNo9L-Regu-30" transform="scale(0.996264)"/>
       <use xlink:href="#CMMI10-3a" transform="translate(49.8132 0) scale(0.996264)"/>
       <use xlink:href="#NimbusRomNo9L-Regu-38" transform="translate(77.408707 0) scale(0.996264)"/>
      </g>
     </g>
    </g>
    <g id="text_9">
     <!-- Reward -->
     <g transform="translate(13.954578 68.003415) rotate(-90) scale(0.1 -0.1)">
      <defs>
       <path id="NimbusRomNo9L-Regu-52" d="M 4218 121 
C 3974 140 3846 205 3661 424 
L 2342 2061 
C 2771 2143 2963 2219 3174 2388 
C 3379 2553 3501 2818 3501 3113 
C 3501 3385 3418 3618 3251 3801 
C 3008 4059 2477 4224 1875 4224 
L 109 4224 
L 109 4102 
C 589 4051 653 3981 653 3528 
L 653 765 
C 653 236 589 159 109 121 
L 109 0 
L 1882 0 
L 1882 134 
C 1389 134 1306 219 1306 692 
L 1306 1984 
L 1664 1984 
L 3187 0 
L 4218 0 
L 4218 121 
z
M 1306 3762 
C 1306 3937 1376 3987 1632 3987 
C 2432 3987 2803 3716 2803 3123 
C 2803 2807 2669 2542 2438 2423 
C 2144 2258 1920 2221 1306 2221 
L 1306 3762 
z
" transform="scale(0.015625)"/>
       <path id="NimbusRomNo9L-Regu-65" d="M 2611 1053 
C 2304 564 2029 378 1619 378 
C 1254 378 979 564 794 930 
C 678 1174 634 1386 621 1779 
L 2592 1779 
C 2541 2193 2477 2377 2317 2581 
C 2125 2811 1830 2944 1498 2944 
C 1178 2944 877 2829 634 2611 
C 333 2349 160 1894 160 1370 
C 160 486 621 -64 1357 -64 
C 1965 -64 2445 315 2714 1008 
L 2611 1053 
z
M 634 1984 
C 704 2479 922 2714 1312 2714 
C 1702 2714 1856 2535 1939 1984 
L 634 1984 
z
" transform="scale(0.015625)"/>
       <path id="NimbusRomNo9L-Regu-77" d="M 3654 2912 
L 3654 2816 
C 3872 2771 3936 2726 3936 2618 
C 3936 2521 3898 2367 3827 2194 
L 3251 770 
L 2714 2207 
C 2605 2501 2605 2501 2605 2586 
C 2605 2726 2675 2771 2976 2816 
L 2976 2912 
L 1677 2912 
L 1677 2816 
C 1914 2790 1990 2720 2118 2373 
C 2163 2252 2208 2129 2246 2014 
L 1664 738 
L 1030 2412 
C 1005 2476 992 2540 992 2605 
C 992 2739 1069 2790 1286 2816 
L 1286 2912 
L 134 2912 
L 134 2816 
C 282 2803 333 2739 474 2412 
L 1338 219 
C 1414 26 1466 -64 1504 -64 
C 1536 -64 1587 20 1664 186 
L 2381 1725 
L 2963 212 
C 3053 -25 3078 -64 3117 -64 
C 3162 -64 3194 -6 3296 251 
L 4179 2469 
C 4294 2739 4314 2771 4442 2816 
L 4442 2912 
L 3654 2912 
z
" transform="scale(0.015625)"/>
       <path id="NimbusRomNo9L-Regu-64" d="M 2202 -64 
L 3142 269 
L 3142 365 
C 3027 365 3014 365 2995 365 
C 2765 365 2714 435 2714 731 
L 2714 4364 
L 2682 4377 
C 2374 4268 2150 4204 1741 4096 
L 1741 3994 
C 1792 4000 1830 4000 1882 4000 
C 2118 4000 2176 3936 2176 3672 
L 2176 2669 
C 1933 2874 1760 2944 1504 2944 
C 768 2944 173 2221 173 1312 
C 173 493 653 -64 1357 -64 
C 1715 -64 1958 64 2176 365 
L 2176 -45 
L 2202 -64 
z
M 2176 653 
C 2176 608 2131 531 2067 461 
C 1952 333 1792 269 1606 269 
C 1075 269 723 781 723 1568 
C 723 2291 1037 2765 1523 2765 
C 1862 2765 2176 2464 2176 2125 
L 2176 653 
z
" transform="scale(0.015625)"/>
      </defs>
      <use xlink:href="#NimbusRomNo9L-Regu-52" transform="scale(0.996264)"/>
      <use xlink:href="#NimbusRomNo9L-Regu-65" transform="translate(66.450031 0) scale(0.996264)"/>
      <use xlink:href="#NimbusRomNo9L-Regu-77" transform="translate(108.19297 0) scale(0.996264)"/>
      <use xlink:href="#NimbusRomNo9L-Regu-61" transform="translate(179.126858 0) scale(0.996264)"/>
      <use xlink:href="#NimbusRomNo9L-Regu-72" transform="translate(223.360427 0) scale(0.996264)"/>
      <use xlink:href="#NimbusRomNo9L-Regu-64" transform="translate(256.535657 0) scale(0.996264)"/>
     </g>
    </g>
   </g>
   <g id="line2d_15">
    <path d="M 47.0911 59.150939 
L 47.820497 59.347717 
L 48.549894 61.487165 
L 49.279292 61.933042 
L 50.008689 61.950632 
L 50.738086 63.979552 
L 51.467484 64.067496 
L 52.196881 64.502707 
L 52.926278 66.704865 
L 53.655676 66.599052 
L 54.385073 66.297519 
L 55.097 68.496567 
L 55.114471 68.26688 
L 55.843868 67.630797 
L 56.573265 67.349221 
L 57.280824 69.628572 
L 57.302663 69.296744 
L 58.03206 69.134739 
L 58.761457 68.580798 
L 59.490855 70.732378 
L 60.220252 70.117051 
L 60.94965 69.886296 
L 61.648473 71.474259 
L 61.679047 71.169385 
L 63.137842 70.192755 
L 63.832298 72.231756 
L 63.867239 71.601435 
L 65.326034 71.203211 
L 66.016122 73.17156 
L 66.055431 72.713482 
L 66.784829 72.320532 
L 67.514226 71.689323 
L 68.199947 73.925273 
L 68.243623 73.459658 
L 68.973021 72.453775 
L 69.702418 71.927191 
L 70.383771 73.918575 
L 70.431815 73.225975 
L 71.89061 71.906895 
L 72.567596 73.262737 
L 72.620007 72.637243 
L 73.349405 72.139098 
L 74.078802 71.328062 
L 74.75142 72.629146 
L 74.8082 71.85862 
L 75.537597 71.0958 
L 76.266994 70.84012 
L 76.935245 71.813075 
L 76.996392 70.990163 
L 78.455186 69.654574 
L 79.119069 71.123761 
L 79.184584 70.413699 
L 80.643379 68.637901 
L 81.302894 69.663151 
L 81.372776 68.982833 
L 82.102173 68.021719 
L 82.831571 67.297267 
L 83.560968 66.852522 
L 83.7051 67.350703 
L 85.74916 65.007933 
L 85.888925 65.585106 
L 87.937352 63.833209 
L 88.072749 64.815686 
L 88.66675 64.380619 
L 89.396147 63.465527 
L 90.125544 62.741228 
L 90.256574 63.946539 
L 90.854942 63.172018 
L 91.584339 62.511201 
L 92.313736 61.614803 
L 92.440398 62.49837 
L 93.043134 61.632374 
L 93.772531 61.062636 
L 94.501929 60.210998 
L 94.624223 61.199423 
L 95.231326 60.270733 
L 95.960723 59.39674 
L 96.690121 58.713128 
L 96.808047 59.504617 
L 98.148915 58.759208 
L 98.878313 58.172792 
L 98.991872 58.848591 
L 99.60771 57.988819 
L 100.337108 57.44038 
L 101.066505 56.549281 
L 101.175696 56.999126 
L 102.5253 55.550674 
L 103.254697 55.283942 
L 103.359521 56.018902 
L 104.713492 54.394541 
L 105.442889 53.988003 
L 105.543345 54.645102 
L 106.172286 54.220921 
L 107.631081 52.707115 
L 107.727169 53.195383 
L 108.360479 53.254938 
L 109.089876 52.663018 
L 109.819273 52.228384 
L 109.910994 52.721439 
L 112.007465 50.500129 
L 112.094818 50.677458 
L 112.736863 49.853988 
L 114.195658 48.562709 
L 114.278643 48.971327 
L 114.925055 48.195191 
L 116.38385 46.816434 
L 116.462467 47.060873 
L 117.842644 45.64505 
L 118.572042 45.280596 
L 118.646292 45.873402 
L 119.301439 45.476391 
L 120.030837 44.795752 
L 120.760234 44.30356 
L 121.048499 44.633675 
L 121.489631 44.188514 
L 122.219029 43.747805 
L 122.948426 43.084451 
L 123.232323 43.396484 
L 124.407221 42.383109 
L 125.416148 41.844004 
L 125.866015 41.199689 
L 126.595413 40.667774 
L 127.599972 39.727319 
L 128.054208 39.043623 
L 128.783605 38.381901 
L 129.783797 37.847796 
L 130.2424 37.243442 
L 131.701194 36.172689 
L 131.967621 36.402471 
L 132.430592 35.797434 
L 134.618784 33.662704 
L 135.348181 33.448347 
L 136.077579 32.797167 
L 136.33527 32.788243 
L 137.536373 32.288405 
L 138.265771 32.163475 
L 138.519094 32.52417 
L 138.995168 31.973053 
L 139.724565 31.503131 
L 140.453963 30.871404 
L 140.702919 31.093652 
L 141.912758 29.979532 
L 142.642155 29.393314 
L 142.886743 29.478976 
L 143.371552 28.9129 
L 144.10095 28.322212 
L 145.070568 27.641209 
L 145.559744 27.229742 
L 146.289142 27.00403 
L 147.018539 27.46173 
L 147.254392 27.899716 
L 149.206731 27.104085 
L 149.438217 27.485101 
L 150.665526 26.472762 
L 151.394923 26.012432 
L 152.124321 25.933518 
L 152.853718 25.781316 
L 153.583116 25.343037 
L 153.805866 25.71139 
L 154.312513 25.167854 
L 155.04191 24.599479 
L 156.208073 24.128637 
L 156.500705 23.706886 
L 157.9595 22.846476 
L 158.391897 23.421436 
L 158.688897 22.991619 
L 160.147692 22.641929 
L 160.575721 23.007019 
L 160.877089 22.596484 
L 161.606487 22.568473 
L 162.335884 22.026092 
L 162.759546 22.185426 
L 163.065281 21.798244 
L 163.794679 21.263565 
L 164.524076 21.036969 
L 164.94337 21.145647 
L 165.253473 20.617494 
L 166.712268 20.390733 
L 167.127195 20.596694 
L 167.441666 20.210262 
L 168.171063 19.736874 
L 168.90046 19.525544 
L 169.629858 19.922653 
L 170.359255 19.527825 
L 171.088652 19.469953 
L 171.494844 19.594302 
L 171.81805 19.172483 
L 172.547447 18.754883 
L 173.276845 18.507963 
L 173.678668 18.702478 
L 174.006242 18.380399 
L 175.465037 17.459785 
L 175.862493 17.422594 
L 176.194434 16.992219 
L 177.653229 16.234855 
L 178.382626 16.06443 
L 179.112023 15.693047 
L 179.841421 15.491882 
L 180.230142 15.595464 
L 180.570818 15.531506 
L 181.300216 15.513597 
L 182.029613 15.3445 
L 182.413966 15.812838 
L 182.75901 15.428835 
L 183.488408 15.200038 
L 184.217805 14.776752 
L 184.597791 14.736118 
L 185.6766 14.143231 
L 186.405997 13.730513 
L 186.781615 14.003076 
L 187.135395 13.54635 
L 188.965439 12.671124 
L 189.323587 12.242854 
L 190.782381 11.489182 
L 191.149264 11.723611 
L 191.511779 11.33509 
L 192.022794 12.115983 
L 192.241176 12.238187 
L 192.241176 12.238187 
" clip-path="url(#p4188fa0bf7)" style="fill: none; stroke: #66c2a5; stroke-width: 2; stroke-linecap: square"/>
   </g>
   <g id="line2d_16">
    <path d="M 47.0911 81.856072 
L 47.820497 82.113397 
L 48.549894 84.283882 
L 49.279292 84.532065 
L 50.008689 84.459895 
L 50.729351 86.416772 
L 50.738086 86.325754 
L 51.467484 86.417288 
L 52.196881 86.689548 
L 52.913176 88.321393 
L 52.926278 88.075099 
L 53.655676 88.073456 
L 54.385073 87.920461 
L 55.097 89.721638 
L 55.114471 89.521888 
L 55.843868 88.900307 
L 56.573265 88.920685 
L 57.280824 90.590766 
L 57.302663 90.230957 
L 58.03206 90.359123 
L 58.761457 89.8654 
L 59.464649 91.586581 
L 59.490855 91.504412 
L 60.220252 90.863006 
L 60.94965 90.379381 
L 61.648473 91.459678 
L 61.679047 90.682488 
L 63.137842 90.099966 
L 63.832298 91.818801 
L 63.867239 91.537533 
L 64.596636 91.486128 
L 65.326034 91.283871 
L 66.016122 92.748678 
L 66.055431 91.958598 
L 66.784829 91.766753 
L 67.514226 91.349774 
L 68.199947 92.96529 
L 68.243623 92.839061 
L 68.973021 91.866436 
L 69.702418 91.509008 
L 70.383771 92.911017 
L 70.431815 92.073904 
L 71.89061 91.238004 
L 72.567596 92.430809 
L 72.620007 92.14342 
L 73.349405 91.631854 
L 74.078802 91.413002 
L 74.75142 92.604057 
L 74.8082 92.087885 
L 76.266994 91.237176 
L 76.935245 92.036433 
L 76.996392 91.647031 
L 77.725789 91.639942 
L 78.455186 91.375599 
L 79.119069 92.597302 
L 79.184584 92.081197 
L 80.643379 91.365943 
L 81.302894 92.466648 
L 81.372776 92.421089 
L 82.102173 91.861337 
L 82.831571 91.655327 
L 83.560968 91.602744 
L 83.7051 92.125885 
L 84.290365 91.917229 
L 85.019763 91.907438 
L 85.74916 91.59501 
L 85.888925 92.511783 
L 86.478557 92.223585 
L 87.207955 92.316688 
L 87.937352 92.03044 
L 88.072749 93.275868 
L 88.66675 93.494679 
L 89.396147 92.9696 
L 90.125544 92.676824 
L 90.256574 94.036882 
L 90.854942 93.597202 
L 91.584339 93.313286 
L 92.313736 92.880842 
L 92.440398 93.81503 
L 93.043134 93.5138 
L 93.772531 93.306402 
L 94.501929 92.964847 
L 94.624223 93.565187 
L 95.960723 92.487696 
L 96.690121 91.927277 
L 96.808047 92.780181 
L 98.148915 92.367073 
L 98.878313 91.792723 
L 98.991872 92.313964 
L 99.60771 91.664462 
L 100.337108 91.187959 
L 101.066505 90.322665 
L 101.175696 90.434777 
L 102.5253 88.893579 
L 103.254697 89.035119 
L 103.359521 90.007764 
L 103.984094 89.018042 
L 105.442889 87.746166 
L 105.543345 88.519786 
L 106.172286 88.377465 
L 106.901684 87.358636 
L 107.631081 86.728413 
L 107.727169 87.512211 
L 108.360479 87.274009 
L 109.819273 85.810242 
L 109.910994 86.572948 
L 112.007465 84.095666 
L 112.094818 85.178253 
L 113.46626 83.726372 
L 114.195658 83.208156 
L 114.278643 84.178524 
L 114.925055 83.64065 
L 116.38385 82.174865 
L 116.462467 83.216113 
L 117.842644 81.712912 
L 118.572042 81.305651 
L 118.646292 82.446412 
L 119.301439 82.364825 
L 120.030837 81.451532 
L 120.760234 81.107432 
L 121.048499 81.977713 
L 122.219029 81.14595 
L 122.948426 80.381076 
L 123.232323 81.349442 
L 123.677823 81.172867 
L 124.407221 80.407725 
L 125.136618 80.376798 
L 125.416148 81.37548 
L 125.866015 80.789952 
L 126.595413 80.72493 
L 127.32481 79.918856 
L 127.599972 80.710203 
L 128.783605 79.572319 
L 129.513002 79.277285 
L 129.783797 79.984227 
L 130.2424 79.276381 
L 130.971797 79.05999 
L 131.701194 78.134335 
L 131.967621 78.943527 
L 133.159989 77.523837 
L 133.889387 76.946552 
L 134.151445 77.979536 
L 134.618784 77.655019 
L 135.348181 77.454842 
L 136.077579 76.454418 
L 136.33527 77.492324 
L 136.806976 76.960764 
L 137.536373 76.873487 
L 138.265771 76.575167 
L 138.519094 78.005421 
L 138.995168 77.453594 
L 140.453963 76.546719 
L 140.702919 77.765342 
L 141.912758 76.369552 
L 142.642155 75.712989 
L 142.886743 76.637215 
L 143.371552 76.144481 
L 144.10095 75.702084 
L 144.830347 75.12788 
L 145.070568 76.179051 
L 146.289142 75.402437 
L 147.018539 75.361016 
L 147.254392 76.500676 
L 147.747937 75.963896 
L 148.477334 75.538442 
L 149.206731 75.374567 
L 149.438217 76.271903 
L 150.665526 74.951243 
L 151.394923 74.263453 
L 151.622041 75.323269 
L 152.124321 75.070725 
L 152.853718 75.017484 
L 153.583116 74.268485 
L 153.805866 75.540165 
L 155.771308 74.423687 
L 156.208073 75.512174 
L 156.500705 74.712818 
L 157.230102 74.284737 
L 157.9595 74.042579 
L 158.391897 75.134876 
L 158.688897 74.687439 
L 160.147692 74.438355 
L 160.575721 75.617515 
L 160.877089 74.862516 
L 162.335884 73.84191 
L 162.759546 74.784846 
L 163.794679 73.613207 
L 164.524076 73.271807 
L 164.94337 73.978256 
L 165.253473 73.058008 
L 166.712268 72.97743 
L 167.127195 74.050106 
L 168.171063 72.651959 
L 168.90046 72.471539 
L 169.311019 73.821735 
L 171.088652 73.294273 
L 171.494844 74.969251 
L 171.81805 74.417512 
L 172.547447 73.765333 
L 173.276845 73.498095 
L 173.678668 74.716932 
L 174.006242 74.061759 
L 175.465037 72.951281 
L 175.862493 73.812304 
L 176.194434 73.408365 
L 177.653229 72.054928 
L 178.046317 73.046008 
L 178.382626 72.634596 
L 179.841421 71.763223 
L 180.230142 72.575579 
L 180.570818 72.138597 
L 181.300216 72.235772 
L 182.029613 72.12006 
L 182.413966 73.29213 
L 182.75901 72.787436 
L 183.488408 72.091011 
L 184.217805 71.689149 
L 184.597791 72.532519 
L 184.947202 72.247336 
L 186.405997 71.263332 
L 186.781615 72.443969 
L 187.135395 71.811526 
L 188.594189 70.59552 
L 188.965439 71.025997 
L 189.323587 70.438007 
L 190.052984 69.734803 
L 190.782381 69.311093 
L 191.149264 70.208517 
L 191.511779 69.598428 
L 192.022794 70.931945 
L 192.241176 70.965503 
L 192.241176 70.965503 
" clip-path="url(#p4188fa0bf7)" style="fill: none; stroke: #fc8d62; stroke-width: 2; stroke-linecap: square"/>
   </g>
   <g id="patch_3">
    <path d="M 39.833596 98.171971 
L 39.833596 7.2 
" style="fill: none; stroke: #000000; stroke-width: 0.8; stroke-linejoin: miter; stroke-linecap: square"/>
   </g>
   <g id="patch_4">
    <path d="M 39.833596 98.171971 
L 199.49868 98.171971 
" style="fill: none; stroke: #000000; stroke-width: 0.8; stroke-linejoin: miter; stroke-linecap: square"/>
   </g>
   <g id="legend_1">
    <g id="line2d_17">
     <path d="M 44.431014 137.963562 
L 54.431014 137.963562 
L 64.431014 137.963562 
" style="fill: none; stroke: #66c2a5; stroke-width: 2; stroke-linecap: square"/>
    </g>
    <g id="text_10">
     <!-- GRPO -->
     <g transform="translate(72.431014 141.463562) scale(0.1 -0.1)">
      <defs>
       <path id="NimbusRomNo9L-Regu-47" d="M 4538 2304 
L 2906 2304 
L 2906 2176 
C 3181 2176 3258 2157 3334 2105 
C 3430 2047 3469 1898 3469 1621 
L 3469 574 
C 3469 367 3078 192 2618 192 
C 1574 192 934 922 934 2112 
C 934 2714 1114 3296 1395 3610 
C 1677 3924 2074 4096 2509 4096 
C 2867 4096 3181 3975 3430 3744 
C 3622 3565 3725 3392 3885 3002 
L 4032 3002 
L 3981 4352 
L 3840 4352 
C 3802 4231 3686 4141 3552 4141 
C 3488 4141 3386 4160 3270 4205 
C 2982 4301 2688 4352 2400 4352 
C 1120 4352 205 3412 205 2106 
C 205 1479 378 999 736 621 
C 1165 180 1779 -64 2483 -64 
C 3034 -64 3834 160 4090 385 
L 4090 1694 
C 4090 2073 4166 2157 4538 2189 
L 4538 2304 
z
" transform="scale(0.015625)"/>
       <path id="NimbusRomNo9L-Regu-50" d="M 1293 1875 
C 1459 1856 1568 1856 1734 1856 
C 2234 1856 2579 1919 2854 2072 
C 3238 2274 3469 2660 3469 3078 
C 3469 3344 3379 3584 3206 3768 
C 2950 4047 2394 4224 1792 4224 
L 102 4224 
L 102 4102 
C 576 4051 640 3987 640 3528 
L 640 766 
C 640 230 589 166 102 122 
L 102 0 
L 1894 0 
L 1894 128 
C 1389 128 1293 218 1293 693 
L 1293 1875 
z
M 1293 3772 
C 1293 3943 1338 3987 1510 3987 
C 2374 3987 2771 3690 2771 3040 
C 2771 2428 2394 2112 1658 2112 
C 1530 2112 1440 2119 1293 2131 
L 1293 3772 
z
" transform="scale(0.015625)"/>
       <path id="NimbusRomNo9L-Regu-4f" d="M 2310 4352 
C 1088 4352 218 3431 218 2144 
C 218 1543 422 960 768 589 
C 1139 186 1709 -64 2272 -64 
C 3533 -64 4403 832 4403 2119 
C 4403 2752 4218 3296 3866 3680 
C 3462 4122 2925 4352 2310 4352 
z
M 2310 4122 
C 2605 4122 2899 4007 3130 3802 
C 3475 3488 3674 2887 3674 2125 
C 3674 1748 3590 1306 3462 973 
C 3405 813 3296 653 3149 506 
C 2925 282 2637 167 2298 167 
C 2003 167 1715 282 1491 480 
C 1158 775 947 1421 947 2132 
C 947 2784 1126 3405 1395 3706 
C 1645 3981 1958 4122 2310 4122 
z
" transform="scale(0.015625)"/>
      </defs>
      <use xlink:href="#NimbusRomNo9L-Regu-47" transform="scale(0.996264)"/>
      <use xlink:href="#NimbusRomNo9L-Regu-52" transform="translate(71.929985 0) scale(0.996264)"/>
      <use xlink:href="#NimbusRomNo9L-Regu-50" transform="translate(138.380016 0) scale(0.996264)"/>
      <use xlink:href="#NimbusRomNo9L-Regu-4f" transform="translate(193.771693 0) scale(0.996264)"/>
     </g>
    </g>
    <g id="line2d_18">
     <path d="M 119.001175 137.963562 
L 129.001175 137.963562 
L 139.001175 137.963562 
" style="fill: none; stroke: #fc8d62; stroke-width: 2; stroke-linecap: square"/>
    </g>
    <g id="text_11">
     <!-- GRPO-Low -->
     <g transform="translate(147.001175 141.463562) scale(0.1 -0.1)">
      <defs>
       <path id="NimbusRomNo9L-Regu-2d" d="M 250 1619 
L 250 1216 
L 1824 1216 
L 1824 1619 
L 250 1619 
z
" transform="scale(0.015625)"/>
       <path id="NimbusRomNo9L-Regu-4c" d="M 3667 1114 
C 3558 870 3469 723 3373 614 
C 3149 365 2797 250 2266 250 
L 1837 250 
C 1370 250 1286 288 1286 513 
L 1286 3550 
C 1286 4007 1376 4096 1882 4096 
L 1882 4237 
L 77 4237 
L 77 4115 
C 550 4077 634 3986 634 3536 
L 634 681 
C 634 230 544 134 77 134 
L 77 0 
L 3520 0 
L 3827 1114 
L 3667 1114 
z
" transform="scale(0.015625)"/>
      </defs>
      <use xlink:href="#NimbusRomNo9L-Regu-47" transform="scale(0.996264)"/>
      <use xlink:href="#NimbusRomNo9L-Regu-52" transform="translate(71.929985 0) scale(0.996264)"/>
      <use xlink:href="#NimbusRomNo9L-Regu-50" transform="translate(138.380016 0) scale(0.996264)"/>
      <use xlink:href="#NimbusRomNo9L-Regu-4f" transform="translate(193.771693 0) scale(0.996264)"/>
      <use xlink:href="#NimbusRomNo9L-Regu-2d" transform="translate(265.701678 0) scale(0.996264)"/>
      <use xlink:href="#NimbusRomNo9L-Regu-4c" transform="translate(298.876908 0) scale(0.996264)"/>
      <use xlink:href="#NimbusRomNo9L-Regu-6f" transform="translate(359.748538 0) scale(0.996264)"/>
      <use xlink:href="#NimbusRomNo9L-Regu-77" transform="translate(407.071109 0) scale(0.996264)"/>
     </g>
    </g>
   </g>
  </g>
 </g>
 <defs>
  <clipPath id="p4188fa0bf7">
   <rect x="39.833596" y="7.2" width="159.665084" height="90.971971"/>
  </clipPath>
 </defs>
</svg>
