<?xml version="1.0" encoding="utf-8" standalone="no"?>
<!DOCTYPE svg PUBLIC "-//W3C//DTD SVG 1.1//EN"
  "http://www.w3.org/Graphics/SVG/1.1/DTD/svg11.dtd">
<svg xmlns:xlink="http://www.w3.org/1999/xlink" width="211.68pt" height="154.820391pt" viewBox="0 0 211.68 154.820391" xmlns="http://www.w3.org/2000/svg" version="1.1">
 <metadata>
  <rdf:RDF xmlns:dc="http://purl.org/dc/elements/1.1/" xmlns:cc="http://creativecommons.org/ns#" xmlns:rdf="http://www.w3.org/1999/02/22-rdf-syntax-ns#">
   <cc:Work>
    <dc:type rdf:resource="http://purl.org/dc/dcmitype/StillImage"/>
    <dc:date>2025-11-14T01:06:42.459897</dc:date>
    <dc:format>image/svg+xml</dc:format>
    <dc:creator>
     <cc:Agent>
      <dc:title>Matplotlib v3.10.7, https://matplotlib.org/</dc:title>
     </cc:Agent>
    </dc:creator>
   </cc:Work>
  </rdf:RDF>
 </metadata>
 <defs>
  <style type="text/css">*{stroke-linejoin: round; stroke-linecap: butt}</style>
 </defs>
 <g id="figure_1">
  <g id="patch_1">
   <path d="M 0 154.820391 
L 211.68 154.820391 
L 211.68 0 
L 0 0 
z
" style="fill: #ffffff"/>
  </g>
  <g id="axes_1">
   <g id="patch_2">
    <path d="M 44.814916 98.171971 
L 204.48 98.171971 
L 204.48 7.2 
L 44.814916 7.2 
z
" style="fill: #ffffff"/>
   </g>
   <g id="matplotlib.axis_1">
    <g id="xtick_1">
     <g id="line2d_1">
      <path d="M 51.343022 98.171971 
L 51.343022 7.2 
" clip-path="url(#p13a3d8753e)" style="fill: none; stroke-dasharray: 1.85,0.8; stroke-dashoffset: 0; stroke: #b0b0b0; stroke-opacity: 0.3; stroke-width: 0.5"/>
     </g>
     <g id="line2d_2">
      <defs>
       <path id="m39f462d8e3" d="M 0 0 
L 0 3.5 
" style="stroke: #000000; stroke-width: 0.8"/>
      </defs>
      <g>
       <use xlink:href="#m39f462d8e3" x="51.343022" y="98.171971" style="stroke: #000000; stroke-width: 0.8"/>
      </g>
     </g>
     <g id="text_1">
      <!-- $\mathdefault{0}$ -->
      <g transform="translate(48.852362 111.926549) scale(0.1 -0.1)">
       <defs>
        <path id="NimbusRomNo9L-Regu-30" d="M 1626 4352 
C 1274 4352 1005 4244 768 4020 
C 397 3661 154 2925 154 2176 
C 154 1479 365 730 666 372 
C 902 90 1229 -64 1600 -64 
C 1926 -64 2202 45 2432 269 
C 2803 621 3046 1364 3046 2138 
C 3046 3450 2464 4352 1626 4352 
z
M 1606 4186 
C 2144 4186 2432 3463 2432 2125 
C 2432 788 2150 103 1600 103 
C 1050 103 768 788 768 2119 
C 768 3476 1056 4186 1606 4186 
z
" transform="scale(0.015625)"/>
       </defs>
       <use xlink:href="#NimbusRomNo9L-Regu-30" transform="scale(0.996264)"/>
      </g>
     </g>
    </g>
    <g id="xtick_2">
     <g id="line2d_3">
      <path d="M 87.812891 98.171971 
L 87.812891 7.2 
" clip-path="url(#p13a3d8753e)" style="fill: none; stroke-dasharray: 1.85,0.8; stroke-dashoffset: 0; stroke: #b0b0b0; stroke-opacity: 0.3; stroke-width: 0.5"/>
     </g>
     <g id="line2d_4">
      <g>
       <use xlink:href="#m39f462d8e3" x="87.812891" y="98.171971" style="stroke: #000000; stroke-width: 0.8"/>
      </g>
     </g>
     <g id="text_2">
      <!-- $\mathdefault{1}$ -->
      <g transform="translate(85.322231 111.926549) scale(0.1 -0.1)">
       <defs>
        <path id="NimbusRomNo9L-Regu-31" d="M 1862 4339 
L 710 3757 
L 710 3667 
C 787 3699 858 3725 883 3738 
C 998 3783 1107 3808 1171 3808 
C 1306 3808 1363 3711 1363 3505 
L 1363 592 
C 1363 379 1312 232 1210 173 
C 1114 116 1024 96 755 96 
L 755 0 
L 2522 0 
L 2522 96 
C 2016 96 1914 160 1914 470 
L 1914 4327 
L 1862 4339 
z
" transform="scale(0.015625)"/>
       </defs>
       <use xlink:href="#NimbusRomNo9L-Regu-31" transform="scale(0.996264)"/>
      </g>
     </g>
    </g>
    <g id="xtick_3">
     <g id="line2d_5">
      <path d="M 124.282759 98.171971 
L 124.282759 7.2 
" clip-path="url(#p13a3d8753e)" style="fill: none; stroke-dasharray: 1.85,0.8; stroke-dashoffset: 0; stroke: #b0b0b0; stroke-opacity: 0.3; stroke-width: 0.5"/>
     </g>
     <g id="line2d_6">
      <g>
       <use xlink:href="#m39f462d8e3" x="124.282759" y="98.171971" style="stroke: #000000; stroke-width: 0.8"/>
      </g>
     </g>
     <g id="text_3">
      <!-- $\mathdefault{2}$ -->
      <g transform="translate(121.792099 111.926549) scale(0.1 -0.1)">
       <defs>
        <path id="NimbusRomNo9L-Regu-32" d="M 3040 875 
L 2957 907 
C 2720 544 2637 486 2349 486 
L 819 486 
L 1894 1609 
C 2464 2202 2714 2687 2714 3185 
C 2714 3823 2195 4313 1530 4313 
C 1178 4313 845 4173 608 3918 
C 403 3700 307 3496 198 3043 
L 333 3011 
C 589 3636 819 3840 1261 3840 
C 1798 3840 2163 3476 2163 2940 
C 2163 2443 1869 1850 1331 1282 
L 192 77 
L 192 0 
L 2688 0 
L 3040 875 
z
" transform="scale(0.015625)"/>
       </defs>
       <use xlink:href="#NimbusRomNo9L-Regu-32" transform="scale(0.996264)"/>
      </g>
     </g>
    </g>
    <g id="xtick_4">
     <g id="line2d_7">
      <path d="M 160.752628 98.171971 
L 160.752628 7.2 
" clip-path="url(#p13a3d8753e)" style="fill: none; stroke-dasharray: 1.85,0.8; stroke-dashoffset: 0; stroke: #b0b0b0; stroke-opacity: 0.3; stroke-width: 0.5"/>
     </g>
     <g id="line2d_8">
      <g>
       <use xlink:href="#m39f462d8e3" x="160.752628" y="98.171971" style="stroke: #000000; stroke-width: 0.8"/>
      </g>
     </g>
     <g id="text_4">
      <!-- $\mathdefault{3}$ -->
      <g transform="translate(158.261968 111.926549) scale(0.1 -0.1)">
       <defs>
        <path id="NimbusRomNo9L-Regu-33" d="M 979 2138 
C 1357 2138 1504 2125 1658 2068 
C 2054 1927 2304 1562 2304 1120 
C 2304 583 1939 167 1466 167 
C 1293 167 1165 212 928 365 
C 736 480 627 525 518 525 
C 371 525 275 436 275 301 
C 275 77 550 -64 998 -64 
C 1491 -64 1997 103 2298 365 
C 2598 628 2765 999 2765 1428 
C 2765 1754 2662 2055 2477 2253 
C 2349 2394 2227 2471 1946 2592 
C 2387 2893 2547 3130 2547 3476 
C 2547 3994 2138 4352 1549 4352 
C 1229 4352 947 4244 717 4039 
C 525 3866 429 3699 288 3315 
L 384 3290 
C 646 3757 934 3968 1338 3968 
C 1754 3968 2042 3687 2042 3284 
C 2042 3053 1946 2823 1786 2663 
C 1594 2471 1414 2375 979 2221 
L 979 2138 
z
" transform="scale(0.015625)"/>
       </defs>
       <use xlink:href="#NimbusRomNo9L-Regu-33" transform="scale(0.996264)"/>
      </g>
     </g>
    </g>
    <g id="xtick_5">
     <g id="line2d_9">
      <path d="M 197.222496 98.171971 
L 197.222496 7.2 
" clip-path="url(#p13a3d8753e)" style="fill: none; stroke-dasharray: 1.85,0.8; stroke-dashoffset: 0; stroke: #b0b0b0; stroke-opacity: 0.3; stroke-width: 0.5"/>
     </g>
     <g id="line2d_10">
      <g>
       <use xlink:href="#m39f462d8e3" x="197.222496" y="98.171971" style="stroke: #000000; stroke-width: 0.8"/>
      </g>
     </g>
     <g id="text_5">
      <!-- $\mathdefault{4}$ -->
      <g transform="translate(194.731836 111.926549) scale(0.1 -0.1)">
       <defs>
        <path id="NimbusRomNo9L-Regu-34" d="M 3021 1497 
L 2368 1497 
L 2368 4352 
L 2086 4352 
L 77 1497 
L 77 1088 
L 1875 1088 
L 1875 32 
L 2368 32 
L 2368 1088 
L 3021 1088 
L 3021 1497 
z
M 1869 1497 
L 333 1497 
L 1869 3698 
L 1869 1497 
z
" transform="scale(0.015625)"/>
       </defs>
       <use xlink:href="#NimbusRomNo9L-Regu-34" transform="scale(0.996264)"/>
      </g>
     </g>
    </g>
    <g id="text_6">
     <!-- Training Epoch -->
     <g transform="translate(93.693733 124.837955) scale(0.1 -0.1)">
      <defs>
       <path id="NimbusRomNo9L-Regu-54" d="M 1626 3968 
L 1626 751 
C 1626 204 1555 134 1024 134 
L 1024 0 
L 2893 0 
L 2893 134 
C 2368 134 2278 217 2278 687 
L 2278 3968 
L 2624 3968 
C 3354 3968 3494 3853 3642 3149 
L 3795 3149 
L 3757 4237 
L 147 4237 
L 109 3149 
L 262 3149 
C 416 3846 563 3968 1280 3968 
L 1626 3968 
z
" transform="scale(0.015625)"/>
       <path id="NimbusRomNo9L-Regu-72" d="M 45 2496 
C 134 2515 192 2522 269 2522 
C 429 2522 486 2419 486 2138 
L 486 538 
C 486 218 442 173 32 96 
L 32 0 
L 1568 0 
L 1568 102 
C 1133 102 1024 199 1024 565 
L 1024 2013 
C 1024 2219 1299 2541 1472 2541 
C 1510 2541 1568 2509 1638 2445 
C 1741 2355 1811 2317 1894 2317 
C 2048 2317 2144 2426 2144 2605 
C 2144 2816 2010 2944 1792 2944 
C 1523 2944 1338 2797 1024 2343 
L 1024 2931 
L 992 2944 
C 653 2803 422 2721 45 2599 
L 45 2496 
z
" transform="scale(0.015625)"/>
       <path id="NimbusRomNo9L-Regu-61" d="M 2829 423 
C 2720 333 2643 301 2547 301 
C 2400 301 2355 390 2355 672 
L 2355 1920 
C 2355 2253 2323 2438 2227 2592 
C 2086 2822 1811 2944 1434 2944 
C 832 2944 358 2630 358 2227 
C 358 2080 486 1952 634 1952 
C 787 1952 922 2080 922 2221 
C 922 2246 915 2278 909 2323 
C 896 2381 890 2432 890 2477 
C 890 2650 1094 2790 1350 2790 
C 1664 2790 1837 2605 1837 2259 
L 1837 1869 
C 851 1472 742 1421 467 1178 
C 326 1050 237 832 237 621 
C 237 218 518 -64 909 -64 
C 1190 -64 1453 70 1843 403 
C 1875 70 1990 -64 2253 -64 
C 2470 -64 2605 13 2829 256 
L 2829 423 
z
M 1837 783 
C 1837 584 1805 526 1670 449 
C 1517 359 1338 301 1203 301 
C 979 301 800 520 800 796 
L 800 822 
C 800 1201 1062 1433 1837 1715 
L 1837 783 
z
" transform="scale(0.015625)"/>
       <path id="NimbusRomNo9L-Regu-69" d="M 1120 2929 
L 128 2579 
L 128 2484 
L 179 2490 
C 256 2502 339 2509 397 2509 
C 550 2509 608 2406 608 2125 
L 608 640 
C 608 179 544 109 102 109 
L 102 0 
L 1619 0 
L 1619 96 
C 1197 128 1146 191 1146 650 
L 1146 2910 
L 1120 2929 
z
M 819 4352 
C 646 4352 499 4205 499 4026 
C 499 3847 640 3699 819 3699 
C 1005 3699 1152 3840 1152 4026 
C 1152 4205 1005 4352 819 4352 
z
" transform="scale(0.015625)"/>
       <path id="NimbusRomNo9L-Regu-6e" d="M 102 2579 
C 141 2598 205 2605 275 2605 
C 454 2605 512 2509 512 2195 
L 512 608 
C 512 243 442 154 115 128 
L 115 32 
L 1472 32 
L 1472 128 
C 1146 154 1050 230 1050 461 
L 1050 2259 
C 1357 2547 1498 2624 1709 2624 
C 2022 2624 2176 2426 2176 2003 
L 2176 666 
C 2176 262 2093 154 1773 128 
L 1773 32 
L 3104 32 
L 3104 128 
C 2790 160 2714 237 2714 550 
L 2714 2016 
C 2714 2618 2432 2976 1958 2976 
C 1664 2976 1466 2867 1030 2458 
L 1030 2963 
L 986 2976 
C 672 2861 454 2790 102 2688 
L 102 2579 
z
" transform="scale(0.015625)"/>
       <path id="NimbusRomNo9L-Regu-67" d="M 3008 2496 
L 3008 2746 
L 2515 2746 
C 2387 2746 2291 2763 2163 2802 
L 2022 2847 
C 1850 2903 1677 2931 1510 2931 
C 915 2931 442 2467 442 1881 
C 442 1476 614 1230 1037 1018 
C 915 906 800 799 762 768 
C 550 588 467 463 467 338 
C 467 206 544 131 806 6 
C 352 -329 179 -543 179 -781 
C 179 -1124 678 -1408 1286 -1408 
C 1766 -1408 2266 -1238 2598 -962 
C 2842 -759 2950 -548 2950 -299 
C 2950 108 2650 384 2176 384 
L 1350 384 
C 1011 384 851 443 851 548 
C 851 678 1062 908 1235 960 
C 1293 953 1338 947 1357 947 
C 1478 934 1562 928 1600 928 
C 1837 928 2093 1026 2291 1203 
C 2502 1387 2598 1617 2598 1945 
C 2598 2135 2566 2286 2477 2496 
L 3008 2496 
z
M 941 -13 
C 1152 -58 1664 -96 1978 -96 
C 2560 -96 2771 -180 2771 -414 
C 2771 -791 2285 -1043 1562 -1043 
C 998 -1043 627 -855 627 -570 
C 627 -420 672 -336 941 -13 
z
M 973 2145 
C 973 2526 1152 2752 1446 2752 
C 1645 2752 1811 2642 1914 2449 
C 2029 2223 2106 1927 2106 1675 
C 2106 1314 1920 1088 1626 1088 
C 1242 1088 973 1507 973 2126 
L 973 2145 
z
" transform="scale(0.015625)"/>
       <path id="NimbusRomNo9L-Regu-45" d="M 3821 1078 
L 3642 1078 
C 3322 389 3046 237 2131 237 
L 1958 237 
C 1645 237 1376 269 1331 315 
C 1299 334 1286 404 1286 514 
L 1286 2106 
L 2272 2106 
C 2797 2106 2893 2020 2976 1472 
L 3123 1472 
L 3123 2957 
L 2976 2957 
C 2931 2703 2906 2610 2835 2523 
C 2752 2417 2573 2368 2272 2368 
L 1286 2368 
L 1286 3766 
C 1286 3943 1325 3981 1498 3981 
L 2362 3981 
C 3085 3981 3226 3886 3334 3314 
L 3494 3314 
L 3475 4224 
L 77 4224 
L 77 4102 
C 550 4064 634 3974 634 3525 
L 634 679 
C 634 230 544 134 77 134 
L 77 0 
L 3533 0 
L 3821 1078 
z
" transform="scale(0.015625)"/>
       <path id="NimbusRomNo9L-Regu-70" d="M 58 2516 
C 115 2522 160 2522 218 2522 
C 435 2522 480 2458 480 2155 
L 480 -855 
C 480 -1189 410 -1261 32 -1299 
L 32 -1408 
L 1581 -1408 
L 1581 -1293 
C 1101 -1293 1018 -1222 1018 -816 
L 1018 199 
C 1242 -13 1395 -77 1664 -77 
C 2419 -77 3008 643 3008 1575 
C 3008 2372 2560 2944 1939 2944 
C 1581 2944 1299 2784 1018 2438 
L 1018 2931 
L 979 2944 
C 634 2810 410 2726 58 2618 
L 58 2516 
z
M 1018 2136 
C 1018 2329 1376 2560 1670 2560 
C 2144 2560 2458 2071 2458 1324 
C 2458 611 2144 128 1683 128 
C 1382 128 1018 359 1018 552 
L 1018 2136 
z
" transform="scale(0.015625)"/>
       <path id="NimbusRomNo9L-Regu-6f" d="M 1600 2944 
C 768 2944 186 2330 186 1446 
C 186 582 781 -64 1587 -64 
C 2394 -64 3008 614 3008 1498 
C 3008 2336 2419 2944 1600 2944 
z
M 1517 2765 
C 2054 2765 2432 2150 2432 1274 
C 2432 550 2144 115 1664 115 
C 1414 115 1178 269 1043 525 
C 864 858 762 1306 762 1760 
C 762 2368 1062 2765 1517 2765 
z
" transform="scale(0.015625)"/>
       <path id="NimbusRomNo9L-Regu-63" d="M 2547 998 
C 2240 550 2010 397 1645 397 
C 1062 397 653 909 653 1645 
C 653 2304 1005 2758 1523 2758 
C 1754 2758 1837 2688 1901 2451 
L 1939 2310 
C 1990 2131 2106 2016 2240 2016 
C 2406 2016 2547 2138 2547 2285 
C 2547 2643 2099 2944 1562 2944 
C 1248 2944 922 2816 659 2586 
C 339 2304 160 1869 160 1363 
C 160 531 666 -64 1376 -64 
C 1664 -64 1920 38 2150 237 
C 2323 390 2445 563 2637 941 
L 2547 998 
z
" transform="scale(0.015625)"/>
       <path id="NimbusRomNo9L-Regu-68" d="M 1005 2222 
C 1274 2516 1466 2624 1715 2624 
C 2035 2624 2195 2395 2195 1948 
L 2195 684 
C 2195 250 2131 166 1760 128 
L 1760 32 
L 3117 32 
L 3117 128 
C 2771 192 2733 243 2733 684 
L 2733 1954 
C 2733 2625 2464 2970 1946 2970 
C 1568 2970 1299 2816 1005 2432 
L 1005 4390 
L 973 4409 
C 755 4332 595 4281 237 4179 
L 64 4128 
L 64 4026 
C 90 4032 109 4032 141 4032 
C 416 4032 467 3980 467 3705 
L 467 686 
C 467 237 429 179 58 128 
L 58 32 
L 1440 32 
L 1440 128 
C 1069 166 1005 243 1005 684 
L 1005 2222 
z
" transform="scale(0.015625)"/>
      </defs>
      <use xlink:href="#NimbusRomNo9L-Regu-54" transform="scale(0.996264)"/>
      <use xlink:href="#NimbusRomNo9L-Regu-72" transform="translate(57.384904 0) scale(0.996264)"/>
      <use xlink:href="#NimbusRomNo9L-Regu-61" transform="translate(90.560134 0) scale(0.996264)"/>
      <use xlink:href="#NimbusRomNo9L-Regu-69" transform="translate(134.793703 0) scale(0.996264)"/>
      <use xlink:href="#NimbusRomNo9L-Regu-6e" transform="translate(162.488872 0) scale(0.996264)"/>
      <use xlink:href="#NimbusRomNo9L-Regu-69" transform="translate(212.302073 0) scale(0.996264)"/>
      <use xlink:href="#NimbusRomNo9L-Regu-6e" transform="translate(239.997242 0) scale(0.996264)"/>
      <use xlink:href="#NimbusRomNo9L-Regu-67" transform="translate(289.810443 0) scale(0.996264)"/>
      <use xlink:href="#NimbusRomNo9L-Regu-45" transform="translate(364.530244 0) scale(0.996264)"/>
      <use xlink:href="#NimbusRomNo9L-Regu-70" transform="translate(425.401874 0) scale(0.996264)"/>
      <use xlink:href="#NimbusRomNo9L-Regu-6f" transform="translate(475.215075 0) scale(0.996264)"/>
      <use xlink:href="#NimbusRomNo9L-Regu-63" transform="translate(525.028275 0) scale(0.996264)"/>
      <use xlink:href="#NimbusRomNo9L-Regu-68" transform="translate(569.261844 0) scale(0.996264)"/>
     </g>
    </g>
   </g>
   <g id="matplotlib.axis_2">
    <g id="ytick_1">
     <g id="line2d_11">
      <path d="M 44.814916 63.100714 
L 204.48 63.100714 
" clip-path="url(#p13a3d8753e)" style="fill: none; stroke-dasharray: 1.85,0.8; stroke-dashoffset: 0; stroke: #b0b0b0; stroke-opacity: 0.3; stroke-width: 0.5"/>
     </g>
     <g id="line2d_12">
      <defs>
       <path id="m44b72cc479" d="M 0 0 
L -3.5 0 
" style="stroke: #000000; stroke-width: 0.8"/>
      </defs>
      <g>
       <use xlink:href="#m44b72cc479" x="44.814916" y="63.100714" style="stroke: #000000; stroke-width: 0.8"/>
      </g>
     </g>
     <g id="text_7">
      <!-- $\mathdefault{0.90}$ -->
      <g transform="translate(20.111406 66.478003) scale(0.1 -0.1)">
       <defs>
        <path id="CMMI10-3a" d="M 1229 338 
C 1229 522 1075 675 890 675 
C 704 675 550 522 550 338 
C 550 153 704 0 890 0 
C 1075 0 1229 153 1229 338 
z
" transform="scale(0.015625)"/>
        <path id="NimbusRomNo9L-Regu-39" d="M 378 -123 
C 1094 -40 1446 82 1882 396 
C 2547 882 2938 1676 2938 2539 
C 2938 3593 2349 4339 1523 4339 
C 762 4339 192 3694 192 2832 
C 192 2053 653 1536 1344 1536 
C 1696 1536 1965 1638 2304 1900 
C 2042 856 1331 172 358 5 
L 378 -123 
z
M 2317 2290 
C 2317 2162 2291 2104 2221 2047 
C 2042 1894 1805 1811 1574 1811 
C 1088 1811 781 2290 781 3050 
C 781 3413 883 3796 1018 3963 
C 1126 4090 1286 4160 1472 4160 
C 2029 4160 2317 3611 2317 2539 
L 2317 2290 
z
" transform="scale(0.015625)"/>
       </defs>
       <use xlink:href="#NimbusRomNo9L-Regu-30" transform="scale(0.996264)"/>
       <use xlink:href="#CMMI10-3a" transform="translate(49.8132 0) scale(0.996264)"/>
       <use xlink:href="#NimbusRomNo9L-Regu-39" transform="translate(77.408707 0) scale(0.996264)"/>
       <use xlink:href="#NimbusRomNo9L-Regu-30" transform="translate(127.221908 0) scale(0.996264)"/>
      </g>
     </g>
    </g>
    <g id="ytick_2">
     <g id="line2d_13">
      <path d="M 44.814916 24.178554 
L 204.48 24.178554 
" clip-path="url(#p13a3d8753e)" style="fill: none; stroke-dasharray: 1.85,0.8; stroke-dashoffset: 0; stroke: #b0b0b0; stroke-opacity: 0.3; stroke-width: 0.5"/>
     </g>
     <g id="line2d_14">
      <g>
       <use xlink:href="#m44b72cc479" x="44.814916" y="24.178554" style="stroke: #000000; stroke-width: 0.8"/>
      </g>
     </g>
     <g id="text_8">
      <!-- $\mathdefault{0.92}$ -->
      <g transform="translate(20.111406 27.555843) scale(0.1 -0.1)">
       <use xlink:href="#NimbusRomNo9L-Regu-30" transform="scale(0.996264)"/>
       <use xlink:href="#CMMI10-3a" transform="translate(49.8132 0) scale(0.996264)"/>
       <use xlink:href="#NimbusRomNo9L-Regu-39" transform="translate(77.408707 0) scale(0.996264)"/>
       <use xlink:href="#NimbusRomNo9L-Regu-32" transform="translate(127.221908 0) scale(0.996264)"/>
      </g>
     </g>
    </g>
    <g id="text_9">
     <!-- Reward -->
     <g transform="translate(13.954578 68.003415) rotate(-90) scale(0.1 -0.1)">
      <defs>
       <path id="NimbusRomNo9L-Regu-52" d="M 4218 121 
C 3974 140 3846 205 3661 424 
L 2342 2061 
C 2771 2143 2963 2219 3174 2388 
C 3379 2553 3501 2818 3501 3113 
C 3501 3385 3418 3618 3251 3801 
C 3008 4059 2477 4224 1875 4224 
L 109 4224 
L 109 4102 
C 589 4051 653 3981 653 3528 
L 653 765 
C 653 236 589 159 109 121 
L 109 0 
L 1882 0 
L 1882 134 
C 1389 134 1306 219 1306 692 
L 1306 1984 
L 1664 1984 
L 3187 0 
L 4218 0 
L 4218 121 
z
M 1306 3762 
C 1306 3937 1376 3987 1632 3987 
C 2432 3987 2803 3716 2803 3123 
C 2803 2807 2669 2542 2438 2423 
C 2144 2258 1920 2221 1306 2221 
L 1306 3762 
z
" transform="scale(0.015625)"/>
       <path id="NimbusRomNo9L-Regu-65" d="M 2611 1053 
C 2304 564 2029 378 1619 378 
C 1254 378 979 564 794 930 
C 678 1174 634 1386 621 1779 
L 2592 1779 
C 2541 2193 2477 2377 2317 2581 
C 2125 2811 1830 2944 1498 2944 
C 1178 2944 877 2829 634 2611 
C 333 2349 160 1894 160 1370 
C 160 486 621 -64 1357 -64 
C 1965 -64 2445 315 2714 1008 
L 2611 1053 
z
M 634 1984 
C 704 2479 922 2714 1312 2714 
C 1702 2714 1856 2535 1939 1984 
L 634 1984 
z
" transform="scale(0.015625)"/>
       <path id="NimbusRomNo9L-Regu-77" d="M 3654 2912 
L 3654 2816 
C 3872 2771 3936 2726 3936 2618 
C 3936 2521 3898 2367 3827 2194 
L 3251 770 
L 2714 2207 
C 2605 2501 2605 2501 2605 2586 
C 2605 2726 2675 2771 2976 2816 
L 2976 2912 
L 1677 2912 
L 1677 2816 
C 1914 2790 1990 2720 2118 2373 
C 2163 2252 2208 2129 2246 2014 
L 1664 738 
L 1030 2412 
C 1005 2476 992 2540 992 2605 
C 992 2739 1069 2790 1286 2816 
L 1286 2912 
L 134 2912 
L 134 2816 
C 282 2803 333 2739 474 2412 
L 1338 219 
C 1414 26 1466 -64 1504 -64 
C 1536 -64 1587 20 1664 186 
L 2381 1725 
L 2963 212 
C 3053 -25 3078 -64 3117 -64 
C 3162 -64 3194 -6 3296 251 
L 4179 2469 
C 4294 2739 4314 2771 4442 2816 
L 4442 2912 
L 3654 2912 
z
" transform="scale(0.015625)"/>
       <path id="NimbusRomNo9L-Regu-64" d="M 2202 -64 
L 3142 269 
L 3142 365 
C 3027 365 3014 365 2995 365 
C 2765 365 2714 435 2714 731 
L 2714 4364 
L 2682 4377 
C 2374 4268 2150 4204 1741 4096 
L 1741 3994 
C 1792 4000 1830 4000 1882 4000 
C 2118 4000 2176 3936 2176 3672 
L 2176 2669 
C 1933 2874 1760 2944 1504 2944 
C 768 2944 173 2221 173 1312 
C 173 493 653 -64 1357 -64 
C 1715 -64 1958 64 2176 365 
L 2176 -45 
L 2202 -64 
z
M 2176 653 
C 2176 608 2131 531 2067 461 
C 1952 333 1792 269 1606 269 
C 1075 269 723 781 723 1568 
C 723 2291 1037 2765 1523 2765 
C 1862 2765 2176 2464 2176 2125 
L 2176 653 
z
" transform="scale(0.015625)"/>
      </defs>
      <use xlink:href="#NimbusRomNo9L-Regu-52" transform="scale(0.996264)"/>
      <use xlink:href="#NimbusRomNo9L-Regu-65" transform="translate(66.450031 0) scale(0.996264)"/>
      <use xlink:href="#NimbusRomNo9L-Regu-77" transform="translate(108.19297 0) scale(0.996264)"/>
      <use xlink:href="#NimbusRomNo9L-Regu-61" transform="translate(179.126858 0) scale(0.996264)"/>
      <use xlink:href="#NimbusRomNo9L-Regu-72" transform="translate(223.360427 0) scale(0.996264)"/>
      <use xlink:href="#NimbusRomNo9L-Regu-64" transform="translate(256.535657 0) scale(0.996264)"/>
     </g>
    </g>
   </g>
   <g id="line2d_15">
    <path d="M 52.07242 38.774364 
L 53.526847 37.402358 
L 53.531214 37.659341 
L 54.260612 37.508316 
L 54.990009 37.520976 
L 55.710671 37.938949 
L 55.719406 37.785128 
L 56.448804 39.497865 
L 57.178201 40.463684 
L 57.894496 40.690054 
L 57.907599 41.157424 
L 58.636996 41.457945 
L 60.07832 40.51744 
L 60.095791 40.175658 
L 60.825188 39.918382 
L 61.554585 40.312381 
L 62.262145 39.56721 
L 62.283983 37.856437 
L 63.01338 39.406285 
L 63.742777 38.670176 
L 64.445969 39.076657 
L 64.472175 40.208863 
L 65.201572 38.978201 
L 65.93097 39.624865 
L 66.629793 38.724394 
L 66.660367 38.238367 
L 67.389764 37.676112 
L 68.119162 36.957304 
L 68.813618 35.596981 
L 68.848559 35.06114 
L 69.577956 37.04438 
L 70.307354 38.521261 
L 70.997442 39.415759 
L 71.036751 38.679554 
L 72.495546 41.101913 
L 73.224943 41.698621 
L 73.954341 40.696324 
L 74.683738 40.758192 
L 75.365091 40.657266 
L 75.413135 40.395174 
L 76.87193 39.798548 
L 77.548916 39.220692 
L 77.601328 39.864931 
L 78.330725 40.097289 
L 79.060122 39.192093 
L 79.73274 38.782477 
L 79.78952 37.566078 
L 80.518917 37.25381 
L 81.248314 38.242069 
L 81.916565 38.32848 
L 81.977712 37.765324 
L 83.436506 36.898303 
L 84.100389 37.646854 
L 84.165904 36.928339 
L 84.895301 36.217008 
L 85.624699 35.026265 
L 86.284214 36.117887 
L 87.083493 34.550616 
L 87.812891 34.34959 
L 88.542288 34.637102 
L 88.68642 35.732616 
L 89.271685 34.708892 
L 90.001083 34.263019 
L 90.73048 33.091815 
L 90.870245 33.391904 
L 91.459878 33.688992 
L 92.189275 34.307461 
L 92.918672 33.135812 
L 93.054069 34.570691 
L 93.64807 35.180343 
L 94.377467 33.756702 
L 95.106864 32.671649 
L 95.237894 34.273345 
L 95.836262 32.858774 
L 96.565659 32.350315 
L 98.024454 29.572344 
L 98.753851 29.421101 
L 99.605543 28.400644 
L 100.212646 27.0448 
L 100.942043 25.86469 
L 101.789367 24.75283 
L 102.400838 26.109363 
L 103.130235 26.236013 
L 103.859633 26.118133 
L 103.973192 26.81231 
L 104.58903 25.229086 
L 105.318428 25.445626 
L 106.157016 24.022619 
L 106.777222 23.197083 
L 107.50662 22.866329 
L 108.236017 24.647166 
L 108.340841 26.166931 
L 108.965414 24.833424 
L 109.694812 23.837604 
L 110.424209 24.960026 
L 110.524665 26.801014 
L 111.153607 27.488362 
L 112.612401 24.486468 
L 112.70849 26.494368 
L 113.341799 29.53633 
L 114.071196 28.898919 
L 114.800593 29.240937 
L 114.892314 30.228238 
L 116.988785 26.14617 
L 117.076138 25.704837 
L 117.718183 24.132688 
L 118.44758 23.549314 
L 119.176978 22.485247 
L 119.259963 22.729226 
L 120.635772 20.628052 
L 121.36517 19.593198 
L 121.443787 20.028273 
L 122.094567 18.756153 
L 122.823964 17.821106 
L 123.553362 18.517165 
L 123.627612 21.23346 
L 124.282759 21.73322 
L 125.012157 20.200787 
L 125.741554 20.143259 
L 126.029819 21.870239 
L 126.470951 22.03928 
L 127.200349 22.044456 
L 127.929746 20.50891 
L 128.213643 21.907882 
L 128.659143 22.157635 
L 129.388541 20.620958 
L 130.117938 21.532282 
L 130.397468 22.110142 
L 130.847336 20.57394 
L 131.576733 20.188329 
L 132.30613 18.671345 
L 132.581292 18.791287 
L 133.035528 17.288274 
L 133.764925 15.80029 
L 134.494322 15.462416 
L 134.765117 16.425326 
L 135.22372 15.432499 
L 135.953117 15.17939 
L 136.682514 13.712496 
L 136.948941 16.476837 
L 138.141309 14.337099 
L 138.870707 13.202979 
L 139.132766 14.67501 
L 139.600104 13.213159 
L 140.329501 14.036386 
L 141.058899 12.580921 
L 141.31659 13.734822 
L 142.517693 14.476372 
L 143.247091 15.205879 
L 143.500414 17.630936 
L 143.976488 16.382789 
L 144.705886 15.390387 
L 145.435283 14.164646 
L 145.684239 16.275763 
L 146.16468 15.689871 
L 147.623475 12.922767 
L 147.868063 14.235425 
L 148.352872 12.77797 
L 149.08227 11.33509 
L 149.811667 11.609482 
L 150.051888 12.935273 
L 150.541065 12.382785 
L 151.270462 12.646701 
L 151.999859 16.719106 
L 152.235712 19.777733 
L 152.729257 20.454226 
L 153.458654 20.231988 
L 154.188051 20.660675 
L 154.419537 22.382481 
L 154.917449 21.897697 
L 155.646846 20.363619 
L 156.376243 19.169233 
L 156.603361 19.932899 
L 157.105641 20.607841 
L 157.835038 21.357121 
L 158.564436 20.314976 
L 158.787186 21.878063 
L 159.293833 20.587445 
L 160.02323 19.06647 
L 160.752628 18.777022 
L 161.189393 19.706786 
L 161.482025 18.924407 
L 162.211422 17.663326 
L 162.94082 17.144646 
L 163.373217 19.550315 
L 163.670217 18.526238 
L 164.399615 18.971982 
L 165.129012 19.656533 
L 165.557041 22.52361 
L 165.858409 21.713064 
L 166.587807 22.937818 
L 167.317204 21.636603 
L 167.740866 23.186474 
L 168.046601 22.69365 
L 168.775999 21.151612 
L 169.505396 21.246752 
L 169.92469 22.47617 
L 170.234793 20.936307 
L 170.964191 21.195776 
L 171.693588 22.101352 
L 172.108515 24.133102 
L 172.422986 23.306461 
L 173.152383 21.758296 
L 173.88178 21.928456 
L 174.611178 26.620539 
L 175.340575 25.850111 
L 176.069972 26.222617 
L 176.476164 29.348384 
L 176.79937 28.145239 
L 177.528767 27.035213 
L 178.258165 26.666077 
L 178.659988 28.003477 
L 178.987562 26.651605 
L 180.446357 23.584465 
L 180.843813 24.303978 
L 181.175754 22.989101 
L 182.634549 20.801668 
L 183.027637 21.711186 
L 183.363946 21.881817 
L 184.093344 20.753337 
L 184.822741 20.690284 
L 185.211462 21.600915 
L 185.552138 22.097001 
L 186.281536 22.750302 
L 187.010933 22.667279 
L 187.395286 25.342072 
L 187.74033 24.260078 
L 188.469728 23.432167 
L 189.199125 22.126008 
L 189.579111 22.373579 
L 189.928522 21.888884 
L 190.65792 20.598158 
L 191.387317 19.563603 
L 191.762935 20.323325 
L 192.116715 18.804991 
L 192.846112 17.707279 
L 193.575509 16.215105 
L 193.946759 16.35961 
L 194.304907 14.962001 
L 195.763701 12.450213 
L 196.130584 12.632366 
L 196.493099 11.434205 
L 197.222496 16.402427 
L 197.222496 16.402427 
" clip-path="url(#p13a3d8753e)" style="fill: none; stroke: #66c2a5; stroke-width: 2; stroke-linecap: square"/>
   </g>
   <g id="line2d_16">
    <path d="M 52.07242 87.427064 
L 52.801817 87.832503 
L 53.526847 87.42301 
L 53.531214 87.179787 
L 54.260612 86.533557 
L 54.990009 86.785755 
L 55.710671 86.224553 
L 55.719406 85.182437 
L 56.448804 85.934673 
L 57.178201 86.111773 
L 58.636996 84.624692 
L 59.366393 84.166189 
L 60.07832 84.11771 
L 60.095791 83.339925 
L 60.825188 81.921215 
L 61.554585 81.976274 
L 62.262145 81.625343 
L 62.283983 80.710306 
L 63.01338 82.237054 
L 63.742777 82.045691 
L 64.445969 82.504944 
L 64.472175 83.770483 
L 65.201572 82.104204 
L 65.93097 81.427642 
L 66.629793 81.7309 
L 66.660367 81.301334 
L 67.389764 81.119328 
L 68.119162 80.695879 
L 68.848559 80.747931 
L 69.577956 84.463674 
L 70.307354 86.844855 
L 70.997442 88.229171 
L 71.036751 88.95094 
L 72.495546 90.776716 
L 73.181267 92.446064 
L 73.224943 93.206752 
L 73.954341 92.419165 
L 74.683738 92.369244 
L 75.365091 91.914383 
L 75.413135 90.653192 
L 76.142533 91.512897 
L 76.87193 91.472039 
L 77.548916 91.837028 
L 77.601328 91.063138 
L 78.330725 92.486358 
L 79.060122 92.597941 
L 79.73274 92.140793 
L 79.78952 91.850392 
L 80.518917 91.40072 
L 81.248314 94.036882 
L 81.916565 93.403168 
L 81.977712 93.100144 
L 82.707109 93.286677 
L 83.436506 93.228081 
L 84.100389 92.926807 
L 84.165904 92.142019 
L 84.895301 91.121815 
L 85.624699 90.841604 
L 86.284214 91.050722 
L 86.354096 91.744276 
L 87.083493 90.72805 
L 88.542288 90.258543 
L 88.68642 89.500438 
L 89.271685 88.993177 
L 90.001083 88.004462 
L 90.73048 88.079776 
L 90.870245 88.478688 
L 91.459878 89.441226 
L 92.189275 90.150874 
L 92.918672 90.3669 
L 93.054069 91.87817 
L 93.64807 91.833659 
L 94.377467 91.059803 
L 95.106864 90.050421 
L 95.237894 90.267451 
L 95.836262 88.292939 
L 97.295057 85.855237 
L 97.421718 86.114218 
L 98.024454 86.046259 
L 98.753851 85.330276 
L 99.483249 85.270157 
L 99.605543 86.021516 
L 100.212646 84.57599 
L 100.942043 83.226008 
L 101.671441 83.268019 
L 101.789367 82.90417 
L 102.400838 84.571155 
L 103.130235 84.113188 
L 103.973192 83.375553 
L 104.58903 81.956487 
L 105.318428 81.605754 
L 106.047825 79.717859 
L 106.157016 78.740809 
L 106.777222 77.449179 
L 107.50662 76.575903 
L 108.236017 77.657469 
L 108.340841 78.484955 
L 108.965414 76.628269 
L 109.694812 75.276676 
L 110.524665 75.43738 
L 111.153607 77.341209 
L 111.883004 75.49596 
L 112.612401 74.804393 
L 112.70849 75.498234 
L 113.341799 78.050157 
L 114.071196 77.414136 
L 114.800593 77.514265 
L 114.892314 77.694481 
L 116.259388 74.660053 
L 117.076138 73.949982 
L 117.718183 72.868435 
L 118.44758 72.040967 
L 119.176978 71.465038 
L 119.259963 72.030097 
L 119.906375 71.778628 
L 120.635772 70.232268 
L 121.36517 69.025723 
L 121.443787 68.642121 
L 122.823964 65.627281 
L 123.553362 67.30486 
L 123.627612 69.857629 
L 124.282759 71.898343 
L 125.012157 70.594049 
L 125.741554 71.329994 
L 126.029819 71.896404 
L 126.470951 72.294974 
L 127.929746 71.224097 
L 128.213643 72.278093 
L 128.659143 72.51067 
L 129.388541 70.470463 
L 130.117938 70.396765 
L 130.397468 71.134683 
L 130.847336 71.054343 
L 131.576733 71.785685 
L 133.764925 67.927893 
L 134.765117 67.831832 
L 135.22372 66.568203 
L 135.953117 67.506582 
L 136.682514 66.489469 
L 136.948941 66.942109 
L 138.141309 64.603315 
L 138.870707 63.77741 
L 139.132766 63.770643 
L 139.600104 62.79089 
L 140.329501 63.523779 
L 141.058899 62.059967 
L 141.31659 62.556901 
L 141.788296 62.1569 
L 142.517693 62.896129 
L 143.500414 64.590882 
L 143.976488 64.57598 
L 144.705886 64.885579 
L 145.435283 64.86773 
L 145.684239 66.471816 
L 146.16468 66.762457 
L 146.894078 65.509522 
L 147.623475 64.998907 
L 147.868063 64.979924 
L 148.352872 65.690923 
L 149.811667 64.267372 
L 150.051888 64.417881 
L 150.541065 64.566885 
L 151.270462 65.282014 
L 151.999859 68.179363 
L 152.235712 71.372089 
L 153.458654 71.691583 
L 154.188051 72.821992 
L 154.419537 74.18436 
L 154.917449 74.154612 
L 155.646846 73.800809 
L 156.603361 72.542655 
L 157.835038 74.131395 
L 158.787186 73.430222 
L 159.293833 72.191698 
L 160.02323 71.857524 
L 160.752628 71.283429 
L 161.189393 71.363778 
L 161.482025 70.79462 
L 162.211422 69.663539 
L 162.94082 69.111384 
L 163.373217 70.510858 
L 163.670217 70.355669 
L 164.399615 70.769646 
L 165.129012 72.07145 
L 165.557041 74.576553 
L 165.858409 73.732005 
L 166.587807 74.274394 
L 167.317204 72.703076 
L 168.046601 72.430902 
L 168.775999 70.878019 
L 169.505396 71.124597 
L 169.92469 71.530885 
L 170.234793 70.473529 
L 170.964191 70.80524 
L 172.108515 73.713797 
L 172.422986 72.553524 
L 173.152383 70.512888 
L 173.88178 70.357678 
L 174.292339 71.420338 
L 174.611178 74.01304 
L 175.340575 73.255214 
L 176.069972 74.126723 
L 176.476164 74.827342 
L 176.79937 73.655934 
L 177.528767 74.523435 
L 178.258165 74.490296 
L 178.659988 75.025103 
L 178.987562 73.689541 
L 179.716959 72.448423 
L 180.446357 72.841473 
L 180.843813 72.906241 
L 181.175754 72.159483 
L 181.905151 70.852578 
L 182.634549 69.153303 
L 183.027637 69.417128 
L 183.363946 69.840491 
L 184.822741 68.738181 
L 185.211462 69.979212 
L 185.552138 70.559129 
L 186.281536 74.376761 
L 187.010933 74.507264 
L 187.395286 76.177131 
L 187.74033 76.28963 
L 188.469728 75.509038 
L 189.199125 74.168638 
L 189.579111 73.895783 
L 189.928522 74.923062 
L 190.65792 75.291365 
L 191.387317 74.034229 
L 191.762935 76.033178 
L 192.116715 75.174063 
L 192.846112 74.728978 
L 193.575509 73.396378 
L 193.946759 71.996015 
L 194.304907 71.744887 
L 195.034304 70.685391 
L 196.130584 70.051172 
L 196.493099 69.251877 
L 197.222496 78.871361 
L 197.222496 78.871361 
" clip-path="url(#p13a3d8753e)" style="fill: none; stroke: #fc8d62; stroke-width: 2; stroke-linecap: square"/>
   </g>
   <g id="patch_3">
    <path d="M 44.814916 98.171971 
L 44.814916 7.2 
" style="fill: none; stroke: #000000; stroke-width: 0.8; stroke-linejoin: miter; stroke-linecap: square"/>
   </g>
   <g id="patch_4">
    <path d="M 44.814916 98.171971 
L 204.48 98.171971 
" style="fill: none; stroke: #000000; stroke-width: 0.8; stroke-linejoin: miter; stroke-linecap: square"/>
   </g>
   <g id="legend_1">
    <g id="line2d_17">
     <path d="M 49.412334 137.963562 
L 59.412334 137.963562 
L 69.412334 137.963562 
" style="fill: none; stroke: #66c2a5; stroke-width: 2; stroke-linecap: square"/>
    </g>
    <g id="text_10">
     <!-- GRPO -->
     <g transform="translate(77.412334 141.463562) scale(0.1 -0.1)">
      <defs>
       <path id="NimbusRomNo9L-Regu-47" d="M 4538 2304 
L 2906 2304 
L 2906 2176 
C 3181 2176 3258 2157 3334 2105 
C 3430 2047 3469 1898 3469 1621 
L 3469 574 
C 3469 367 3078 192 2618 192 
C 1574 192 934 922 934 2112 
C 934 2714 1114 3296 1395 3610 
C 1677 3924 2074 4096 2509 4096 
C 2867 4096 3181 3975 3430 3744 
C 3622 3565 3725 3392 3885 3002 
L 4032 3002 
L 3981 4352 
L 3840 4352 
C 3802 4231 3686 4141 3552 4141 
C 3488 4141 3386 4160 3270 4205 
C 2982 4301 2688 4352 2400 4352 
C 1120 4352 205 3412 205 2106 
C 205 1479 378 999 736 621 
C 1165 180 1779 -64 2483 -64 
C 3034 -64 3834 160 4090 385 
L 4090 1694 
C 4090 2073 4166 2157 4538 2189 
L 4538 2304 
z
" transform="scale(0.015625)"/>
       <path id="NimbusRomNo9L-Regu-50" d="M 1293 1875 
C 1459 1856 1568 1856 1734 1856 
C 2234 1856 2579 1919 2854 2072 
C 3238 2274 3469 2660 3469 3078 
C 3469 3344 3379 3584 3206 3768 
C 2950 4047 2394 4224 1792 4224 
L 102 4224 
L 102 4102 
C 576 4051 640 3987 640 3528 
L 640 766 
C 640 230 589 166 102 122 
L 102 0 
L 1894 0 
L 1894 128 
C 1389 128 1293 218 1293 693 
L 1293 1875 
z
M 1293 3772 
C 1293 3943 1338 3987 1510 3987 
C 2374 3987 2771 3690 2771 3040 
C 2771 2428 2394 2112 1658 2112 
C 1530 2112 1440 2119 1293 2131 
L 1293 3772 
z
" transform="scale(0.015625)"/>
       <path id="NimbusRomNo9L-Regu-4f" d="M 2310 4352 
C 1088 4352 218 3431 218 2144 
C 218 1543 422 960 768 589 
C 1139 186 1709 -64 2272 -64 
C 3533 -64 4403 832 4403 2119 
C 4403 2752 4218 3296 3866 3680 
C 3462 4122 2925 4352 2310 4352 
z
M 2310 4122 
C 2605 4122 2899 4007 3130 3802 
C 3475 3488 3674 2887 3674 2125 
C 3674 1748 3590 1306 3462 973 
C 3405 813 3296 653 3149 506 
C 2925 282 2637 167 2298 167 
C 2003 167 1715 282 1491 480 
C 1158 775 947 1421 947 2132 
C 947 2784 1126 3405 1395 3706 
C 1645 3981 1958 4122 2310 4122 
z
" transform="scale(0.015625)"/>
      </defs>
      <use xlink:href="#NimbusRomNo9L-Regu-47" transform="scale(0.996264)"/>
      <use xlink:href="#NimbusRomNo9L-Regu-52" transform="translate(71.929985 0) scale(0.996264)"/>
      <use xlink:href="#NimbusRomNo9L-Regu-50" transform="translate(138.380016 0) scale(0.996264)"/>
      <use xlink:href="#NimbusRomNo9L-Regu-4f" transform="translate(193.771693 0) scale(0.996264)"/>
     </g>
    </g>
    <g id="line2d_18">
     <path d="M 123.982495 137.963562 
L 133.982495 137.963562 
L 143.982495 137.963562 
" style="fill: none; stroke: #fc8d62; stroke-width: 2; stroke-linecap: square"/>
    </g>
    <g id="text_11">
     <!-- GRPO-Low -->
     <g transform="translate(151.982495 141.463562) scale(0.1 -0.1)">
      <defs>
       <path id="NimbusRomNo9L-Regu-2d" d="M 250 1619 
L 250 1216 
L 1824 1216 
L 1824 1619 
L 250 1619 
z
" transform="scale(0.015625)"/>
       <path id="NimbusRomNo9L-Regu-4c" d="M 3667 1114 
C 3558 870 3469 723 3373 614 
C 3149 365 2797 250 2266 250 
L 1837 250 
C 1370 250 1286 288 1286 513 
L 1286 3550 
C 1286 4007 1376 4096 1882 4096 
L 1882 4237 
L 77 4237 
L 77 4115 
C 550 4077 634 3986 634 3536 
L 634 681 
C 634 230 544 134 77 134 
L 77 0 
L 3520 0 
L 3827 1114 
L 3667 1114 
z
" transform="scale(0.015625)"/>
      </defs>
      <use xlink:href="#NimbusRomNo9L-Regu-47" transform="scale(0.996264)"/>
      <use xlink:href="#NimbusRomNo9L-Regu-52" transform="translate(71.929985 0) scale(0.996264)"/>
      <use xlink:href="#NimbusRomNo9L-Regu-50" transform="translate(138.380016 0) scale(0.996264)"/>
      <use xlink:href="#NimbusRomNo9L-Regu-4f" transform="translate(193.771693 0) scale(0.996264)"/>
      <use xlink:href="#NimbusRomNo9L-Regu-2d" transform="translate(265.701678 0) scale(0.996264)"/>
      <use xlink:href="#NimbusRomNo9L-Regu-4c" transform="translate(298.876908 0) scale(0.996264)"/>
      <use xlink:href="#NimbusRomNo9L-Regu-6f" transform="translate(359.748538 0) scale(0.996264)"/>
      <use xlink:href="#NimbusRomNo9L-Regu-77" transform="translate(407.071109 0) scale(0.996264)"/>
     </g>
    </g>
   </g>
  </g>
 </g>
 <defs>
  <clipPath id="p13a3d8753e">
   <rect x="44.814916" y="7.2" width="159.665084" height="90.971971"/>
  </clipPath>
 </defs>
</svg>
