<?xml version="1.0" encoding="utf-8" standalone="no"?>
<!DOCTYPE svg PUBLIC "-//W3C//DTD SVG 1.1//EN"
  "http://www.w3.org/Graphics/SVG/1.1/DTD/svg11.dtd">
<svg xmlns:xlink="http://www.w3.org/1999/xlink" width="211.68pt" height="154.820391pt" viewBox="0 0 211.68 154.820391" xmlns="http://www.w3.org/2000/svg" version="1.1">
 <metadata>
  <rdf:RDF xmlns:dc="http://purl.org/dc/elements/1.1/" xmlns:cc="http://creativecommons.org/ns#" xmlns:rdf="http://www.w3.org/1999/02/22-rdf-syntax-ns#">
   <cc:Work>
    <dc:type rdf:resource="http://purl.org/dc/dcmitype/StillImage"/>
    <dc:date>2025-11-14T01:06:42.354494</dc:date>
    <dc:format>image/svg+xml</dc:format>
    <dc:creator>
     <cc:Agent>
      <dc:title>Matplotlib v3.10.7, https://matplotlib.org/</dc:title>
     </cc:Agent>
    </dc:creator>
   </cc:Work>
  </rdf:RDF>
 </metadata>
 <defs>
  <style type="text/css">*{stroke-linejoin: round; stroke-linecap: butt}</style>
 </defs>
 <g id="figure_1">
  <g id="patch_1">
   <path d="M 0 154.820391 
L 211.68 154.820391 
L 211.68 0 
L 0 0 
z
" style="fill: #ffffff"/>
  </g>
  <g id="axes_1">
   <g id="patch_2">
    <path d="M 44.814916 98.171971 
L 204.48 98.171971 
L 204.48 7.2 
L 44.814916 7.2 
z
" style="fill: #ffffff"/>
   </g>
   <g id="matplotlib.axis_1">
    <g id="xtick_1">
     <g id="line2d_1">
      <path d="M 51.343022 98.171971 
L 51.343022 7.2 
" clip-path="url(#p5549249ef7)" style="fill: none; stroke-dasharray: 1.85,0.8; stroke-dashoffset: 0; stroke: #b0b0b0; stroke-opacity: 0.3; stroke-width: 0.5"/>
     </g>
     <g id="line2d_2">
      <defs>
       <path id="m1e7d8d4cb6" d="M 0 0 
L 0 3.5 
" style="stroke: #000000; stroke-width: 0.8"/>
      </defs>
      <g>
       <use xlink:href="#m1e7d8d4cb6" x="51.343022" y="98.171971" style="stroke: #000000; stroke-width: 0.8"/>
      </g>
     </g>
     <g id="text_1">
      <!-- $\mathdefault{0}$ -->
      <g transform="translate(48.852362 111.926549) scale(0.1 -0.1)">
       <defs>
        <path id="NimbusRomNo9L-Regu-30" d="M 1626 4352 
C 1274 4352 1005 4244 768 4020 
C 397 3661 154 2925 154 2176 
C 154 1479 365 730 666 372 
C 902 90 1229 -64 1600 -64 
C 1926 -64 2202 45 2432 269 
C 2803 621 3046 1364 3046 2138 
C 3046 3450 2464 4352 1626 4352 
z
M 1606 4186 
C 2144 4186 2432 3463 2432 2125 
C 2432 788 2150 103 1600 103 
C 1050 103 768 788 768 2119 
C 768 3476 1056 4186 1606 4186 
z
" transform="scale(0.015625)"/>
       </defs>
       <use xlink:href="#NimbusRomNo9L-Regu-30" transform="scale(0.996264)"/>
      </g>
     </g>
    </g>
    <g id="xtick_2">
     <g id="line2d_3">
      <path d="M 87.812891 98.171971 
L 87.812891 7.2 
" clip-path="url(#p5549249ef7)" style="fill: none; stroke-dasharray: 1.85,0.8; stroke-dashoffset: 0; stroke: #b0b0b0; stroke-opacity: 0.3; stroke-width: 0.5"/>
     </g>
     <g id="line2d_4">
      <g>
       <use xlink:href="#m1e7d8d4cb6" x="87.812891" y="98.171971" style="stroke: #000000; stroke-width: 0.8"/>
      </g>
     </g>
     <g id="text_2">
      <!-- $\mathdefault{1}$ -->
      <g transform="translate(85.322231 111.926549) scale(0.1 -0.1)">
       <defs>
        <path id="NimbusRomNo9L-Regu-31" d="M 1862 4339 
L 710 3757 
L 710 3667 
C 787 3699 858 3725 883 3738 
C 998 3783 1107 3808 1171 3808 
C 1306 3808 1363 3711 1363 3505 
L 1363 592 
C 1363 379 1312 232 1210 173 
C 1114 116 1024 96 755 96 
L 755 0 
L 2522 0 
L 2522 96 
C 2016 96 1914 160 1914 470 
L 1914 4327 
L 1862 4339 
z
" transform="scale(0.015625)"/>
       </defs>
       <use xlink:href="#NimbusRomNo9L-Regu-31" transform="scale(0.996264)"/>
      </g>
     </g>
    </g>
    <g id="xtick_3">
     <g id="line2d_5">
      <path d="M 124.282759 98.171971 
L 124.282759 7.2 
" clip-path="url(#p5549249ef7)" style="fill: none; stroke-dasharray: 1.85,0.8; stroke-dashoffset: 0; stroke: #b0b0b0; stroke-opacity: 0.3; stroke-width: 0.5"/>
     </g>
     <g id="line2d_6">
      <g>
       <use xlink:href="#m1e7d8d4cb6" x="124.282759" y="98.171971" style="stroke: #000000; stroke-width: 0.8"/>
      </g>
     </g>
     <g id="text_3">
      <!-- $\mathdefault{2}$ -->
      <g transform="translate(121.792099 111.926549) scale(0.1 -0.1)">
       <defs>
        <path id="NimbusRomNo9L-Regu-32" d="M 3040 875 
L 2957 907 
C 2720 544 2637 486 2349 486 
L 819 486 
L 1894 1609 
C 2464 2202 2714 2687 2714 3185 
C 2714 3823 2195 4313 1530 4313 
C 1178 4313 845 4173 608 3918 
C 403 3700 307 3496 198 3043 
L 333 3011 
C 589 3636 819 3840 1261 3840 
C 1798 3840 2163 3476 2163 2940 
C 2163 2443 1869 1850 1331 1282 
L 192 77 
L 192 0 
L 2688 0 
L 3040 875 
z
" transform="scale(0.015625)"/>
       </defs>
       <use xlink:href="#NimbusRomNo9L-Regu-32" transform="scale(0.996264)"/>
      </g>
     </g>
    </g>
    <g id="xtick_4">
     <g id="line2d_7">
      <path d="M 160.752628 98.171971 
L 160.752628 7.2 
" clip-path="url(#p5549249ef7)" style="fill: none; stroke-dasharray: 1.85,0.8; stroke-dashoffset: 0; stroke: #b0b0b0; stroke-opacity: 0.3; stroke-width: 0.5"/>
     </g>
     <g id="line2d_8">
      <g>
       <use xlink:href="#m1e7d8d4cb6" x="160.752628" y="98.171971" style="stroke: #000000; stroke-width: 0.8"/>
      </g>
     </g>
     <g id="text_4">
      <!-- $\mathdefault{3}$ -->
      <g transform="translate(158.261968 111.926549) scale(0.1 -0.1)">
       <defs>
        <path id="NimbusRomNo9L-Regu-33" d="M 979 2138 
C 1357 2138 1504 2125 1658 2068 
C 2054 1927 2304 1562 2304 1120 
C 2304 583 1939 167 1466 167 
C 1293 167 1165 212 928 365 
C 736 480 627 525 518 525 
C 371 525 275 436 275 301 
C 275 77 550 -64 998 -64 
C 1491 -64 1997 103 2298 365 
C 2598 628 2765 999 2765 1428 
C 2765 1754 2662 2055 2477 2253 
C 2349 2394 2227 2471 1946 2592 
C 2387 2893 2547 3130 2547 3476 
C 2547 3994 2138 4352 1549 4352 
C 1229 4352 947 4244 717 4039 
C 525 3866 429 3699 288 3315 
L 384 3290 
C 646 3757 934 3968 1338 3968 
C 1754 3968 2042 3687 2042 3284 
C 2042 3053 1946 2823 1786 2663 
C 1594 2471 1414 2375 979 2221 
L 979 2138 
z
" transform="scale(0.015625)"/>
       </defs>
       <use xlink:href="#NimbusRomNo9L-Regu-33" transform="scale(0.996264)"/>
      </g>
     </g>
    </g>
    <g id="xtick_5">
     <g id="line2d_9">
      <path d="M 197.222496 98.171971 
L 197.222496 7.2 
" clip-path="url(#p5549249ef7)" style="fill: none; stroke-dasharray: 1.85,0.8; stroke-dashoffset: 0; stroke: #b0b0b0; stroke-opacity: 0.3; stroke-width: 0.5"/>
     </g>
     <g id="line2d_10">
      <g>
       <use xlink:href="#m1e7d8d4cb6" x="197.222496" y="98.171971" style="stroke: #000000; stroke-width: 0.8"/>
      </g>
     </g>
     <g id="text_5">
      <!-- $\mathdefault{4}$ -->
      <g transform="translate(194.731836 111.926549) scale(0.1 -0.1)">
       <defs>
        <path id="NimbusRomNo9L-Regu-34" d="M 3021 1497 
L 2368 1497 
L 2368 4352 
L 2086 4352 
L 77 1497 
L 77 1088 
L 1875 1088 
L 1875 32 
L 2368 32 
L 2368 1088 
L 3021 1088 
L 3021 1497 
z
M 1869 1497 
L 333 1497 
L 1869 3698 
L 1869 1497 
z
" transform="scale(0.015625)"/>
       </defs>
       <use xlink:href="#NimbusRomNo9L-Regu-34" transform="scale(0.996264)"/>
      </g>
     </g>
    </g>
    <g id="text_6">
     <!-- Training Epoch -->
     <g transform="translate(93.693733 124.837955) scale(0.1 -0.1)">
      <defs>
       <path id="NimbusRomNo9L-Regu-54" d="M 1626 3968 
L 1626 751 
C 1626 204 1555 134 1024 134 
L 1024 0 
L 2893 0 
L 2893 134 
C 2368 134 2278 217 2278 687 
L 2278 3968 
L 2624 3968 
C 3354 3968 3494 3853 3642 3149 
L 3795 3149 
L 3757 4237 
L 147 4237 
L 109 3149 
L 262 3149 
C 416 3846 563 3968 1280 3968 
L 1626 3968 
z
" transform="scale(0.015625)"/>
       <path id="NimbusRomNo9L-Regu-72" d="M 45 2496 
C 134 2515 192 2522 269 2522 
C 429 2522 486 2419 486 2138 
L 486 538 
C 486 218 442 173 32 96 
L 32 0 
L 1568 0 
L 1568 102 
C 1133 102 1024 199 1024 565 
L 1024 2013 
C 1024 2219 1299 2541 1472 2541 
C 1510 2541 1568 2509 1638 2445 
C 1741 2355 1811 2317 1894 2317 
C 2048 2317 2144 2426 2144 2605 
C 2144 2816 2010 2944 1792 2944 
C 1523 2944 1338 2797 1024 2343 
L 1024 2931 
L 992 2944 
C 653 2803 422 2721 45 2599 
L 45 2496 
z
" transform="scale(0.015625)"/>
       <path id="NimbusRomNo9L-Regu-61" d="M 2829 423 
C 2720 333 2643 301 2547 301 
C 2400 301 2355 390 2355 672 
L 2355 1920 
C 2355 2253 2323 2438 2227 2592 
C 2086 2822 1811 2944 1434 2944 
C 832 2944 358 2630 358 2227 
C 358 2080 486 1952 634 1952 
C 787 1952 922 2080 922 2221 
C 922 2246 915 2278 909 2323 
C 896 2381 890 2432 890 2477 
C 890 2650 1094 2790 1350 2790 
C 1664 2790 1837 2605 1837 2259 
L 1837 1869 
C 851 1472 742 1421 467 1178 
C 326 1050 237 832 237 621 
C 237 218 518 -64 909 -64 
C 1190 -64 1453 70 1843 403 
C 1875 70 1990 -64 2253 -64 
C 2470 -64 2605 13 2829 256 
L 2829 423 
z
M 1837 783 
C 1837 584 1805 526 1670 449 
C 1517 359 1338 301 1203 301 
C 979 301 800 520 800 796 
L 800 822 
C 800 1201 1062 1433 1837 1715 
L 1837 783 
z
" transform="scale(0.015625)"/>
       <path id="NimbusRomNo9L-Regu-69" d="M 1120 2929 
L 128 2579 
L 128 2484 
L 179 2490 
C 256 2502 339 2509 397 2509 
C 550 2509 608 2406 608 2125 
L 608 640 
C 608 179 544 109 102 109 
L 102 0 
L 1619 0 
L 1619 96 
C 1197 128 1146 191 1146 650 
L 1146 2910 
L 1120 2929 
z
M 819 4352 
C 646 4352 499 4205 499 4026 
C 499 3847 640 3699 819 3699 
C 1005 3699 1152 3840 1152 4026 
C 1152 4205 1005 4352 819 4352 
z
" transform="scale(0.015625)"/>
       <path id="NimbusRomNo9L-Regu-6e" d="M 102 2579 
C 141 2598 205 2605 275 2605 
C 454 2605 512 2509 512 2195 
L 512 608 
C 512 243 442 154 115 128 
L 115 32 
L 1472 32 
L 1472 128 
C 1146 154 1050 230 1050 461 
L 1050 2259 
C 1357 2547 1498 2624 1709 2624 
C 2022 2624 2176 2426 2176 2003 
L 2176 666 
C 2176 262 2093 154 1773 128 
L 1773 32 
L 3104 32 
L 3104 128 
C 2790 160 2714 237 2714 550 
L 2714 2016 
C 2714 2618 2432 2976 1958 2976 
C 1664 2976 1466 2867 1030 2458 
L 1030 2963 
L 986 2976 
C 672 2861 454 2790 102 2688 
L 102 2579 
z
" transform="scale(0.015625)"/>
       <path id="NimbusRomNo9L-Regu-67" d="M 3008 2496 
L 3008 2746 
L 2515 2746 
C 2387 2746 2291 2763 2163 2802 
L 2022 2847 
C 1850 2903 1677 2931 1510 2931 
C 915 2931 442 2467 442 1881 
C 442 1476 614 1230 1037 1018 
C 915 906 800 799 762 768 
C 550 588 467 463 467 338 
C 467 206 544 131 806 6 
C 352 -329 179 -543 179 -781 
C 179 -1124 678 -1408 1286 -1408 
C 1766 -1408 2266 -1238 2598 -962 
C 2842 -759 2950 -548 2950 -299 
C 2950 108 2650 384 2176 384 
L 1350 384 
C 1011 384 851 443 851 548 
C 851 678 1062 908 1235 960 
C 1293 953 1338 947 1357 947 
C 1478 934 1562 928 1600 928 
C 1837 928 2093 1026 2291 1203 
C 2502 1387 2598 1617 2598 1945 
C 2598 2135 2566 2286 2477 2496 
L 3008 2496 
z
M 941 -13 
C 1152 -58 1664 -96 1978 -96 
C 2560 -96 2771 -180 2771 -414 
C 2771 -791 2285 -1043 1562 -1043 
C 998 -1043 627 -855 627 -570 
C 627 -420 672 -336 941 -13 
z
M 973 2145 
C 973 2526 1152 2752 1446 2752 
C 1645 2752 1811 2642 1914 2449 
C 2029 2223 2106 1927 2106 1675 
C 2106 1314 1920 1088 1626 1088 
C 1242 1088 973 1507 973 2126 
L 973 2145 
z
" transform="scale(0.015625)"/>
       <path id="NimbusRomNo9L-Regu-45" d="M 3821 1078 
L 3642 1078 
C 3322 389 3046 237 2131 237 
L 1958 237 
C 1645 237 1376 269 1331 315 
C 1299 334 1286 404 1286 514 
L 1286 2106 
L 2272 2106 
C 2797 2106 2893 2020 2976 1472 
L 3123 1472 
L 3123 2957 
L 2976 2957 
C 2931 2703 2906 2610 2835 2523 
C 2752 2417 2573 2368 2272 2368 
L 1286 2368 
L 1286 3766 
C 1286 3943 1325 3981 1498 3981 
L 2362 3981 
C 3085 3981 3226 3886 3334 3314 
L 3494 3314 
L 3475 4224 
L 77 4224 
L 77 4102 
C 550 4064 634 3974 634 3525 
L 634 679 
C 634 230 544 134 77 134 
L 77 0 
L 3533 0 
L 3821 1078 
z
" transform="scale(0.015625)"/>
       <path id="NimbusRomNo9L-Regu-70" d="M 58 2516 
C 115 2522 160 2522 218 2522 
C 435 2522 480 2458 480 2155 
L 480 -855 
C 480 -1189 410 -1261 32 -1299 
L 32 -1408 
L 1581 -1408 
L 1581 -1293 
C 1101 -1293 1018 -1222 1018 -816 
L 1018 199 
C 1242 -13 1395 -77 1664 -77 
C 2419 -77 3008 643 3008 1575 
C 3008 2372 2560 2944 1939 2944 
C 1581 2944 1299 2784 1018 2438 
L 1018 2931 
L 979 2944 
C 634 2810 410 2726 58 2618 
L 58 2516 
z
M 1018 2136 
C 1018 2329 1376 2560 1670 2560 
C 2144 2560 2458 2071 2458 1324 
C 2458 611 2144 128 1683 128 
C 1382 128 1018 359 1018 552 
L 1018 2136 
z
" transform="scale(0.015625)"/>
       <path id="NimbusRomNo9L-Regu-6f" d="M 1600 2944 
C 768 2944 186 2330 186 1446 
C 186 582 781 -64 1587 -64 
C 2394 -64 3008 614 3008 1498 
C 3008 2336 2419 2944 1600 2944 
z
M 1517 2765 
C 2054 2765 2432 2150 2432 1274 
C 2432 550 2144 115 1664 115 
C 1414 115 1178 269 1043 525 
C 864 858 762 1306 762 1760 
C 762 2368 1062 2765 1517 2765 
z
" transform="scale(0.015625)"/>
       <path id="NimbusRomNo9L-Regu-63" d="M 2547 998 
C 2240 550 2010 397 1645 397 
C 1062 397 653 909 653 1645 
C 653 2304 1005 2758 1523 2758 
C 1754 2758 1837 2688 1901 2451 
L 1939 2310 
C 1990 2131 2106 2016 2240 2016 
C 2406 2016 2547 2138 2547 2285 
C 2547 2643 2099 2944 1562 2944 
C 1248 2944 922 2816 659 2586 
C 339 2304 160 1869 160 1363 
C 160 531 666 -64 1376 -64 
C 1664 -64 1920 38 2150 237 
C 2323 390 2445 563 2637 941 
L 2547 998 
z
" transform="scale(0.015625)"/>
       <path id="NimbusRomNo9L-Regu-68" d="M 1005 2222 
C 1274 2516 1466 2624 1715 2624 
C 2035 2624 2195 2395 2195 1948 
L 2195 684 
C 2195 250 2131 166 1760 128 
L 1760 32 
L 3117 32 
L 3117 128 
C 2771 192 2733 243 2733 684 
L 2733 1954 
C 2733 2625 2464 2970 1946 2970 
C 1568 2970 1299 2816 1005 2432 
L 1005 4390 
L 973 4409 
C 755 4332 595 4281 237 4179 
L 64 4128 
L 64 4026 
C 90 4032 109 4032 141 4032 
C 416 4032 467 3980 467 3705 
L 467 686 
C 467 237 429 179 58 128 
L 58 32 
L 1440 32 
L 1440 128 
C 1069 166 1005 243 1005 684 
L 1005 2222 
z
" transform="scale(0.015625)"/>
      </defs>
      <use xlink:href="#NimbusRomNo9L-Regu-54" transform="scale(0.996264)"/>
      <use xlink:href="#NimbusRomNo9L-Regu-72" transform="translate(57.384904 0) scale(0.996264)"/>
      <use xlink:href="#NimbusRomNo9L-Regu-61" transform="translate(90.560134 0) scale(0.996264)"/>
      <use xlink:href="#NimbusRomNo9L-Regu-69" transform="translate(134.793703 0) scale(0.996264)"/>
      <use xlink:href="#NimbusRomNo9L-Regu-6e" transform="translate(162.488872 0) scale(0.996264)"/>
      <use xlink:href="#NimbusRomNo9L-Regu-69" transform="translate(212.302073 0) scale(0.996264)"/>
      <use xlink:href="#NimbusRomNo9L-Regu-6e" transform="translate(239.997242 0) scale(0.996264)"/>
      <use xlink:href="#NimbusRomNo9L-Regu-67" transform="translate(289.810443 0) scale(0.996264)"/>
      <use xlink:href="#NimbusRomNo9L-Regu-45" transform="translate(364.530244 0) scale(0.996264)"/>
      <use xlink:href="#NimbusRomNo9L-Regu-70" transform="translate(425.401874 0) scale(0.996264)"/>
      <use xlink:href="#NimbusRomNo9L-Regu-6f" transform="translate(475.215075 0) scale(0.996264)"/>
      <use xlink:href="#NimbusRomNo9L-Regu-63" transform="translate(525.028275 0) scale(0.996264)"/>
      <use xlink:href="#NimbusRomNo9L-Regu-68" transform="translate(569.261844 0) scale(0.996264)"/>
     </g>
    </g>
   </g>
   <g id="matplotlib.axis_2">
    <g id="ytick_1">
     <g id="line2d_11">
      <path d="M 44.814916 94.036882 
L 204.48 94.036882 
" clip-path="url(#p5549249ef7)" style="fill: none; stroke-dasharray: 1.85,0.8; stroke-dashoffset: 0; stroke: #b0b0b0; stroke-opacity: 0.3; stroke-width: 0.5"/>
     </g>
     <g id="line2d_12">
      <defs>
       <path id="mb513b5c740" d="M 0 0 
L -3.5 0 
" style="stroke: #000000; stroke-width: 0.8"/>
      </defs>
      <g>
       <use xlink:href="#mb513b5c740" x="44.814916" y="94.036882" style="stroke: #000000; stroke-width: 0.8"/>
      </g>
     </g>
     <g id="text_7">
      <!-- $\mathdefault{0.80}$ -->
      <g transform="translate(20.111406 97.41417) scale(0.1 -0.1)">
       <defs>
        <path id="CMMI10-3a" d="M 1229 338 
C 1229 522 1075 675 890 675 
C 704 675 550 522 550 338 
C 550 153 704 0 890 0 
C 1075 0 1229 153 1229 338 
z
" transform="scale(0.015625)"/>
        <path id="NimbusRomNo9L-Regu-38" d="M 1856 2400 
C 2490 2740 2714 3008 2714 3444 
C 2714 3968 2253 4352 1613 4352 
C 915 4352 397 3924 397 3341 
C 397 2925 518 2740 1190 2151 
C 499 1626 358 1428 358 992 
C 358 372 864 -64 1587 -64 
C 2355 -64 2848 359 2848 1018 
C 2848 1511 2630 1824 1856 2400 
z
M 1741 1741 
C 2208 1408 2362 1178 2362 820 
C 2362 404 2074 116 1658 116 
C 1171 116 845 487 845 1044 
C 845 1453 986 1722 1357 2023 
L 1741 1741 
z
M 1670 2516 
C 1101 2887 870 3181 870 3540 
C 870 3911 1158 4173 1562 4173 
C 1997 4173 2272 3892 2272 3450 
C 2272 3085 2093 2797 1728 2554 
C 1696 2535 1696 2535 1670 2516 
z
" transform="scale(0.015625)"/>
       </defs>
       <use xlink:href="#NimbusRomNo9L-Regu-30" transform="scale(0.996264)"/>
       <use xlink:href="#CMMI10-3a" transform="translate(49.8132 0) scale(0.996264)"/>
       <use xlink:href="#NimbusRomNo9L-Regu-38" transform="translate(77.408707 0) scale(0.996264)"/>
       <use xlink:href="#NimbusRomNo9L-Regu-30" transform="translate(127.221908 0) scale(0.996264)"/>
      </g>
     </g>
    </g>
    <g id="ytick_2">
     <g id="line2d_13">
      <path d="M 44.814916 67.572308 
L 204.48 67.572308 
" clip-path="url(#p5549249ef7)" style="fill: none; stroke-dasharray: 1.85,0.8; stroke-dashoffset: 0; stroke: #b0b0b0; stroke-opacity: 0.3; stroke-width: 0.5"/>
     </g>
     <g id="line2d_14">
      <g>
       <use xlink:href="#mb513b5c740" x="44.814916" y="67.572308" style="stroke: #000000; stroke-width: 0.8"/>
      </g>
     </g>
     <g id="text_8">
      <!-- $\mathdefault{0.82}$ -->
      <g transform="translate(20.111406 70.949597) scale(0.1 -0.1)">
       <use xlink:href="#NimbusRomNo9L-Regu-30" transform="scale(0.996264)"/>
       <use xlink:href="#CMMI10-3a" transform="translate(49.8132 0) scale(0.996264)"/>
       <use xlink:href="#NimbusRomNo9L-Regu-38" transform="translate(77.408707 0) scale(0.996264)"/>
       <use xlink:href="#NimbusRomNo9L-Regu-32" transform="translate(127.221908 0) scale(0.996264)"/>
      </g>
     </g>
    </g>
    <g id="ytick_3">
     <g id="line2d_15">
      <path d="M 44.814916 41.107735 
L 204.48 41.107735 
" clip-path="url(#p5549249ef7)" style="fill: none; stroke-dasharray: 1.85,0.8; stroke-dashoffset: 0; stroke: #b0b0b0; stroke-opacity: 0.3; stroke-width: 0.5"/>
     </g>
     <g id="line2d_16">
      <g>
       <use xlink:href="#mb513b5c740" x="44.814916" y="41.107735" style="stroke: #000000; stroke-width: 0.8"/>
      </g>
     </g>
     <g id="text_9">
      <!-- $\mathdefault{0.84}$ -->
      <g transform="translate(20.111406 44.485023) scale(0.1 -0.1)">
       <use xlink:href="#NimbusRomNo9L-Regu-30" transform="scale(0.996264)"/>
       <use xlink:href="#CMMI10-3a" transform="translate(49.8132 0) scale(0.996264)"/>
       <use xlink:href="#NimbusRomNo9L-Regu-38" transform="translate(77.408707 0) scale(0.996264)"/>
       <use xlink:href="#NimbusRomNo9L-Regu-34" transform="translate(127.221908 0) scale(0.996264)"/>
      </g>
     </g>
    </g>
    <g id="ytick_4">
     <g id="line2d_17">
      <path d="M 44.814916 14.643161 
L 204.48 14.643161 
" clip-path="url(#p5549249ef7)" style="fill: none; stroke-dasharray: 1.85,0.8; stroke-dashoffset: 0; stroke: #b0b0b0; stroke-opacity: 0.3; stroke-width: 0.5"/>
     </g>
     <g id="line2d_18">
      <g>
       <use xlink:href="#mb513b5c740" x="44.814916" y="14.643161" style="stroke: #000000; stroke-width: 0.8"/>
      </g>
     </g>
     <g id="text_10">
      <!-- $\mathdefault{0.86}$ -->
      <g transform="translate(20.111406 18.02045) scale(0.1 -0.1)">
       <defs>
        <path id="NimbusRomNo9L-Regu-36" d="M 2854 4391 
C 2125 4327 1754 4205 1286 3879 
C 595 3386 218 2656 218 1802 
C 218 1248 390 688 666 370 
C 909 89 1254 -64 1651 -64 
C 2445 -64 2995 541 2995 1421 
C 2995 2236 2528 2752 1792 2752 
C 1510 2752 1376 2707 973 2464 
C 1146 3431 1862 4122 2867 4288 
L 2854 4391 
z
M 1549 2458 
C 2099 2458 2419 2000 2419 1204 
C 2419 504 2170 116 1722 116 
C 1158 116 813 714 813 1700 
C 813 2025 864 2203 992 2299 
C 1126 2400 1325 2458 1549 2458 
z
" transform="scale(0.015625)"/>
       </defs>
       <use xlink:href="#NimbusRomNo9L-Regu-30" transform="scale(0.996264)"/>
       <use xlink:href="#CMMI10-3a" transform="translate(49.8132 0) scale(0.996264)"/>
       <use xlink:href="#NimbusRomNo9L-Regu-38" transform="translate(77.408707 0) scale(0.996264)"/>
       <use xlink:href="#NimbusRomNo9L-Regu-36" transform="translate(127.221908 0) scale(0.996264)"/>
      </g>
     </g>
    </g>
    <g id="text_11">
     <!-- Reward -->
     <g transform="translate(13.954578 68.003415) rotate(-90) scale(0.1 -0.1)">
      <defs>
       <path id="NimbusRomNo9L-Regu-52" d="M 4218 121 
C 3974 140 3846 205 3661 424 
L 2342 2061 
C 2771 2143 2963 2219 3174 2388 
C 3379 2553 3501 2818 3501 3113 
C 3501 3385 3418 3618 3251 3801 
C 3008 4059 2477 4224 1875 4224 
L 109 4224 
L 109 4102 
C 589 4051 653 3981 653 3528 
L 653 765 
C 653 236 589 159 109 121 
L 109 0 
L 1882 0 
L 1882 134 
C 1389 134 1306 219 1306 692 
L 1306 1984 
L 1664 1984 
L 3187 0 
L 4218 0 
L 4218 121 
z
M 1306 3762 
C 1306 3937 1376 3987 1632 3987 
C 2432 3987 2803 3716 2803 3123 
C 2803 2807 2669 2542 2438 2423 
C 2144 2258 1920 2221 1306 2221 
L 1306 3762 
z
" transform="scale(0.015625)"/>
       <path id="NimbusRomNo9L-Regu-65" d="M 2611 1053 
C 2304 564 2029 378 1619 378 
C 1254 378 979 564 794 930 
C 678 1174 634 1386 621 1779 
L 2592 1779 
C 2541 2193 2477 2377 2317 2581 
C 2125 2811 1830 2944 1498 2944 
C 1178 2944 877 2829 634 2611 
C 333 2349 160 1894 160 1370 
C 160 486 621 -64 1357 -64 
C 1965 -64 2445 315 2714 1008 
L 2611 1053 
z
M 634 1984 
C 704 2479 922 2714 1312 2714 
C 1702 2714 1856 2535 1939 1984 
L 634 1984 
z
" transform="scale(0.015625)"/>
       <path id="NimbusRomNo9L-Regu-77" d="M 3654 2912 
L 3654 2816 
C 3872 2771 3936 2726 3936 2618 
C 3936 2521 3898 2367 3827 2194 
L 3251 770 
L 2714 2207 
C 2605 2501 2605 2501 2605 2586 
C 2605 2726 2675 2771 2976 2816 
L 2976 2912 
L 1677 2912 
L 1677 2816 
C 1914 2790 1990 2720 2118 2373 
C 2163 2252 2208 2129 2246 2014 
L 1664 738 
L 1030 2412 
C 1005 2476 992 2540 992 2605 
C 992 2739 1069 2790 1286 2816 
L 1286 2912 
L 134 2912 
L 134 2816 
C 282 2803 333 2739 474 2412 
L 1338 219 
C 1414 26 1466 -64 1504 -64 
C 1536 -64 1587 20 1664 186 
L 2381 1725 
L 2963 212 
C 3053 -25 3078 -64 3117 -64 
C 3162 -64 3194 -6 3296 251 
L 4179 2469 
C 4294 2739 4314 2771 4442 2816 
L 4442 2912 
L 3654 2912 
z
" transform="scale(0.015625)"/>
       <path id="NimbusRomNo9L-Regu-64" d="M 2202 -64 
L 3142 269 
L 3142 365 
C 3027 365 3014 365 2995 365 
C 2765 365 2714 435 2714 731 
L 2714 4364 
L 2682 4377 
C 2374 4268 2150 4204 1741 4096 
L 1741 3994 
C 1792 4000 1830 4000 1882 4000 
C 2118 4000 2176 3936 2176 3672 
L 2176 2669 
C 1933 2874 1760 2944 1504 2944 
C 768 2944 173 2221 173 1312 
C 173 493 653 -64 1357 -64 
C 1715 -64 1958 64 2176 365 
L 2176 -45 
L 2202 -64 
z
M 2176 653 
C 2176 608 2131 531 2067 461 
C 1952 333 1792 269 1606 269 
C 1075 269 723 781 723 1568 
C 723 2291 1037 2765 1523 2765 
C 1862 2765 2176 2464 2176 2125 
L 2176 653 
z
" transform="scale(0.015625)"/>
      </defs>
      <use xlink:href="#NimbusRomNo9L-Regu-52" transform="scale(0.996264)"/>
      <use xlink:href="#NimbusRomNo9L-Regu-65" transform="translate(66.450031 0) scale(0.996264)"/>
      <use xlink:href="#NimbusRomNo9L-Regu-77" transform="translate(108.19297 0) scale(0.996264)"/>
      <use xlink:href="#NimbusRomNo9L-Regu-61" transform="translate(179.126858 0) scale(0.996264)"/>
      <use xlink:href="#NimbusRomNo9L-Regu-72" transform="translate(223.360427 0) scale(0.996264)"/>
      <use xlink:href="#NimbusRomNo9L-Regu-64" transform="translate(256.535657 0) scale(0.996264)"/>
     </g>
    </g>
   </g>
   <g id="line2d_19">
    <path d="M 52.07242 94.036882 
L 52.801817 92.823922 
L 53.526847 91.182016 
L 53.531214 90.879757 
L 54.260612 89.808638 
L 54.990009 89.35471 
L 55.710671 88.298841 
L 55.719406 87.198396 
L 56.448804 87.432184 
L 57.178201 87.332828 
L 57.894496 86.627985 
L 57.907599 85.709652 
L 59.366393 83.131319 
L 60.07832 81.586338 
L 60.095791 81.214633 
L 61.554585 80.263452 
L 62.262145 78.747151 
L 62.283983 76.915205 
L 63.01338 76.810749 
L 63.742777 75.494378 
L 64.445969 74.797651 
L 64.472175 74.934908 
L 65.201572 73.141085 
L 65.93097 73.18464 
L 66.629793 73.062355 
L 66.660367 71.452661 
L 67.389764 70.575812 
L 68.813618 68.135444 
L 68.848559 67.457171 
L 69.577956 68.219179 
L 70.307354 68.367087 
L 70.997442 68.623785 
L 71.036751 67.554687 
L 71.766149 67.543837 
L 73.181267 66.754436 
L 73.224943 67.02726 
L 73.954341 66.139531 
L 74.683738 66.142832 
L 75.365091 65.53962 
L 75.413135 64.997575 
L 76.142533 64.791757 
L 76.87193 64.257191 
L 77.548916 64.113911 
L 77.601328 64.302872 
L 79.060122 62.425103 
L 79.73274 62.961759 
L 79.78952 62.280089 
L 80.518917 61.770639 
L 81.248314 61.59709 
L 81.916565 62.031758 
L 81.977712 60.918311 
L 82.707109 59.926268 
L 83.436506 58.503069 
L 84.100389 60.071367 
L 84.165904 59.087794 
L 84.895301 58.003787 
L 85.624699 56.048467 
L 86.284214 58.96454 
L 86.354096 58.377976 
L 87.083493 56.418915 
L 87.812891 56.133481 
L 88.542288 55.520093 
L 88.68642 58.992795 
L 89.271685 57.248123 
L 90.001083 56.292782 
L 90.73048 54.795649 
L 90.870245 56.180483 
L 91.459878 57.055258 
L 92.189275 56.983998 
L 92.918672 56.196702 
L 93.054069 58.008601 
L 93.64807 58.80996 
L 94.377467 58.004404 
L 95.106864 57.537711 
L 95.237894 58.343779 
L 95.836262 57.212078 
L 96.565659 57.084115 
L 97.295057 55.799607 
L 97.421718 56.733325 
L 98.024454 55.562594 
L 98.753851 54.458704 
L 99.483249 54.248006 
L 99.605543 54.535626 
L 100.942043 52.412803 
L 101.671441 51.671219 
L 101.789367 52.535952 
L 102.400838 53.66771 
L 103.130235 53.244384 
L 103.859633 53.045829 
L 103.973192 53.896816 
L 104.58903 53.305795 
L 105.318428 52.886088 
L 106.047825 52.305174 
L 106.157016 52.722491 
L 106.777222 51.812407 
L 107.50662 52.896266 
L 108.236017 54.575766 
L 108.340841 55.85253 
L 109.694812 55.185517 
L 110.424209 55.739434 
L 110.524665 57.11483 
L 111.153607 56.932705 
L 111.883004 55.649711 
L 112.612401 53.993605 
L 112.70849 56.48915 
L 113.341799 58.684067 
L 114.071196 57.383559 
L 114.800593 58.742514 
L 114.892314 60.308417 
L 115.529991 59.212204 
L 116.259388 57.410204 
L 116.988785 56.78405 
L 117.076138 57.597654 
L 117.718183 56.308011 
L 118.44758 56.189088 
L 119.176978 56.567566 
L 119.259963 58.375757 
L 120.635772 56.615938 
L 121.36517 56.16313 
L 121.443787 57.424019 
L 122.094567 57.955552 
L 122.823964 57.323943 
L 123.553362 57.194862 
L 123.627612 59.217318 
L 124.282759 60.116859 
L 125.012157 58.471216 
L 125.741554 58.05499 
L 126.029819 59.848306 
L 126.470951 61.678824 
L 127.200349 61.34079 
L 127.929746 60.179119 
L 128.213643 61.510118 
L 128.659143 61.504579 
L 129.388541 59.679655 
L 130.397468 60.581697 
L 130.847336 59.096809 
L 131.576733 58.619192 
L 132.30613 58.311754 
L 132.581292 59.992234 
L 133.035528 58.788914 
L 133.764925 58.479779 
L 134.494322 57.456987 
L 134.765117 59.917898 
L 135.22372 59.43207 
L 135.953117 59.502445 
L 136.682514 58.524561 
L 136.948941 60.864527 
L 137.411912 60.148695 
L 138.141309 59.495155 
L 138.870707 58.572478 
L 139.132766 59.368198 
L 139.600104 59.384078 
L 140.329501 59.179261 
L 141.058899 58.039205 
L 141.31659 59.391603 
L 141.788296 59.407249 
L 142.517693 59.918949 
L 143.247091 59.43311 
L 143.500414 60.771569 
L 144.705886 57.97496 
L 145.435283 57.012351 
L 145.684239 58.595555 
L 146.16468 58.288354 
L 146.894078 56.991804 
L 147.623475 54.99147 
L 147.868063 55.271655 
L 148.352872 54.005271 
L 149.08227 52.475879 
L 149.811667 51.733664 
L 150.051888 52.266965 
L 150.541065 51.306301 
L 151.270462 51.733607 
L 151.999859 54.031213 
L 152.235712 55.203153 
L 152.729257 55.09528 
L 153.458654 54.492274 
L 154.188051 53.564492 
L 154.419537 53.858947 
L 155.646846 51.089078 
L 156.376243 49.313175 
L 156.603361 49.209067 
L 157.105641 49.822749 
L 157.835038 49.382737 
L 158.564436 48.175243 
L 158.787186 49.074936 
L 159.293833 48.311596 
L 160.02323 48.438041 
L 161.189393 47.865096 
L 161.482025 46.341971 
L 162.211422 45.10975 
L 162.94082 44.937407 
L 163.373217 45.648939 
L 163.670217 44.20311 
L 164.399615 44.370641 
L 165.129012 44.315958 
L 165.557041 46.136396 
L 165.858409 45.953786 
L 166.587807 46.765424 
L 167.317204 45.749507 
L 167.740866 45.681035 
L 168.046601 44.400289 
L 169.505396 44.181713 
L 169.92469 44.790534 
L 170.234793 43.628962 
L 170.964191 43.085485 
L 171.693588 43.594999 
L 172.108515 44.209687 
L 172.422986 43.109057 
L 173.152383 42.460511 
L 173.88178 41.653046 
L 174.292339 41.956346 
L 174.611178 43.138766 
L 176.069972 42.396706 
L 176.476164 44.126067 
L 176.79937 42.916005 
L 177.528767 42.434793 
L 178.258165 42.78541 
L 178.659988 43.297925 
L 178.987562 43.309103 
L 179.716959 41.666135 
L 180.446357 40.866613 
L 180.843813 40.185356 
L 181.175754 38.408222 
L 182.634549 36.442585 
L 183.363946 36.655835 
L 184.093344 35.57561 
L 184.822741 36.49103 
L 185.211462 36.625412 
L 185.552138 36.15197 
L 186.281536 36.73082 
L 187.010933 35.760113 
L 187.395286 36.783957 
L 187.74033 37.025679 
L 188.469728 35.776352 
L 189.579111 35.455374 
L 189.928522 34.717961 
L 191.387317 33.484066 
L 191.762935 33.538249 
L 192.116715 32.158392 
L 193.575509 30.372813 
L 193.946759 29.575956 
L 194.304907 28.070319 
L 195.034304 26.745141 
L 195.763701 25.708888 
L 196.130584 25.399747 
L 196.493099 25.920714 
L 197.004114 27.814836 
L 197.222496 29.304074 
L 197.222496 29.304074 
" clip-path="url(#p5549249ef7)" style="fill: none; stroke: #66c2a5; stroke-width: 2; stroke-linecap: square"/>
   </g>
   <g id="line2d_20">
    <path d="M 52.07242 11.33509 
L 52.801817 11.886435 
L 53.526847 11.384711 
L 53.531214 12.211232 
L 54.260612 12.533278 
L 54.990009 13.348314 
L 55.719406 12.434369 
L 56.448804 13.08499 
L 57.178201 13.949644 
L 57.894496 14.088902 
L 57.907599 15.715399 
L 59.366393 15.299078 
L 60.07832 14.763227 
L 60.095791 15.004619 
L 60.825188 15.629538 
L 61.554585 16.964956 
L 62.262145 16.963792 
L 62.283983 18.230734 
L 63.01338 19.65041 
L 63.742777 19.898064 
L 64.445969 19.977837 
L 64.472175 21.049235 
L 65.201572 21.448304 
L 65.93097 22.394728 
L 66.629793 23.662495 
L 66.660367 25.854871 
L 67.389764 27.198305 
L 68.119162 29.520727 
L 68.813618 29.063198 
L 68.848559 30.26428 
L 70.307354 37.566726 
L 70.997442 38.462235 
L 71.036751 41.002824 
L 71.766149 41.47803 
L 72.495546 42.49983 
L 73.181267 43.125469 
L 73.224943 43.634583 
L 74.683738 44.582455 
L 75.365091 43.75377 
L 75.413135 45.249023 
L 76.87193 48.689377 
L 77.548916 48.701776 
L 77.601328 49.92701 
L 78.330725 51.691337 
L 79.060122 52.004524 
L 80.518917 51.013274 
L 81.248314 51.608914 
L 81.916565 51.040772 
L 81.977712 50.809118 
L 82.707109 51.4068 
L 84.100389 50.499655 
L 84.165904 50.108009 
L 84.895301 49.334338 
L 85.624699 49.450557 
L 86.354096 49.787582 
L 87.083493 49.237653 
L 87.812891 49.520242 
L 88.542288 49.469198 
L 88.68642 49.142991 
L 90.73048 47.200737 
L 90.870245 47.669099 
L 91.459878 47.636566 
L 92.189275 47.769762 
L 92.918672 49.059451 
L 93.054069 49.840032 
L 93.64807 49.730656 
L 95.106864 47.92399 
L 95.237894 48.054312 
L 95.836262 47.68712 
L 96.565659 46.551716 
L 97.295057 46.69576 
L 97.421718 47.499979 
L 98.024454 47.083195 
L 98.753851 46.0641 
L 99.483249 46.378424 
L 99.605543 47.84743 
L 100.212646 47.64771 
L 100.942043 47.064046 
L 101.789367 46.956212 
L 102.400838 47.868095 
L 103.130235 48.329782 
L 103.973192 47.923844 
L 105.318428 47.030324 
L 106.047825 45.846354 
L 106.157016 45.335837 
L 106.777222 44.940695 
L 107.50662 46.258675 
L 108.236017 46.956995 
L 108.340841 47.427794 
L 108.965414 47.893885 
L 109.694812 47.19749 
L 110.424209 48.162095 
L 110.524665 48.95165 
L 111.153607 49.071695 
L 111.883004 48.363522 
L 112.612401 47.331623 
L 113.341799 49.805927 
L 114.892314 48.071662 
L 115.529991 46.767009 
L 116.259388 45.916479 
L 117.076138 45.996333 
L 117.718183 45.15351 
L 118.44758 45.035864 
L 119.176978 44.698856 
L 119.259963 45.523043 
L 119.906375 46.449258 
L 120.635772 46.26352 
L 121.36517 45.859101 
L 121.443787 45.01765 
L 122.094567 46.33486 
L 122.823964 45.323248 
L 123.553362 46.141192 
L 123.627612 47.281763 
L 124.282759 49.844426 
L 125.012157 49.293929 
L 125.741554 50.73378 
L 126.029819 51.056542 
L 126.470951 53.801996 
L 127.200349 53.652999 
L 128.213643 54.125831 
L 128.659143 54.194135 
L 129.388541 52.607719 
L 130.117938 52.911742 
L 130.397468 53.212724 
L 130.847336 52.628544 
L 131.576733 53.208031 
L 132.30613 52.458494 
L 132.581292 51.440781 
L 133.035528 50.764051 
L 133.764925 51.196779 
L 134.494322 51.184104 
L 135.22372 50.114885 
L 135.953117 50.443836 
L 136.682514 49.22573 
L 136.948941 49.122497 
L 137.411912 49.295968 
L 138.141309 49.743377 
L 138.870707 48.807949 
L 139.132766 48.157547 
L 139.600104 48.285534 
L 140.329501 48.687913 
L 141.058899 48.148981 
L 141.31659 48.497591 
L 141.788296 48.346504 
L 142.517693 48.638004 
L 143.247091 48.540647 
L 143.500414 48.664803 
L 143.976488 47.629891 
L 144.705886 47.59775 
L 146.16468 50.119509 
L 146.894078 49.566261 
L 147.868063 47.656457 
L 148.352872 47.624051 
L 149.08227 47.040623 
L 149.811667 46.683568 
L 150.051888 46.05441 
L 150.541065 46.093159 
L 151.270462 47.399614 
L 151.999859 49.685426 
L 152.235712 51.672707 
L 152.729257 52.261753 
L 153.458654 52.624369 
L 154.188051 52.707687 
L 154.419537 53.451786 
L 154.917449 52.534409 
L 156.376243 50.782217 
L 156.603361 50.222343 
L 157.105641 50.495084 
L 157.835038 50.324023 
L 159.293833 47.640341 
L 160.02323 48.104306 
L 160.752628 48.122555 
L 162.211422 45.386883 
L 162.94082 45.542576 
L 163.373217 45.806981 
L 163.670217 45.021186 
L 164.399615 45.180536 
L 165.557041 47.521767 
L 165.858409 46.498286 
L 166.587807 46.58773 
L 167.317204 45.738993 
L 167.740866 45.891165 
L 168.046601 44.88399 
L 168.775999 44.548501 
L 169.505396 45.098519 
L 169.92469 44.595481 
L 170.234793 43.766667 
L 170.964191 43.883427 
L 171.693588 45.211979 
L 172.108515 45.369421 
L 172.422986 45.194481 
L 173.152383 45.021291 
L 173.88178 44.077949 
L 174.292339 44.357 
L 174.611178 46.342431 
L 175.340575 46.709107 
L 176.069972 46.851578 
L 176.476164 47.543969 
L 176.79937 46.244593 
L 177.528767 47.549534 
L 178.258165 48.069542 
L 178.659988 48.088139 
L 178.987562 47.389801 
L 179.716959 46.698447 
L 180.446357 47.502638 
L 180.843813 47.085828 
L 181.175754 46.397514 
L 181.905151 45.219872 
L 182.634549 43.392392 
L 183.027637 43.347491 
L 183.363946 44.019789 
L 184.822741 43.643933 
L 185.211462 44.47867 
L 185.552138 44.147234 
L 186.281536 47.127184 
L 187.010933 46.383322 
L 187.395286 47.521471 
L 187.74033 47.821222 
L 188.469728 46.519074 
L 189.199125 46.994252 
L 189.579111 46.141449 
L 189.928522 47.006345 
L 190.65792 47.145844 
L 191.387317 46.34666 
L 191.762935 47.595445 
L 192.116715 47.067438 
L 192.846112 46.269038 
L 193.575509 46.085103 
L 194.304907 44.900123 
L 195.034304 44.729876 
L 195.763701 43.734314 
L 196.130584 42.914111 
L 196.493099 43.756146 
L 197.222496 50.781834 
L 197.222496 50.781834 
" clip-path="url(#p5549249ef7)" style="fill: none; stroke: #fc8d62; stroke-width: 2; stroke-linecap: square"/>
   </g>
   <g id="patch_3">
    <path d="M 44.814916 98.171971 
L 44.814916 7.2 
" style="fill: none; stroke: #000000; stroke-width: 0.8; stroke-linejoin: miter; stroke-linecap: square"/>
   </g>
   <g id="patch_4">
    <path d="M 44.814916 98.171971 
L 204.48 98.171971 
" style="fill: none; stroke: #000000; stroke-width: 0.8; stroke-linejoin: miter; stroke-linecap: square"/>
   </g>
   <g id="legend_1">
    <g id="line2d_21">
     <path d="M 49.412334 137.963562 
L 59.412334 137.963562 
L 69.412334 137.963562 
" style="fill: none; stroke: #66c2a5; stroke-width: 2; stroke-linecap: square"/>
    </g>
    <g id="text_12">
     <!-- GRPO -->
     <g transform="translate(77.412334 141.463562) scale(0.1 -0.1)">
      <defs>
       <path id="NimbusRomNo9L-Regu-47" d="M 4538 2304 
L 2906 2304 
L 2906 2176 
C 3181 2176 3258 2157 3334 2105 
C 3430 2047 3469 1898 3469 1621 
L 3469 574 
C 3469 367 3078 192 2618 192 
C 1574 192 934 922 934 2112 
C 934 2714 1114 3296 1395 3610 
C 1677 3924 2074 4096 2509 4096 
C 2867 4096 3181 3975 3430 3744 
C 3622 3565 3725 3392 3885 3002 
L 4032 3002 
L 3981 4352 
L 3840 4352 
C 3802 4231 3686 4141 3552 4141 
C 3488 4141 3386 4160 3270 4205 
C 2982 4301 2688 4352 2400 4352 
C 1120 4352 205 3412 205 2106 
C 205 1479 378 999 736 621 
C 1165 180 1779 -64 2483 -64 
C 3034 -64 3834 160 4090 385 
L 4090 1694 
C 4090 2073 4166 2157 4538 2189 
L 4538 2304 
z
" transform="scale(0.015625)"/>
       <path id="NimbusRomNo9L-Regu-50" d="M 1293 1875 
C 1459 1856 1568 1856 1734 1856 
C 2234 1856 2579 1919 2854 2072 
C 3238 2274 3469 2660 3469 3078 
C 3469 3344 3379 3584 3206 3768 
C 2950 4047 2394 4224 1792 4224 
L 102 4224 
L 102 4102 
C 576 4051 640 3987 640 3528 
L 640 766 
C 640 230 589 166 102 122 
L 102 0 
L 1894 0 
L 1894 128 
C 1389 128 1293 218 1293 693 
L 1293 1875 
z
M 1293 3772 
C 1293 3943 1338 3987 1510 3987 
C 2374 3987 2771 3690 2771 3040 
C 2771 2428 2394 2112 1658 2112 
C 1530 2112 1440 2119 1293 2131 
L 1293 3772 
z
" transform="scale(0.015625)"/>
       <path id="NimbusRomNo9L-Regu-4f" d="M 2310 4352 
C 1088 4352 218 3431 218 2144 
C 218 1543 422 960 768 589 
C 1139 186 1709 -64 2272 -64 
C 3533 -64 4403 832 4403 2119 
C 4403 2752 4218 3296 3866 3680 
C 3462 4122 2925 4352 2310 4352 
z
M 2310 4122 
C 2605 4122 2899 4007 3130 3802 
C 3475 3488 3674 2887 3674 2125 
C 3674 1748 3590 1306 3462 973 
C 3405 813 3296 653 3149 506 
C 2925 282 2637 167 2298 167 
C 2003 167 1715 282 1491 480 
C 1158 775 947 1421 947 2132 
C 947 2784 1126 3405 1395 3706 
C 1645 3981 1958 4122 2310 4122 
z
" transform="scale(0.015625)"/>
      </defs>
      <use xlink:href="#NimbusRomNo9L-Regu-47" transform="scale(0.996264)"/>
      <use xlink:href="#NimbusRomNo9L-Regu-52" transform="translate(71.929985 0) scale(0.996264)"/>
      <use xlink:href="#NimbusRomNo9L-Regu-50" transform="translate(138.380016 0) scale(0.996264)"/>
      <use xlink:href="#NimbusRomNo9L-Regu-4f" transform="translate(193.771693 0) scale(0.996264)"/>
     </g>
    </g>
    <g id="line2d_22">
     <path d="M 123.982495 137.963562 
L 133.982495 137.963562 
L 143.982495 137.963562 
" style="fill: none; stroke: #fc8d62; stroke-width: 2; stroke-linecap: square"/>
    </g>
    <g id="text_13">
     <!-- GRPO-Low -->
     <g transform="translate(151.982495 141.463562) scale(0.1 -0.1)">
      <defs>
       <path id="NimbusRomNo9L-Regu-2d" d="M 250 1619 
L 250 1216 
L 1824 1216 
L 1824 1619 
L 250 1619 
z
" transform="scale(0.015625)"/>
       <path id="NimbusRomNo9L-Regu-4c" d="M 3667 1114 
C 3558 870 3469 723 3373 614 
C 3149 365 2797 250 2266 250 
L 1837 250 
C 1370 250 1286 288 1286 513 
L 1286 3550 
C 1286 4007 1376 4096 1882 4096 
L 1882 4237 
L 77 4237 
L 77 4115 
C 550 4077 634 3986 634 3536 
L 634 681 
C 634 230 544 134 77 134 
L 77 0 
L 3520 0 
L 3827 1114 
L 3667 1114 
z
" transform="scale(0.015625)"/>
      </defs>
      <use xlink:href="#NimbusRomNo9L-Regu-47" transform="scale(0.996264)"/>
      <use xlink:href="#NimbusRomNo9L-Regu-52" transform="translate(71.929985 0) scale(0.996264)"/>
      <use xlink:href="#NimbusRomNo9L-Regu-50" transform="translate(138.380016 0) scale(0.996264)"/>
      <use xlink:href="#NimbusRomNo9L-Regu-4f" transform="translate(193.771693 0) scale(0.996264)"/>
      <use xlink:href="#NimbusRomNo9L-Regu-2d" transform="translate(265.701678 0) scale(0.996264)"/>
      <use xlink:href="#NimbusRomNo9L-Regu-4c" transform="translate(298.876908 0) scale(0.996264)"/>
      <use xlink:href="#NimbusRomNo9L-Regu-6f" transform="translate(359.748538 0) scale(0.996264)"/>
      <use xlink:href="#NimbusRomNo9L-Regu-77" transform="translate(407.071109 0) scale(0.996264)"/>
     </g>
    </g>
   </g>
  </g>
 </g>
 <defs>
  <clipPath id="p5549249ef7">
   <rect x="44.814916" y="7.2" width="159.665084" height="90.971971"/>
  </clipPath>
 </defs>
</svg>
